<?xml version="1.0" standalone="no"?>
<!DOCTYPE svg PUBLIC "-//W3C//DTD SVG 20010904//EN"
 "http://www.w3.org/TR/2001/REC-SVG-20010904/DTD/svg10.dtd">
<svg version="1.0" xmlns="http://www.w3.org/2000/svg"
 width="27.000000pt" height="23.000000pt" viewBox="0 0 27.000000 23.000000"
 preserveAspectRatio="xMidYMid meet">

<g transform="translate(0.000000,23.000000) scale(0.100000,-0.100000)"
fill="#000000" stroke="none">
<path d="M0 115 l0 -115 75 0 76 0 59 63 c33 34 59 70 60 80 0 9 -10 33 -22
52 l-23 35 -112 0 -113 0 0 -115z m180 55 c0 -5 -13 -10 -30 -10 -16 0 -30 -4
-30 -10 0 -5 11 -10 24 -10 33 0 53 -25 36 -45 -14 -17 -90 -21 -90 -5 0 6 16
10 35 10 19 0 35 5 35 10 0 6 -14 10 -30 10 -32 0 -47 18 -36 45 6 17 86 22
86 5z"/>
</g>
</svg>
