<?xml version="1.0" encoding="UTF-8"?>
<svg width="27px" height="23px" viewBox="0 0 27 23" version="1.1" xmlns="http://www.w3.org/2000/svg" xmlns:xlink="http://www.w3.org/1999/xlink">
    <!-- Generator: Sketch 51 (57462) - http://www.bohemiancoding.com/sketch -->
    <title>1@2x</title>
    <desc>Created with Sketch.</desc>
    <defs></defs>
    <g id="主模块" stroke="none" stroke-width="1" fill="none" fill-rule="evenodd">
        <g id="理财" transform="translate(-32.000000, -229.000000)">
            <rect fill="#F5F5F5" x="0" y="0" width="375" height="1341"></rect>
            <g id="特色功能" transform="translate(5.000000, 204.000000)" fill="#3F82DD">
                <g id="icon" transform="translate(27.000000, 24.000000)">
                    <path d="M26.8333333,8.82511111 L19.6940404,8.82511111 L14.8382912,22.9330556 C14.8382912,22.9330556 26.7859007,8.94522222 26.8333333,8.82511111 M0,8.82511111 L11.8093771,22.5625 L7.07017677,8.82511111 L0,8.82511111 M3.81900673,2.06183333 L0.120614478,7.87572222 L6.65141414,7.87572222 L3.81900673,2.06183333 M8.13673401,8.82511111 C8.13673401,8.82511111 13.3936279,23.9987222 13.4058249,24 L18.6301936,8.82511111 L8.13673401,8.82511111 M22.2703114,1.16738889 C22.0534764,1.06261111 21.8149579,1 21.5913468,1 L14.403266,1 L19.2319108,7.40166667 L22.2703114,1.16738889 M12.3636616,1 L5.35311448,1 C5.07936027,1 4.78392256,1.09327778 4.53320707,1.24277778 L7.53501684,7.40166667 L12.3636616,1 M8.41861953,7.87572222 L18.3469529,7.87572222 L13.3827862,1.29261111 L8.41861953,7.87572222 M26.8116498,7.87572222 C26.7913215,7.831 23.0251684,1.90338889 23.0251684,1.90338889 L20.1141582,7.87572222 L26.8116498,7.87572222" id="1"></path>
                </g>
            </g>
        </g>
    </g>
</svg>