<?xml version="1.0" encoding="UTF-8"?>
<svg width="24px" height="24px" viewBox="0 0 24 24" version="1.1" xmlns="http://www.w3.org/2000/svg" xmlns:xlink="http://www.w3.org/1999/xlink">
    <!-- Generator: Sketch 51 (57462) - http://www.bohemiancoding.com/sketch -->
    <title>2@2x</title>
    <desc>Created with Sketch.</desc>
    <defs></defs>
    <g id="主模块" stroke="none" stroke-width="1" fill="none" fill-rule="evenodd">
        <g id="理财" transform="translate(-106.000000, -228.000000)">
            <rect fill="#F5F5F5" x="0" y="0" width="375" height="1341"></rect>
            <g id="特色功能" transform="translate(5.000000, 204.000000)" fill="#3F82DD">
                <g id="icon" transform="translate(27.000000, 24.000000)">
                    <g id="2" transform="translate(74.000000, 0.000000)">
                        <path d="M5.2173913,6.52173913 L5.2173913,10.4347826 L18.7826087,10.4347826 L18.7826087,6.52173913 C18.7826087,2.92043478 15.746713,0 12,0 C8.25464348,0 5.2173913,2.92043478 5.2173913,6.52173913 Z M16.0695652,6.52173913 L16.0695652,8.86956522 L7.93043478,8.86956522 L7.93043478,6.52173913 C7.93043478,4.36434783 9.75631304,2.60869565 12,2.60869565 C14.243687,2.60869565 16.0695652,4.36434783 16.0695652,6.52173913 Z" id="Fill-1"></path>
                        <path d="M12,21.3913043 C9.05466667,21.3913043 6.66666667,19.0552174 6.66666667,16.173913 C6.66666667,13.2926087 9.05466667,10.9565217 12,10.9565217 C14.9453333,10.9565217 17.3333333,13.2926087 17.3333333,16.173913 C17.3333333,19.0552174 14.9453333,21.3913043 12,21.3913043 M21.3333333,8.34782609 L2.66666667,8.34782609 C1.19466667,8.34782609 0,9.51652174 0,10.9565217 L0,21.3913043 C0,22.8313043 1.19466667,24 2.66666667,24 L21.3333333,24 C22.8053333,24 24,22.8313043 24,21.3913043 L24,10.9565217 C24,9.51652174 22.8053333,8.34782609 21.3333333,8.34782609" id="Fill-3"></path>
                        <path d="M12,12.5217391 C11.6127342,12.5217391 11.2254683,12.6699893 10.9304807,12.964977 L8.79144212,15.1040156 C8.19995408,15.6955036 8.19995408,16.6515661 8.79144212,17.2430541 L10.9304807,19.3820927 C11.2254683,19.6770804 11.6127342,19.8253306 12,19.8253306 C12.3872658,19.8253306 12.7745317,19.6770804 13.0695193,19.3820927 L15.2085579,17.2430541 C15.8000459,16.6515661 15.8000459,15.6955036 15.2085579,15.1040156 L13.0695193,12.964977 C12.7745317,12.6699893 12.3872658,12.5217391 12,12.5217391 M13.0695193,15.1040156 L13.0770831,15.1040156 L13.0695193,15.1040156" id="Fill-5"></path>
                    </g>
                </g>
            </g>
        </g>
    </g>
</svg>