<?xml version="1.0" encoding="UTF-8"?>
<svg width="23px" height="25px" viewBox="0 0 23 25" version="1.1" xmlns="http://www.w3.org/2000/svg" xmlns:xlink="http://www.w3.org/1999/xlink">
    <!-- Generator: Sketch 51 (57462) - http://www.bohemiancoding.com/sketch -->
    <title>3@2x</title>
    <desc>Created with Sketch.</desc>
    <defs></defs>
    <g id="主模块" stroke="none" stroke-width="1" fill="none" fill-rule="evenodd">
        <g id="理财" transform="translate(-177.000000, -228.000000)">
            <rect fill="#F5F5F5" x="0" y="0" width="375" height="1341"></rect>
            <g id="特色功能" transform="translate(5.000000, 204.000000)" fill="#3F82DD">
                <g id="icon" transform="translate(27.000000, 24.000000)">
                    <g id="3" transform="translate(145.000000, 0.000000)">
                        <path d="M22.5488987,17.4920939 C22.5488987,22.7864167 17.6986606,24.9474206 11.7155653,24.9474206 C5.73247009,24.9474206 0.882231991,22.7864167 0.882231991,17.4920939 C0.882231991,12.1977711 5.73247009,5.7750153 11.7155653,5.7750153 C17.6986606,5.7750153 22.5488987,12.1977711 22.5488987,17.4920939 Z M14.1837082,12.8911274 L11.8421606,16.1079832 L11.7229939,16.1079832 L9.37989866,12.889758 C9.1802558,12.6501029 8.77477961,12.5747827 8.45751771,12.7172063 C8.1402558,12.8596299 8.02108913,13.1704968 8.18823199,13.4238464 L10.1351368,16.1079832 L8.23466056,16.1079832 C7.97620818,16.0942886 7.73013675,16.1928895 7.5954939,16.3627023 C7.46085104,16.5352539 7.46085104,16.7488893 7.5954939,16.9200715 C7.73013675,17.0926231 7.97620818,17.1912241 8.23466056,17.1775295 L11.0451368,17.1775295 L11.0451368,17.855411 L8.23466056,17.855411 C7.97930342,17.8444553 7.73942247,17.9430562 7.60787485,18.112869 C7.47787485,18.2826817 7.47787485,18.4935782 7.60787485,18.6647604 C7.73942247,18.8332036 7.97930342,18.9318046 8.23466056,18.9235878 L11.0451368,18.9235878 L11.0451368,20.3245429 C11.0590653,20.612129 11.3623987,20.8408284 11.7338272,20.8408284 C12.1021606,20.8408284 12.4054939,20.612129 12.4194225,20.3245429 L12.4194225,18.9235878 L15.2128748,18.9235878 C15.4666844,18.9318046 15.7081129,18.8332036 15.8381129,18.6647604 C15.9681129,18.4935782 15.9681129,18.2826817 15.8381129,18.112869 C15.7081129,17.9430562 15.4666844,17.8444553 15.2128748,17.855411 L12.4194225,17.855411 L12.4194225,17.1775295 L15.2128748,17.1775295 C15.5935891,17.1775295 15.9015653,16.936505 15.9015653,16.6420716 C15.9015653,16.3462688 15.5935891,16.1079832 15.2128748,16.1079832 L13.4300177,16.1079832 L15.3738272,13.4238464 C15.4666844,13.3019647 15.4929939,13.1554327 15.4434701,13.0198564 C15.3970415,12.8815412 15.2825177,12.7651373 15.1231129,12.6939255 C15.0147796,12.6459945 14.8971606,12.6227138 14.7810891,12.6227138 C14.5427558,12.6227138 14.3121606,12.7185758 14.1837082,12.8911274 Z" id="Combined-Shape"></path>
                        <path d="M15.8472804,5.41666667 L15.2087395,5.18973913 C13.1042291,4.44491561 10.7272524,4.44491561 8.62441354,5.18973913 L7.98252951,5.41666667 C7.46601346,5.41666667 7.00800246,5.14101236 6.84585988,4.73309966 L5.48018475,1.32361781 C5.16760061,0.542597257 6.06189215,-0.200834066 6.9996446,0.0608983097 L10.3628494,0.999236722 C11.3457344,1.27349884 12.4105263,1.27489103 13.3950828,1.0034133 L16.8385232,0.0525451487 C17.7746041,-0.20640284 18.6655525,0.53563629 18.3529683,1.31665684 L16.9856216,4.73309966 C16.8218075,5.14101236 16.3637965,5.41666667 15.8472804,5.41666667" id="Fill-9"></path>
                    </g>
                </g>
            </g>
        </g>
    </g>
</svg>