<?xml version="1.0" encoding="UTF-8"?>
<svg width="30px" height="23px" viewBox="0 0 30 23" version="1.1" xmlns="http://www.w3.org/2000/svg" xmlns:xlink="http://www.w3.org/1999/xlink">
    <!-- Generator: Sketch 51 (57462) - http://www.bohemiancoding.com/sketch -->
    <title>4@2x</title>
    <desc>Created with Sketch.</desc>
    <defs></defs>
    <g id="主模块" stroke="none" stroke-width="1" fill="none" fill-rule="evenodd">
        <g id="理财" transform="translate(-244.000000, -229.000000)">
            <rect fill="#F5F5F5" x="0" y="0" width="375" height="1341"></rect>
            <g id="特色功能" transform="translate(5.000000, 204.000000)" fill="#3F82DD">
                <g id="icon" transform="translate(27.000000, 24.000000)">
                    <path d="M229.380694,15.4040578 C230.963614,14.7412316 233.098879,13.6461668 235.426494,12.6342944 L235.426494,20.7527847 C235.426494,20.7527847 232.415065,24 227.123666,24 C221.424627,24 218.346139,20.7527847 218.346139,20.7527847 L218.346139,13.1759491 C220.142585,13.9174463 222.159617,14.5567616 224.601054,15.4040578 C226.106327,15.9466167 228.015713,16.1347038 229.380694,15.4040578 M240.704657,8.30467401 L240.704657,13.2112154 L241.859641,14.5649 L239.643201,16.5334847 L237.618229,14.5649 L238.836741,13.1759491 L238.836741,9.11670389 C232.28889,11.8539138 230.516267,12.704827 229.065699,13.3685575 C227.613365,14.0322879 226.567792,14.0286709 225.126929,13.4788778 C223.686949,12.9290847 217.157626,10.3926217 213.754437,8.74052969 C211.48241,7.63823077 211.335941,6.939234 213.792378,6.00331982 C216.998805,4.76899822 221.97256,2.79137087 224.781051,1.71167857 C226.444264,1.02986283 227.323075,0.657305687 228.849525,1.43497351 C231.574194,2.57615582 237.476172,4.94532988 240.572306,6.24114149 C243.267857,7.43477117 241.456411,7.82722214 240.704657,8.30467401" id="4"></path>
                </g>
            </g>
        </g>
    </g>
</svg>