<?xml version="1.0" encoding="UTF-8"?>
<svg width="24px" height="25px" viewBox="0 0 24 25" version="1.1" xmlns="http://www.w3.org/2000/svg" xmlns:xlink="http://www.w3.org/1999/xlink">
    <!-- Generator: Sketch 51 (57462) - http://www.bohemiancoding.com/sketch -->
    <title>5@2x</title>
    <desc>Created with Sketch.</desc>
    <defs></defs>
    <g id="主模块" stroke="none" stroke-width="1" fill="none" fill-rule="evenodd">
        <g id="理财" transform="translate(-318.000000, -228.000000)">
            <rect fill="#F5F5F5" x="0" y="0" width="375" height="1341"></rect>
            <g id="特色功能" transform="translate(5.000000, 204.000000)" fill="#3F82DD">
                <g id="icon" transform="translate(27.000000, 24.000000)">
                    <path d="M297.979167,0 L294.517892,1.90708556 L294.517892,5.65975936 L297.287898,7.17312834 L297.287898,7.63368984 L293.826624,9.47326203 L297.979167,11.7105615 L298.67114,11.3161765 L302.13171,9.47326203 L298.67114,7.63101604 L298.67114,7.17045455 L301.440441,5.65708556 L301.440441,1.90975936 L297.979167,0 Z M303.367678,5.11497326 L308.160754,7.38836898 L308.162868,7.38836898 L308.162868,11.3669786 L309.958333,12.7653743 L309.958333,6.25200535 L303.367678,2.84291444 L303.367678,5.11497326 Z M286,6.25200535 L286,12.7653743 L287.795466,11.3669786 L287.795466,7.38836898 L287.79758,7.38836898 L292.589951,5.11497326 L292.589951,2.84291444 L286,6.25200535 Z M298.579534,13.0701872 L298.579534,17.6156417 L302.173989,15.3429144 L303.371906,15.9124332 L303.371906,18.7513369 L306.497059,20.6590909 L309.958333,18.815508 L309.958333,14.9993316 L306.365288,13.0668449 L303.518474,14.736631 L302.770129,14.2032086 L302.770129,10.7967914 L298.579534,13.0701872 Z M293.1875,14.2032086 L292.369393,14.736631 L289.46057,13.1590909 L286,15.0013369 L286,18.8188503 L289.46057,20.6617647 L293.1875,18.7546791 L293.1875,15.9097594 L293.785049,15.3395722 L297.378799,17.6122995 L297.378799,13.0701872 L293.1875,10.7967914 L293.1875,14.2032086 Z M297.979167,22.7272727 L293.787868,20.4545455 L291.680239,21.7112299 L297.979167,25 L304.280208,21.7112299 L302.173989,20.4545455 L297.979167,22.7272727 Z" id="5"></path>
                </g>
            </g>
        </g>
    </g>
</svg>