<?xml version="1.0" standalone="no"?><!DOCTYPE svg PUBLIC "-//W3C//DTD SVG 1.1//EN" "http://www.w3.org/Graphics/SVG/1.1/DTD/svg11.dtd"><svg t="1554602128947" class="icon" style="" viewBox="0 0 1024 1024" version="1.1" xmlns="http://www.w3.org/2000/svg" p-id="29370" xmlns:xlink="http://www.w3.org/1999/xlink" width="200" height="200"><defs><style type="text/css"></style></defs><path d="M512 512m-487.02439 0a487.02439 487.02439 0 1 0 974.04878 0 487.02439 487.02439 0 1 0-974.04878 0Z" fill="#FFFFFF" p-id="29371"></path><path d="M512 1024C229.77561 1024 0 794.22439 0 512S229.77561 0 512 0 1024 229.77561 1024 512 794.22439 1024 512 1024z m0-974.04878C257.24878 49.95122 49.95122 257.24878 49.95122 512S257.24878 974.04878 512 974.04878 974.04878 766.75122 974.04878 512 766.75122 49.95122 512 49.95122z" fill="#0467E0" p-id="29372"></path><path d="M512 349.658537c14.985366 0 27.473171 12.487805 27.473171 27.47317v269.736586c0 14.985366-12.487805 27.473171-27.473171 27.47317-14.985366 0-27.473171-12.487805-27.473171-27.47317V377.131707c0-14.985366 12.487805-27.473171 27.473171-27.47317z" fill="#0467E0" p-id="29373"></path><path d="M674.341463 512c0 14.985366-12.487805 27.473171-27.47317 27.473171H377.131707c-14.985366 0-27.473171-12.487805-27.47317-27.473171 0-14.985366 12.487805-27.473171 27.47317-27.473171h269.736586c14.985366 0 27.473171 12.487805 27.47317 27.473171z" fill="#0467E0" p-id="29374"></path></svg>