<?xml version="1.0" standalone="no"?><!DOCTYPE svg PUBLIC "-//W3C//DTD SVG 1.1//EN" "http://www.w3.org/Graphics/SVG/1.1/DTD/svg11.dtd"><svg t="1554602147161" class="icon" style="" viewBox="0 0 1068 1024" version="1.1" xmlns="http://www.w3.org/2000/svg" p-id="30121" xmlns:xlink="http://www.w3.org/1999/xlink" width="208.59375" height="200"><defs><style type="text/css"></style></defs><path d="M733.833893 116.754681a218.392703 218.392703 0 0 0-368.207393-7.005281A431.193471 431.193471 0 0 0 12.289966 533.138742v47.74652a431.316371 431.316371 0 0 0 430.824772 430.824772h182.751801A431.316371 431.316371 0 0 0 1056.93711 580.885262v-47.74652A430.763322 430.763322 0 0 0 733.833893 116.754681z m-186.25444-43.690831a158.294767 158.294767 0 0 1 158.110417 158.048968 155.283725 155.283725 0 0 1-7.06673 46.210274H396.535766a157.741719 157.741719 0 0 1 151.043687-204.259242z m448.583773 507.821412a370.481037 370.481037 0 0 1-370.050888 370.050888H443.114738a370.481037 370.481037 0 0 1-370.050888-370.050888v-47.74652a370.603937 370.603937 0 0 1 262.206433-353.889582 211.879021 211.879021 0 0 0-1.474796 98.319731h-30.724916a28.942871 28.942871 0 0 0 0 57.885742h482.135382a28.942871 28.942871 0 1 0 0-57.885742h-23.781085a216.426308 216.426308 0 0 0 5.038886-46.210274 220.236198 220.236198 0 0 0-4.055689-41.478636 370.296687 370.296687 0 0 1 233.509362 343.504561v47.746519z m-345.716755 24.579932a28.942871 28.942871 0 0 0 0-57.885741h-61.326932l58.008642-58.008642A28.942871 28.942871 0 0 0 606.202592 448.583773L534.613538 520.172828 462.778685 448.583773a28.942871 28.942871 0 0 0-40.925589 40.925588l58.008642 58.008642h-61.081133a28.942871 28.942871 0 0 0 0 57.885742h86.767163v57.824291H418.780605a28.942871 28.942871 0 0 0 0 57.885742h86.767163v77.180989a28.942871 28.942871 0 0 0 57.885741 0v-77.365338h86.767163a28.942871 28.942871 0 0 0 0-57.885742H563.433509v-57.824292z" p-id="30122"></path></svg>