<?xml version="1.0" standalone="no"?><!DOCTYPE svg PUBLIC "-//W3C//DTD SVG 1.1//EN" "http://www.w3.org/Graphics/SVG/1.1/DTD/svg11.dtd"><svg t="1553923023757" class="icon" style="" viewBox="0 0 1024 1024" version="1.1" xmlns="http://www.w3.org/2000/svg" p-id="34151" xmlns:xlink="http://www.w3.org/1999/xlink" width="200" height="200"><defs><style type="text/css"></style></defs><path d="M446.35136 476.66176H517.03808a168.36608 168.36608 0 0 0 38.97344-4.94592 84.2752 84.2752 0 0 0 11.50976-4.54656 58.56256 58.56256 0 0 0 22.91712-18.67776 65.05472 65.05472 0 0 0 11.50976-39.48544 72.13056 72.13056 0 0 0-10.8032-39.68 52.48 52.48 0 0 0-23.62368-20.19328 56.6272 56.6272 0 0 0-7.168-2.82624 182.96832 182.96832 0 0 0-43.3152-5.85728c-7.77216-0.50176-16.26112-0.50176-25.5488-0.50176h-90.48064v136.81664h45.34272v-0.1024zM571.86304 537.7536l-4.34176-1.31072a220.13952 220.13952 0 0 0-50.4832-6.16448v-0.1024H401.00864V685.7728h116.02944c12.4928 0.22528 24.97536-0.48128 37.36576-2.11968 4.43392-0.79872 8.81664-1.8432 13.12768-3.13344a84.00896 84.00896 0 0 0 21.504-9.28768 65.10592 65.10592 0 0 0 22.82496-25.14944 79.0528 79.0528 0 0 0 8.99072-38.16448 75.3152 75.3152 0 0 0-12.92288-43.91936 68.43392 68.43392 0 0 0-36.06528-26.24512z" fill="#2B81Ee" p-id="34152"></path><path d="M512 62.8736C263.95648 62.8736 62.88384 263.95648 62.88384 512S263.96672 961.11616 512 961.11616c248.04352 0 449.11616-201.08288 449.11616-449.11616C961.11616 263.95648 760.04352 62.8736 512 62.8736z m157.51168 603.92448a114.86208 114.86208 0 0 1-33.21856 42.10688 138.84416 138.84416 0 0 1-49.58208 22.72256c-6.32832 1.60768-12.72832 2.88768-19.17952 3.84v54.2208h-50.4832v-50.4832H446.3616v50.4832h-50.4832v-50.4832h-54.8352V286.52544h54.8352v-52.20352h50.4832v52.20352h64.52224l6.16448 0.1024v-52.30592h50.4832v57.55904c9.09312 1.75104 17.98144 4.39296 26.55232 7.87456a107.49952 107.49952 0 0 1 49.17248 42.31168 111.77984 111.77984 0 0 1 17.67424 59.78112 102.47168 102.47168 0 0 1-15.64672 54.6304 112.62976 112.62976 0 0 1-47.4624 41.90208 118.272 118.272 0 0 1 62.60736 40.89856l0.4096 0.1024a109.91616 109.91616 0 0 1 22.10816 68.5568 133.38624 133.38624 0 0 1-13.43488 58.85952z" fill="#2B81Ee" p-id="34153"></path></svg>