<?xml version="1.0" encoding="UTF-8"?>
<svg width="18px" height="18px" viewBox="0 0 18 18" version="1.1" xmlns="http://www.w3.org/2000/svg" xmlns:xlink="http://www.w3.org/1999/xlink">
    <!-- Generator: Sketch 51 (57462) - http://www.bohemiancoding.com/sketch -->
    <title>Combined Shape@2x</title>
    <desc>Created with Sketch.</desc>
    <defs></defs>
    <g id="主模块" stroke="none" stroke-width="1" fill="none" fill-rule="evenodd">
        <g id="钱包" transform="translate(-244.000000, -214.000000)">
            <rect fill="#F5F5F5" x="0" y="0" width="375" height="788"></rect>
            <g id="Part-1" fill="#FFFFFF">
                <g id="我的资产" transform="translate(41.000000, 90.000000)">
                    <g id="收款" transform="translate(172.000000, 111.000000)">
                        <rect id="Rectangle-3" stroke="#FFFFFF" fill-opacity="0.1" fill-rule="nonzero" x="0.5" y="0.5" width="120" height="42" rx="21"></rect>
                        <path d="M36,13 C36.552,13 37,13.448 37,14 C37,14.552 36.552,15 36,15 L33.5,15 C33.224,15 33,15.224 33,15.5 L33,18 C33,18.552 32.552,19 32,19 C31.448,19 31,18.552 31,18 L31,14 C31,13.448 31.448,13 32,13 L36,13 Z M44,13 L48,13 C48.553,13 49,13.448 49,14 L49,18 C49,18.552 48.553,19 48,19 C47.447,19 47,18.552 47,18 L47,15.5 C47,15.224 46.776,15 46.5,15 L44,15 C43.447,15 43,14.552 43,14 C43,13.448 43.447,13 44,13 Z M36,31 L32,31 C31.448,31 31,30.553 31,30 L31,26 C31,25.447 31.448,25 32,25 C32.552,25 33,25.447 33,26 L33,28.5 C33,28.776 33.224,29 33.5,29 L36,29 C36.552,29 37,29.447 37,30 C37,30.553 36.552,31 36,31 Z M44,31 C43.447,31 43,30.553 43,30 C43,29.447 43.447,29 44,29 L46.5,29 C46.776,29 47,28.776 47,28.5 L47,26 C47,25.447 47.447,25 48,25 C48.553,25 49,25.447 49,26 L49,30 C49,30.553 48.553,31 48,31 L44,31 Z M43,23 C43.553,23 44,23.447 44,24 C44,24.553 43.553,25 43,25 L41,25 L41,27 C41,27.553 40.552,28 40,28 C39.448,28 39,27.553 39,27 L39,25 L37,25 C36.448,25 36,24.553 36,24 C36,23.447 36.448,23 37,23 L39,23 L39,22 L37,22 C36.448,22 36,21.552 36,21 C36,20.448 36.448,20 37,20 L38.612,20 L37.281,18.657 C36.906,18.278 36.906,17.663 37.281,17.284 C37.657,16.905 38.266,16.905 38.641,17.284 L40,18.657 L41.359,17.284 C41.734,16.905 42.343,16.905 42.719,17.284 C43.094,17.663 43.094,18.278 42.719,18.657 L41.389,20 L43,20 C43.553,20 44,20.448 44,21 C44,21.552 43.553,22 43,22 L41,22 L41,23 L43,23 Z" id="Combined-Shape"></path>
                    </g>
                </g>
            </g>
        </g>
    </g>
</svg>