<?xml version="1.0" encoding="UTF-8"?>
<svg width="19px" height="19px" viewBox="0 0 19 19" version="1.1" xmlns="http://www.w3.org/2000/svg" xmlns:xlink="http://www.w3.org/1999/xlink">
    <!-- Generator: Sketch 51 (57462) - http://www.bohemiancoding.com/sketch -->
    <title>Combined Shape@2x</title>
    <desc>Created with Sketch.</desc>
    <defs></defs>
    <g id="主模块" stroke="none" stroke-width="1" fill="none" fill-rule="evenodd">
        <g id="钱包" transform="translate(-71.000000, -213.000000)">
            <rect fill="#F5F5F5" x="0" y="0" width="375" height="788"></rect>
            <g id="Part-1" fill="#FFFFFF">
                <g id="我的资产" transform="translate(41.000000, 90.000000)">
                    <g id="转账" transform="translate(0.000000, 111.000000)">
                        <path d="M42.3501141,22.4497905 C42.8754638,22.4497905 43.3001135,22.8747383 43.3001135,23.4004568 C43.3001135,23.9261752 42.8754638,24.351123 42.3501141,24.351123 L40.4501154,24.351123 L40.4501154,26.2524555 C40.4501154,26.7781739 40.0245157,27.2031217 39.500116,27.2031217 C38.9757163,27.2031217 38.5501166,26.7781739 38.5501166,26.2524555 L38.5501166,24.351123 L36.6501179,24.351123 C36.1257182,24.351123 35.7001185,23.9261752 35.7001185,23.4004568 C35.7001185,22.8747383 36.1257182,22.4497905 36.6501179,22.4497905 L38.5501166,22.4497905 L38.5501166,21.4991243 L36.6501179,21.4991243 C36.1257182,21.4991243 35.7001185,21.0732258 35.7001185,20.5484581 C35.7001185,20.0236903 36.1257182,19.5977918 36.6501179,19.5977918 L38.1815169,19.5977918 L36.9170677,18.3210471 C36.5608179,17.9607446 36.5608179,17.3760849 36.9170677,17.0157824 C37.2742675,16.6554799 37.8528171,16.6554799 38.2090668,17.0157824 L39.500116,18.3210471 L40.7911652,17.0157824 C41.1474149,16.6554799 41.7259645,16.6554799 42.0831643,17.0157824 C42.4394141,17.3760849 42.4394141,17.9607446 42.0831643,18.3210471 L40.8196651,19.5977918 L42.3501141,19.5977918 C42.8754638,19.5977918 43.3001135,20.0236903 43.3001135,20.5484581 C43.3001135,21.0732258 42.8754638,21.4991243 42.3501141,21.4991243 L40.4501154,21.4991243 L40.4501154,22.4497905 L42.3501141,22.4497905 Z M47.052801,13.1334516 L47.052801,15.9854503 C47.052801,16.0158716 47.0376011,16.0405889 47.0347511,16.0700596 C47.0309511,16.3390981 46.9245511,16.604334 46.7013013,16.7887633 C46.2947015,17.1224471 45.6971519,17.0644565 45.3637022,16.658522 C43.0789537,13.8816259 39.1117563,13.092573 35.9340083,14.7828575 C32.7553104,16.4731421 31.1887615,20.2026057 32.2100108,23.6506721 C32.3591607,24.1545252 32.0713109,24.6830956 31.5687612,24.8333009 C31.4785113,24.8599196 31.3882613,24.8722782 31.2989614,24.8722782 C30.8885616,24.8722782 30.5104619,24.6041903 30.387912,24.1916012 C29.1111128,19.8793792 31.0690615,15.2163613 35.0429089,13.1039809 C38.3213568,11.3604591 42.2667042,11.7321696 45.1528023,13.8654646 L45.1528023,13.1334516 C45.1528023,12.6077332 45.577452,12.1827854 46.1028017,12.1827854 C46.6272013,12.1827854 47.052801,12.6077332 47.052801,13.1334516 Z M48.61232,18.8067425 C49.8891192,23.1189645 47.9311705,27.7810317 43.9573231,29.8943627 C42.554174,30.6406357 41.027525,30.9999875 39.515126,30.9999875 C37.4925773,30.9999875 35.4975786,30.3516332 33.8474297,29.1309777 L33.8474297,29.7698254 C33.8474297,30.2945932 33.42278,30.7204917 32.8974303,30.7204917 C32.3730307,30.7204917 31.947431,30.2945932 31.947431,29.7698254 L31.947431,26.9178267 C31.947431,26.8988134 31.9578809,26.8817014 31.9588309,26.8626881 C31.9597809,26.8484281 31.9654809,26.8351188 31.9673809,26.8218095 C32.0177309,26.344575 32.4072307,25.9671605 32.8974303,25.9671605 C33.1976301,25.9671605 33.45318,26.1145138 33.6279799,26.3322163 C33.6298798,26.3350683 33.6336798,26.3369697 33.6365298,26.3398217 C35.9222283,29.1186191 39.8875257,29.9057707 43.0662237,28.2154861 C46.2449216,26.5252016 47.8114705,22.7947873 46.7902212,19.3467209 C46.6420213,18.8438184 46.9289211,18.3142974 47.4314708,18.1650428 C47.9368705,18.0167388 48.4631701,18.30384 48.61232,18.8067425 Z" id="Combined-Shape"></path>
                    </g>
                </g>
            </g>
        </g>
    </g>
</svg>