<?xml version="1.0" standalone="no"?><!DOCTYPE svg PUBLIC "-//W3C//DTD SVG 1.1//EN" "http://www.w3.org/Graphics/SVG/1.1/DTD/svg11.dtd"><svg t="1554604292556" class="icon" style="" viewBox="0 0 1024 1024" version="1.1" xmlns="http://www.w3.org/2000/svg" p-id="39296" xmlns:xlink="http://www.w3.org/1999/xlink" width="200" height="200"><defs><style type="text/css"></style></defs><path d="M512 512m-512 0a512 512 0 1 0 1024 0 512 512 0 1 0-1024 0Z" fill="" p-id="39297"></path><path d="M817.8688 772.7616L720.896 340.5824a11.008 11.008 0 0 0-1.8432-4.096l-198.0928-272.8448a11.1104 11.1104 0 0 0-17.92 0L304.9472 336.4864a11.008 11.008 0 0 0-1.8432 4.096l-96.9728 432.1792a11.1104 11.1104 0 0 0 5.12 11.8784l295.0656 178.688h0.4096l0.5632 0.3072 0.9216 0.4096h7.68l0.9216-0.4096 0.5632-0.3072h0.4096l295.0656-178.688a11.1104 11.1104 0 0 0 5.0176-11.8784zM523.0592 104.2432l174.7456 240.64-44.544 137.4208-130.2016-228.864z m-22.1184 149.248l-130.2016 228.864-44.544-137.4208 174.7456-240.64z m11.0592 25.6l131.9936 232.0896L512 917.9136 380.0064 510.9248z m-19.712 650.24l-260.4032-157.696 133.12-234.2912z m166.5536-391.9872l133.12 234.2912-260.4032 157.696z m9.2672-28.5184l40.0384-123.5456 71.68 320.256z m-352.256-123.904l40.0384 123.5456-111.872 196.7104z" fill="#FFFFFF" p-id="39298"></path></svg>