<?xml version="1.0" encoding="UTF-8"?>
<svg width="16px" height="20px" viewBox="0 0 16 20" version="1.1" xmlns="http://www.w3.org/2000/svg" xmlns:xlink="http://www.w3.org/1999/xlink">
    <!-- Generator: Sketch 51 (57462) - http://www.bohemiancoding.com/sketch -->
    <title>Fill 1@2x</title>
    <desc>Created with Sketch.</desc>
    <defs>
        <linearGradient x1="50%" y1="0%" x2="50%" y2="100%" id="linearGradient-1">
            <stop stop-color="#94BBF4" offset="0%"></stop>
            <stop stop-color="#5B86E5" offset="100%"></stop>
        </linearGradient>
    </defs>
    <g id="主模块" stroke="none" stroke-width="1" fill="none" fill-rule="evenodd">
        <g id="理财" transform="translate(-17.000000, -332.000000)">
            <rect fill="#F5F5F5" x="0" y="0" width="375" height="1341"></rect>
            <g id="为你推荐" transform="translate(0.000000, 316.000000)" fill="url(#linearGradient-1)">
                <g id="推荐icon" transform="translate(17.000000, 16.000000)">
                    <path d="M11.0667667,9.0547 L9.70479136,10.3987 C9.65738395,10.4457 9.63664321,10.5127 9.64750741,10.5787 L9.96948272,12.4767 C9.99713704,12.6427 9.82528519,12.7687 9.67812469,12.6907 L7.99516173,11.7947 C7.93590247,11.7637 7.86676667,11.7637 7.80750741,11.7947 L6.12454444,12.6907 C5.97738395,12.7687 5.8055321,12.6427 5.83318642,12.4767 L6.15516173,10.5787 C6.16602593,10.5127 6.14429753,10.4457 6.09689012,10.3987 L4.73590247,9.0547 C4.6163963,8.9377 4.68256914,8.7327 4.84651975,8.7087 L6.72800123,8.4317 C6.79417407,8.4217 6.85047037,8.3807 6.8801,8.3207 L7.72158148,6.5937 C7.7946679,6.4427 8.00701358,6.4427 8.08108765,6.5937 L8.92256914,8.3207 C8.95121111,8.3807 9.00849506,8.4217 9.07368025,8.4317 L10.9561494,8.7087 C11.1210877,8.7327 11.1862728,8.9377 11.0667667,9.0547 M14.9996062,-0.0003 L1.00059383,-0.0003 C0.447507407,-0.0003 0.0001,0.4617 0.0001,1.0317 L0.0001,18.9667 C0.0001,19.7347 0.782322222,20.2327 1.44701358,19.8897 L7.55269259,16.7407 C7.83417407,16.5947 8.16503827,16.5947 8.44750741,16.7407 L14.5521988,19.8897 C15.2178778,20.2327 16.0001,19.7347 16.0001,18.9667 L16.0001,1.0317 C16.0001,0.4617 15.5526926,-0.0003 14.9996062,-0.0003" id="Fill-1"></path>
                </g>
            </g>
        </g>
    </g>
</svg>