<?xml version="1.0" encoding="UTF-8"?>
<svg width="64px" height="64px" viewBox="0 0 64 64" version="1.1" xmlns="http://www.w3.org/2000/svg" xmlns:xlink="http://www.w3.org/1999/xlink">
    <!-- Generator: Sketch 51 (57462) - http://www.bohemiancoding.com/sketch -->
    <title>主动基金@2x</title>
    <desc>Created with Sketch.</desc>
    <defs>
        <linearGradient x1="50%" y1="0%" x2="50%" y2="100%" id="linearGradient-1">
            <stop stop-color="#FC938D" offset="0%"></stop>
            <stop stop-color="#F75A54" offset="100%"></stop>
        </linearGradient>
        <filter x="-37.5%" y="-37.5%" width="175.0%" height="175.0%" filterUnits="objectBoundingBox" id="filter-2">
            <feGaussianBlur stdDeviation="5" in="SourceGraphic"></feGaussianBlur>
        </filter>
    </defs>
    <g id="主模块" stroke="none" stroke-width="1" fill="none" fill-rule="evenodd">
        <g id="钱包" transform="translate(-198.000000, -267.000000)">
            <rect fill="#F5F5F5" x="0" y="0" width="375" height="788"></rect>
            <g id="Part-1">
                <g id="4Tab" transform="translate(15.000000, 264.000000)">
                    <g id="主动基金" transform="translate(195.000000, 15.000000)">
                        <circle id="Oval-2-Copy-2" fill="url(#linearGradient-1)" fill-rule="nonzero" filter="url(#filter-2)" cx="20" cy="20" r="20"></circle>
                        <circle id="Oval-2-Copy-2" fill="url(#linearGradient-1)" fill-rule="nonzero" cx="20" cy="20" r="20"></circle>
                        <g id="3" transform="translate(11.000000, 12.000000)" fill="#FFFFFF">
                            <g id="Fill-1">
                                <path d="M9.25,14.6225775 C9.25000269,14.8974687 9.16508664,15.1682207 9.00530377,15.3975579 C8.76262687,15.7474713 8.39215735,16 7.97521778,16 L1.44746739,16 C1.03117324,16 0.48708647,15.7474713 0.244409572,15.3975579 C0.00108725655,15.0483161 -0.0679723927,14.6030328 0.0707923231,14.1933453 L1.43649529,9.32746683 C1.62108464,8.78614205 2.08449425,8.43690025 2.90611045,8.47316767 L6.52883765,8.47316767 C7.08454193,8.47316767 7.65121831,8.78614205 7.82483556,9.32746683 L9.17892102,14.1933453 C9.22675718,14.3339225 9.24997212,14.4786906 9.24999997,14.6223317 C9.24998763,14.4784865 9.27179794,14.3335055 9.31545708,14.1927262 L10.6812738,9.32518017 C10.8664365,8.78366987 11.3864404,8.47058824 12.1961239,8.47058824 L15.8180866,8.47058824 C16.7084159,8.49410295 16.8942237,8.78366987 17.0671282,9.32518017 L18.4322998,14.1927262 C18.5710105,14.5904608 18.4903647,15.04799 18.2471371,15.3973514 C18.0039095,15.7473848 17.6800361,16 17.2639039,16 L10.7386936,16 C10.3225614,16 9.7322344,15.7473848 9.48900677,15.3973514 C9.32980088,15.1680669 9.25007118,14.8974008 9.25000005,14.6225775 Z M6.04989375,7.52941176 C5.63294951,7.52941176 5.12370957,7.27614729 4.86941231,6.92681698 C4.62608727,6.57748667 4.55702685,6.13209052 4.69579312,5.7222992 L6.06151139,0.855187471 C6.24674822,0.313053701 6.95219722,0 7.50790772,0 L11.1190579,0 C11.6747684,0 12.2653318,0.313053701 12.4383056,0.855187471 L13.8046693,5.7222992 C13.9427901,6.13209052 13.8737297,6.57748667 13.6304047,6.92681698 C13.387725,7.27614729 12.9940161,7.52941176 12.5770719,7.52941176 L6.04989375,7.52941176 Z"></path>
                            </g>
                        </g>
                    </g>
                </g>
            </g>
        </g>
    </g>
</svg>