<?xml version="1.0" encoding="UTF-8"?>
<svg width="375px" height="294px" viewBox="0 0 375 294" version="1.1" xmlns="http://www.w3.org/2000/svg" xmlns:xlink="http://www.w3.org/1999/xlink">
    <!-- Generator: Sketch 51 (57462) - http://www.bohemiancoding.com/sketch -->
    <title>Group 5@2x</title>
    <desc>Created with Sketch.</desc>
    <defs>
        <path d="M407.993472,57.9342848 C415.934217,65.8466646 415.934217,78.6751669 407.993472,86.5875466 L300.71154,193.486254 C292.770795,201.398634 279.896304,201.398634 271.955559,193.486254 C264.014814,185.573874 264.014814,172.745372 271.955559,164.832992 L379.23749,57.9342848 C387.178236,50.0219051 400.052727,50.0219051 407.993472,57.9342848 Z" id="path-1"></path>
        <filter x="-4.1%" y="-4.1%" width="108.1%" height="108.1%" filterUnits="objectBoundingBox" id="filter-2">
            <feOffset dx="0" dy="0" in="SourceAlpha" result="shadowOffsetOuter1"></feOffset>
            <feGaussianBlur stdDeviation="2" in="shadowOffsetOuter1" result="shadowBlurOuter1"></feGaussianBlur>
            <feColorMatrix values="0 0 0 0 0.349019608   0 0 0 0 0.521568627   0 0 0 0 0.894117647  0 0 0 1 0" type="matrix" in="shadowBlurOuter1"></feColorMatrix>
        </filter>
        <path d="M504.993472,5.93428483 C512.934217,13.8466646 512.934217,26.6751669 504.993472,34.5875466 L397.71154,141.486254 C389.770795,149.398634 376.896304,149.398634 368.955559,141.486254 C361.014814,133.573874 361.014814,120.745372 368.955559,112.832992 L476.23749,5.93428483 C484.178236,-1.97809494 497.052727,-1.97809494 504.993472,5.93428483 Z" id="path-3"></path>
        <filter x="-4.1%" y="-4.1%" width="108.1%" height="108.1%" filterUnits="objectBoundingBox" id="filter-4">
            <feOffset dx="0" dy="0" in="SourceAlpha" result="shadowOffsetOuter1"></feOffset>
            <feGaussianBlur stdDeviation="2" in="shadowOffsetOuter1" result="shadowBlurOuter1"></feGaussianBlur>
            <feColorMatrix values="0 0 0 0 0.349019608   0 0 0 0 0.521568627   0 0 0 0 0.894117647  0 0 0 1 0" type="matrix" in="shadowBlurOuter1"></feColorMatrix>
        </filter>
        <path d="M145.211278,255.940364 C151.822045,262.527515 151.822045,273.207398 145.211278,279.79455 L55.8977762,368.789013 C49.2870101,375.376165 38.5688406,375.376165 31.9580745,368.789013 C25.3473085,362.201862 25.3473085,351.521979 31.9580745,344.934827 L121.271577,255.940364 C127.882343,249.353212 138.600512,249.353212 145.211278,255.940364 Z" id="path-5"></path>
        <filter x="-4.9%" y="-4.9%" width="109.7%" height="109.8%" filterUnits="objectBoundingBox" id="filter-6">
            <feOffset dx="0" dy="0" in="SourceAlpha" result="shadowOffsetOuter1"></feOffset>
            <feGaussianBlur stdDeviation="2" in="shadowOffsetOuter1" result="shadowBlurOuter1"></feGaussianBlur>
            <feColorMatrix values="0 0 0 0 0.349019608   0 0 0 0 0.521568627   0 0 0 0 0.894117647  0 0 0 1 0" type="matrix" in="shadowBlurOuter1"></feColorMatrix>
        </filter>
        <path d="M197.75474,65.2943938 C203.501125,71.0202523 203.501125,80.3037031 197.75474,86.0295616 L120.119291,163.387687 C114.372905,169.113546 105.056174,169.113546 99.3097889,163.387687 C93.5634037,157.661829 93.5634037,148.378378 99.3097889,142.65252 L176.945238,65.2943938 C182.691623,59.5685354 192.008355,59.5685354 197.75474,65.2943938 Z" id="path-7"></path>
        <filter x="-5.6%" y="-5.6%" width="111.2%" height="111.2%" filterUnits="objectBoundingBox" id="filter-8">
            <feOffset dx="0" dy="0" in="SourceAlpha" result="shadowOffsetOuter1"></feOffset>
            <feGaussianBlur stdDeviation="2" in="shadowOffsetOuter1" result="shadowBlurOuter1"></feGaussianBlur>
            <feColorMatrix values="0 0 0 0 0.349019608   0 0 0 0 0.521568627   0 0 0 0 0.894117647  0 0 0 1 0" type="matrix" in="shadowBlurOuter1"></feColorMatrix>
        </filter>
        <linearGradient x1="50%" y1="0%" x2="50%" y2="100%" id="linearGradient-9">
            <stop stop-color="#3C5B92" offset="0%"></stop>
            <stop stop-color="#FFFFFF" offset="100%"></stop>
        </linearGradient>
        <linearGradient x1="50%" y1="0%" x2="50%" y2="100%" id="linearGradient-10">
            <stop stop-color="#274A88" offset="0%"></stop>
            <stop stop-color="#DFEAFF" offset="100%"></stop>
        </linearGradient>
    </defs>
    <g id="主模块" stroke="none" stroke-width="1" fill="none" fill-rule="evenodd">
        <g id="钱包">
            <rect fill="#F5F5F5" x="0" y="0" width="375" height="788"></rect>
            <g id="Part-1">
                <g id="Bg">
                    <g id="Group-5" transform="translate(-34.000000, -85.000000)">
                        <g id="Rectangle-Copy" opacity="0.01" fill-rule="nonzero">
                            <use fill="black" fill-opacity="1" filter="url(#filter-2)" xlink:href="#path-1"></use>
                            <use fill="#FFFFFF" xlink:href="#path-1"></use>
                        </g>
                        <g id="Rectangle-Copy-2" opacity="0.021752" fill-rule="nonzero">
                            <use fill="black" fill-opacity="1" filter="url(#filter-4)" xlink:href="#path-3"></use>
                            <use fill="#FFFFFF" xlink:href="#path-3"></use>
                        </g>
                        <path d="M140.951118,220.828744 C148.833571,228.600403 148.833571,241.200752 140.951118,248.972411 L34.4567279,353.969939 C26.5742747,361.741598 13.794293,361.741598 5.91183987,353.969939 C-1.97061329,346.198279 -1.97061329,333.597931 5.91183987,325.826271 L112.40623,220.828744 C120.288683,213.057085 133.068665,213.057085 140.951118,220.828744 Z" id="Rectangle" fill="#FFFFFF" fill-rule="nonzero" opacity="0.0317522336"></path>
                        <g id="Rectangle-Copy" opacity="0.0317522336" fill-rule="nonzero">
                            <use fill="black" fill-opacity="1" filter="url(#filter-6)" xlink:href="#path-5"></use>
                            <use fill="#FFFFFF" xlink:href="#path-5"></use>
                        </g>
                        <g id="Rectangle-Copy" opacity="0.021752" fill-rule="nonzero">
                            <use fill="black" fill-opacity="1" filter="url(#filter-8)" xlink:href="#path-7"></use>
                            <use fill="#FFFFFF" xlink:href="#path-7"></use>
                        </g>
                        <polygon id="Fill-1" fill="url(#linearGradient-9)" opacity="0.100000001" points="340.673494 183 300.908796 243.916332 341.999072 379.0002 383.092 243.916332"></polygon>
                        <polygon id="Fill-2" fill="url(#linearGradient-10)" opacity="0.100000001" points="285 336.620719 341.999867 378.999141 300.90694 243.917922"></polygon>
                        <polygon id="Fill-3" fill="url(#linearGradient-10)" opacity="0.100000001" points="342.000133 378.99967 399 336.621249 383.09306 243.918451"></polygon>
                    </g>
                </g>
            </g>
        </g>
    </g>
</svg>