<?xml version="1.0" standalone="no"?><!DOCTYPE svg PUBLIC "-//W3C//DTD SVG 1.1//EN" "http://www.w3.org/Graphics/SVG/1.1/DTD/svg11.dtd"><svg t="1554602199055" class="icon" style="" viewBox="0 0 1024 1024" version="1.1" xmlns="http://www.w3.org/2000/svg" p-id="32292" xmlns:xlink="http://www.w3.org/1999/xlink" width="200" height="200"><defs><style type="text/css"></style></defs><path d="M662.970514 567.689123v389.523921c0 44.49131 22.295645 66.786956 66.786955 66.786956 37.092755 0 57.488772-22.295645 61.188049-66.786956V77.884788c-3.699277-48.190588-24.195274-74.185511-61.188049-77.884788C685.166178 3.699277 662.970514 29.6942 662.970514 77.884788v384.024995H128.674868V77.884788C124.975591 29.6942 104.479594 3.699277 67.486819 0 26.594806 3.699277 6.198789 29.6942 6.198789 77.884788v879.328256c0 44.49131 20.296036 66.786956 61.18805 66.786956 37.092755 0 57.488772-22.295645 61.188049-66.786956V567.689123H662.970514z m0 0" p-id="32293"></path></svg>