<?xml version="1.0" encoding="UTF-8"?>
<svg width="22px" height="23px" viewBox="0 0 22 23" version="1.1" xmlns="http://www.w3.org/2000/svg" xmlns:xlink="http://www.w3.org/1999/xlink">
    <!-- Generator: Sketch 51 (57462) - http://www.bohemiancoding.com/sketch -->
    <title>icon发现-A@2x</title>
    <desc>Created with Sketch.</desc>
    <defs></defs>
    <g id="主模块" stroke="none" stroke-width="1" fill="none" fill-rule="evenodd">
        <g id="理财" transform="translate(-223.000000, -1301.000000)">
            <rect fill="#F5F5F5" x="0" y="0" width="375" height="1341"></rect>
            <g id="底部栏" transform="translate(0.000000, 1292.000000)" fill="#8E8E93">
                <g id="icon发现-A" transform="translate(223.000000, 9.800000)">
                    <g>
                        <path d="M11,0 C4.9335,0 0,4.83483 0,10.78 C0,16.72517 4.9335,21.56 11,21.56 C17.0665,21.56 22,16.72517 22,10.78 C22,4.83483 17.0665,0 11,0 M11,1.96 C15.962375,1.96 20,5.9168725 20,10.78 C20,15.6431275 15.962375,19.6 11,19.6 C6.037625,19.6 2,15.6431275 2,10.78 C2,5.9168725 6.037625,1.96 11,1.96" id="Fill-1"></path>
                        <path d="M16,5.88 L8.505,7.66948 C8.169,7.74984 7.908,8.00562 7.826,8.3349 L6,15.68 L13.495,13.89052 C13.83,13.81016 14.092,13.5534 14.174,13.2251 L16,5.88 Z M13.278,8.54756 L12.386,12.13828 L8.722,13.01244 L9.614,9.42172 L13.278,8.54756 Z" id="Fill-3"></path>
                        <path d="M11,9.965522 C10.787,9.965522 10.575,10.044902 10.412,10.203662 C10.088,10.522162 10.088,11.037642 10.412,11.356142 C10.575,11.514902 10.787,11.594282 11,11.594282 C11.213,11.594282 11.425,11.514902 11.588,11.356142 C11.912,11.037642 11.912,10.522162 11.588,10.203662 C11.425,10.044902 11.213,9.965522 11,9.965522" id="Fill-5"></path>
                    </g>
                </g>
            </g>
        </g>
    </g>
</svg>