<?xml version="1.0" standalone="no"?><!DOCTYPE svg PUBLIC "-//W3C//DTD SVG 1.1//EN" "http://www.w3.org/Graphics/SVG/1.1/DTD/svg11.dtd"><svg t="1553923051738" class="icon" style="" viewBox="0 0 1024 1024" version="1.1" xmlns="http://www.w3.org/2000/svg" p-id="34613" xmlns:xlink="http://www.w3.org/1999/xlink" width="200" height="200"><defs><style type="text/css"></style></defs><path d="M513.3 1022.1c-68.8 0-135.6-13.5-198.4-40.1-60.7-25.7-115.2-62.4-162-109.2-46.8-46.8-83.6-101.3-109.2-162C17.1 647.9 3.6 581.2 3.6 512.4c0-68.8 13.5-135.6 40.1-198.4 25.7-60.7 62.4-115.2 109.2-162 46.8-46.8 101.3-83.6 162-109.2C377.8 16.1 444.5 2.6 513.3 2.6c68.8 0 135.6 13.5 198.4 40.1 60.7 25.7 115.2 62.4 162 109.2 46.8 46.8 83.6 101.3 109.2 162 26.6 62.9 40.1 129.6 40.1 198.4 0 68.8-13.5 135.6-40.1 198.4-25.7 60.7-62.4 115.2-109.2 162s-101.3 83.6-162 109.2c-62.8 26.7-129.6 40.2-198.4 40.2z m0-979.5c-259 0-469.7 210.7-469.7 469.7S254.3 982 513.3 982 983 771.3 983 512.3 772.3 42.6 513.3 42.6z" fill="#2B81Ee" p-id="34614"></path><path d="M416.2 513.4l-37.8-116.5-56.8 275.3 0.6 0.5h2zM336.2 683.2l178.9 134.9-43.8-134.9zM515.6 341.3l-1.4-2.4 4.1-2.3 1.7-2.9 1.7 0.9 1.6-0.9 1.7 2.9 4.1 2.3-1.4 2.4 83.4 144.4 29-102.2-118-176.3-135.3 178.2L424 500zM570.1 672.7H707l-91.9-159zM336.4 672.7h131.5l-47.3-145.9zM715.8 667.1l4.8-3.9-73-264.1-28.5 100.5zM521.7 801.3l33.5-118.1h-71.8z" fill="#2B81Ee" p-id="34615"></path><path d="M428.3 513.4L480 672.7h78.1l49-172.9-85.4-148zM528.8 818.6l167.1-135.4H567.1z" fill="#2B81Ee" p-id="34616"></path></svg>