<?xml version="1.0" encoding="UTF-8"?>
<svg width="18px" height="17px" viewBox="0 0 18 17" version="1.1" xmlns="http://www.w3.org/2000/svg" xmlns:xlink="http://www.w3.org/1999/xlink">
    <!-- Generator: Sketch 51 (57462) - http://www.bohemiancoding.com/sketch -->
    <title>icon_takephoto@2x</title>
    <desc>Created with Sketch.</desc>
    <defs></defs>
    <g id="主模块" stroke="none" stroke-width="1" fill="none" fill-rule="evenodd">
        <g id="钱包" transform="translate(-337.000000, -41.000000)">
            <rect fill="#F5F5F5" x="0" y="0" width="375" height="788"></rect>
            <g id="Part-1" fill="#FFFFFF">
                <g id="导航栏" transform="translate(15.000000, 37.000000)">
                    <path d="M327,4 C327.552285,4 328,4.44771525 328,5 C328,5.55228475 327.552285,6 327,6 L324.502,6 C324.225,6 324,6.225 324,6.502 L324,9 C324,9.55228475 323.552285,10 323,10 C322.447715,10 322,9.55228475 322,9 L322,5 C322,4.448 322.448,4 323,4 L327,4 Z M335,4 L339,4 C339.553,4 340,4.448 340,5 L340,9 C340,9.55228475 339.552285,10 339,10 C338.447715,10 338,9.55228475 338,9 L338,6.502 C338,6.225 337.775,6 337.498,6 L335,6 C334.447715,6 334,5.55228475 334,5 C334,4.44771525 334.447715,4 335,4 Z M327,21 L323,21 C322.448,21 322,20.553 322,20 L322,16 C322,15.4477153 322.447715,15 323,15 C323.552285,15 324,15.4477153 324,16 L324,18.498 C324,18.775 324.225,19 324.502,19 L327,19 C327.552285,19 328,19.4477153 328,20 C328,20.5522847 327.552285,21 327,21 Z M335,21 C334.447715,21 334,20.5522847 334,20 C334,19.4477153 334.447715,19 335,19 L337.498,19 C337.775,19 338,18.775 338,18.498 L338,16 C338,15.4477153 338.447715,15 339,15 C339.552285,15 340,15.4477153 340,16 L340,20 C340,20.553 339.553,21 339,21 L335,21 Z M327,14 C326.448,14 326,13.552 326,13 C326,12.448 326.448,12 327,12 L335,12 C335.553,12 336,12.448 336,13 C336,13.552 335.553,14 335,14 L327,14 Z" id="icon_takephoto"></path>
                </g>
            </g>
        </g>
    </g>
</svg>