<?xml version="1.0" standalone="no"?><!DOCTYPE svg PUBLIC "-//W3C//DTD SVG 1.1//EN" "http://www.w3.org/Graphics/SVG/1.1/DTD/svg11.dtd"><svg t="1554602006127" class="icon" style="" viewBox="0 0 1308 1024" version="1.1" xmlns="http://www.w3.org/2000/svg" p-id="20793" xmlns:xlink="http://www.w3.org/1999/xlink" width="255.46875" height="200"><defs><style type="text/css"></style></defs><path d="M1147.034443 256.001563c-69.815085 0-126.493904 57.40257-126.493904 127.997656 0 16.865021 3.252504 32.89129 9.033761 47.588808l-198.775243 80.415098L697.556394 242.387796c41.503801-20.781275 69.995085-64.272578 69.995086-114.39014C767.55148 57.40257 710.871411 0 641.057575 0c-69.815085 0-126.495154 57.40257-126.495154 127.997656 0 50.117561 28.432535 93.608864 69.995086 114.39014L451.316094 512.003125 252.477101 431.588027a128.395157 128.395157 0 0 0 9.097511-47.588808c0-70.595086-56.680069-127.997656-126.495154-127.997656-69.813835 0-126.493904 57.40257-126.493905 127.997656 0 70.776336 56.680069 128.002656 126.493905 128.002656 7.110009 0 14.213767-0.483751 21.083776-1.806252l67.402582 405.079244c6.382508 64.033828 63.247577 108.725133 120.171397 108.725133h588.315718c63.247577 0 113.725139-44.692555 126.493904-108.725133l67.402582-405.079244c6.870008 1.323752 13.975017 1.806252 21.083776 1.806252 69.815085 0 126.493904-57.28507 126.493905-128.002656 0.00125-70.595086-56.678819-127.997656-126.492655-127.997656z" p-id="20794"></path></svg>