<?xml version="1.0" encoding="UTF-8"?>
<svg width="19px" height="21px" viewBox="0 0 19 21" version="1.1" xmlns="http://www.w3.org/2000/svg" xmlns:xlink="http://www.w3.org/1999/xlink">
    <!-- Generator: Sketch 51 (57462) - http://www.bohemiancoding.com/sketch -->
    <title>icon我的-A@2x</title>
    <desc>Created with Sketch.</desc>
    <defs>
        <polygon id="path-1" points="0 0 18.9995556 0 18.9995556 6 0 6"></polygon>
        <linearGradient x1="-1.11022302e-14%" y1="1.72254642e-14%" x2="100%" y2="100%" id="linearGradient-3">
            <stop stop-color="#3F82DD" offset="0%"></stop>
            <stop stop-color="#3A52E2" offset="100%"></stop>
        </linearGradient>
    </defs>
    <g id="主模块" stroke="none" stroke-width="1" fill="none" fill-rule="evenodd">
        <g id="钱包" transform="translate(-319.000000, -749.000000)">
            <rect fill="#F5F5F5" x="0" y="0" width="375" height="788"></rect>
            <g id="底部栏我的" transform="translate(0.000000, 739.000000)">
                <g id="底部栏">
                    <rect id="bg" fill="#FFFFFF" fill-rule="nonzero" x="0" y="0.98" width="375" height="48.02"></rect>
                    <rect id="line" fill="#EBEDF3" fill-rule="nonzero" x="0" y="0" width="375" height="1"></rect>
                    <g id="icon钱包-B" transform="translate(37.000000, 10.780000)">
                        <g stroke-width="1" fill-rule="evenodd">
                            <g id="Group-10">
                                <mask id="mask-2" fill="white">
                                    <use xlink:href="#path-1"></use>
                                </mask>
                                <g id="Clip-9"></g>
                                <path d="M18.444,0 L3.33288889,0 C1.49288889,0 -0.000444444444,1.343 -0.000444444444,3 C-0.000444444444,4.657 1.49288889,6 3.33288889,6 L18.444,6 C18.7506667,6 18.9995556,5.776 18.9995556,5.5 L18.9995556,0.5 C18.9995556,0.224 18.7506667,0 18.444,0 M16.7773333,2 L16.7773333,4 L3.33288889,4 C2.72066667,4 2.22177778,3.551 2.22177778,3 C2.22177778,2.449 2.72066667,2 3.33288889,2 L16.7773333,2" id="Fill-8" fill="url(#linearGradient-3)" mask="url(#mask-2)"></path>
                            </g>
                            <path d="M19.2752222,4 L0.725222222,4 C0.324111111,4 -0.000333333333,4.33371429 -0.000333333333,4.74514286 L-0.000333333333,16.5714286 C-0.000333333333,18.4651429 1.493,20 3.333,20 L16.6663333,20 C18.5085556,20 19.9996667,18.4651429 19.9996667,16.5714286 L19.9996667,4.74514286 C19.9996667,4.33371429 19.6752222,4 19.2752222,4" id="Fill-1" fill="url(#linearGradient-3)"></path>
                            <path d="M12,12.5 C12,11.6705 12.6705,11 13.5,11 C14.3295,11 15,11.6705 15,12.5 C15,13.3295 14.3295,14 13.5,14 C12.6705,14 12,13.3295 12,12.5 Z M13.5714286,10 C12.152,10 11,11.12 11,12.5 C11,13.88 12.152,15 13.5714286,15 L19,15 C19,14 19,11 19,10 L13.5714286,10 Z" id="Fill-11" fill="#FFFFFF"></path>
                        </g>
                        <text id="钱包" font-family="PingFangSC-Regular, PingFang SC" font-size="10" font-weight="normal" fill="#3F82DD">
                            <tspan x="0" y="34">钱包</tspan>
                        </text>
                    </g>
                    <g id="icon理财-A" transform="translate(130.000000, 9.800000)">
                        <g stroke-width="1" fill-rule="evenodd" fill="#8E8E93">
                            <path d="M11,0 C4.9335,0 0,4.80016216 0,10.7027027 C0,16.6052432 4.9335,21.4054054 11,21.4054054 C17.0665,21.4054054 22,16.6052432 22,10.7027027 C22,4.80016216 17.0665,0 11,0 M11,1.94594595 C15.962375,1.94594595 20,5.87444595 20,10.7027027 C20,15.5309595 15.962375,19.4594595 11,19.4594595 C6.037625,19.4594595 2,15.5309595 2,10.7027027 C2,5.87444595 6.037625,1.94594595 11,1.94594595" id="Fill-1"></path>
                            <path d="M11,6.51911351 C10.744,6.51911351 10.488,6.61446486 10.293,6.80419459 L6.993,10.0150054 C6.603,10.3944649 6.603,11.0103568 6.993,11.3907892 L10.293,14.6016 C10.488,14.7913297 10.744,14.8866811 11,14.8866811 C11.256,14.8866811 11.512,14.7913297 11.707,14.6016 L15.007,11.3907892 C15.397,11.0103568 15.397,10.3944649 15.007,10.0150054 L11.707,6.80419459 C11.512,6.61446486 11.256,6.51911351 11,6.51911351 M11,8.86787027 L12.886,10.7028973 L11,12.5379243 L9.114,10.7028973 L11,8.86787027" id="Fill-3"></path>
                        </g>
                        <text id="理财" font-family="PingFangSC-Regular, PingFang SC" font-size="10" font-weight="normal" fill="#999999">
                            <tspan x="1" y="35.1351351">理财</tspan>
                        </text>
                    </g>
                    <g id="icon发现-A" transform="translate(223.000000, 9.800000)">
                        <g stroke-width="1" fill-rule="evenodd" fill="#8E8E93">
                            <path d="M11,0 C4.9335,0 0,4.80016216 0,10.7027027 C0,16.6052432 4.9335,21.4054054 11,21.4054054 C17.0665,21.4054054 22,16.6052432 22,10.7027027 C22,4.80016216 17.0665,0 11,0 M11,1.94594595 C15.962375,1.94594595 20,5.87444595 20,10.7027027 C20,15.5309595 15.962375,19.4594595 11,19.4594595 C6.037625,19.4594595 2,15.5309595 2,10.7027027 C2,5.87444595 6.037625,1.94594595 11,1.94594595" id="Fill-1"></path>
                            <path d="M16,5.83783784 L8.505,7.61448649 C8.169,7.69427027 7.908,7.94821622 7.826,8.27513514 L6,15.5675676 L13.495,13.7909189 C13.83,13.7111351 14.092,13.4562162 14.174,13.1302703 L16,5.83783784 Z M13.278,8.48627027 L12.386,12.0512432 L8.722,12.9191351 L9.614,9.35416216 L13.278,8.48627027 Z" id="Fill-3"></path>
                            <path d="M11,9.89406486 C10.787,9.89406486 10.575,9.97287568 10.412,10.1304973 C10.088,10.4467135 10.088,10.9584973 10.412,11.2747135 C10.575,11.4323351 10.787,11.5111459 11,11.5111459 C11.213,11.5111459 11.425,11.4323351 11.588,11.2747135 C11.912,10.9584973 11.912,10.4467135 11.588,10.1304973 C11.425,9.97287568 11.213,9.89406486 11,9.89406486" id="Fill-5"></path>
                        </g>
                        <text id="发现" font-family="PingFangSC-Regular, PingFang SC" font-size="10" font-weight="normal" fill="#999999">
                            <tspan x="1" y="35.1351351">发现</tspan>
                        </text>
                    </g>
                    <g id="icon我的-A" transform="translate(319.000000, 10.780000)">
                        <path d="M6.4714003,11.6809355 C6.40540953,11.6340666 6.33905864,11.5840409 6.27264876,11.5307094 C5.8033215,11.1538081 5.43388482,10.6786227 5.20573267,10.1056833 C4.6451927,9.84392673 4.38346205,9.17340443 4.30867163,8.4042645 C4.30532735,8.36978764 4.25683746,8.01401752 4.26816357,8.09945429 C4.24802266,7.94762591 4.23385336,7.81951661 4.22445018,7.68976886 C4.19710739,7.31248498 4.21374384,7.00059871 4.31689755,6.70168262 C4.36765093,6.55461083 4.43906153,6.42059765 4.5278976,6.30362119 C4.39483929,5.30991268 4.39264618,5.12499584 4.46296773,4.77550723 C4.4733941,4.68764668 4.47641968,4.63051533 4.48039287,4.48272257 C4.48887644,4.16715565 4.50795777,4.0067753 4.60713656,3.76323348 C4.69170331,3.55557273 4.81098724,3.37903833 4.96308219,3.21806717 C4.94900526,3.14684757 4.94040205,3.09068715 4.93281453,3.02079157 C4.90073077,2.7252385 4.9264778,2.46613087 5.06666169,2.25370866 C5.39496027,1.63819491 5.87489244,1.51756849 6.73625596,1.47596439 C6.87457362,1.4692836 6.97243264,1.46733086 7.20094793,1.46481058 C7.28448047,1.4638893 7.33609815,1.46310399 7.3739497,1.46202641 C7.99209875,1.22972062 8.66836367,1.08764595 9.44393898,1.04912256 C12.3494691,1.16234682 14.1076026,2.64731612 14.3490571,4.79404524 C14.3862592,5.16681973 14.352,5.69152203 14.259838,6.32475436 C14.3413751,6.43660356 14.4073488,6.56329422 14.4550765,6.70152257 C14.558239,7.00029991 14.5749637,7.31192978 14.5478232,7.68923323 C14.5383445,7.82100423 14.5239751,7.95097072 14.5032027,8.10795553 C14.4892157,8.21152724 14.4892157,8.21152724 14.4777264,8.29530203 C14.4705346,8.34858228 14.4664446,8.38189175 14.4643055,8.4044995 C14.4284201,8.77354319 14.3430927,9.12481355 14.174742,9.43226814 C14.0338365,9.68960037 13.8380938,9.89892738 13.6028683,10.0367331 C13.4140355,10.5879452 13.1164672,11.0538767 12.7371848,11.4329313 C12.6753511,11.4947279 12.6133185,11.5526187 12.5514148,11.606775 C12.7608357,11.7056699 13.0047193,11.8109385 13.2834283,11.9208496 C13.7399406,12.0894379 14.4268332,12.3331926 14.4702477,12.3494862 C14.4978689,12.3598928 14.4978689,12.3598928 14.5256069,12.3705171 C14.7326369,12.4501582 14.8971325,12.5222801 15.5188226,12.8035299 C16.3602325,13.1893642 16.9791851,13.8280202 17.4006883,14.6283286 C17.8113206,15.4079963 17.9706539,16.1685881 17.9987076,16.7198361 L18,16.7706615 C18,17.6943778 17.2341737,18.4110953 16.316,18.4110953 L2.684,18.4110953 C1.76582625,18.4110953 1,17.6943778 1.00133435,16.7190193 C1.03050998,16.1548158 1.20291344,15.3783771 1.64924405,14.5851955 C2.08463489,13.8114551 2.71430431,13.1905923 3.56254794,12.8015385 C4.10222727,12.557195 4.33838085,12.4585475 4.58537864,12.3739538 C4.61323836,12.3644605 4.61323836,12.3644605 4.64055123,12.3553189 C4.66783648,12.3462213 4.93155429,12.2608287 5.03838959,12.2248813 C5.24144388,12.1565585 5.47920886,12.072308 5.79278286,11.9562979 C6.05133099,11.8608832 6.27680729,11.7687809 6.4714003,11.6809355 Z M4.26816357,8.09945429 C4.26857033,8.10252258 4.26905423,8.10615992 4.26962014,8.11040161 C4.26919207,8.10719305 4.26876667,8.10399558 4.26834393,8.10080896 Z" stroke="#8E8E93" stroke-width="2" stroke-linecap="round" stroke-linejoin="round"></path>
                        <text id="我的" font-family="PingFangSC-Regular, PingFang SC" font-size="10" font-weight="normal" fill="#8E8E93">
                            <tspan x="0" y="33.1891892">我的</tspan>
                        </text>
                    </g>
                </g>
            </g>
            <g id="底部栏" transform="translate(0.000000, 739.000000)">
                <rect id="bg" fill="#FFFFFF" fill-rule="nonzero" x="0" y="0.98" width="375" height="48.02"></rect>
                <g id="icon我的-A" transform="translate(319.000000, 10.780000)">
                    <path d="M6.4714003,11.6809355 C6.40540953,11.6340666 6.33905864,11.5840409 6.27264876,11.5307094 C5.8033215,11.1538081 5.43388482,10.6786227 5.20573267,10.1056833 C4.6451927,9.84392673 4.38346205,9.17340443 4.30867163,8.4042645 C4.30532735,8.36978764 4.25683746,8.01401752 4.26816357,8.09945429 C4.24802266,7.94762591 4.23385336,7.81951661 4.22445018,7.68976886 C4.19710739,7.31248498 4.21374384,7.00059871 4.31689755,6.70168262 C4.36765093,6.55461083 4.43906153,6.42059765 4.5278976,6.30362119 C4.39483929,5.30991268 4.39264618,5.12499584 4.46296773,4.77550723 C4.4733941,4.68764668 4.47641968,4.63051533 4.48039287,4.48272257 C4.48887644,4.16715565 4.50795777,4.0067753 4.60713656,3.76323348 C4.69170331,3.55557273 4.81098724,3.37903833 4.96308219,3.21806717 C4.94900526,3.14684757 4.94040205,3.09068715 4.93281453,3.02079157 C4.90073077,2.7252385 4.9264778,2.46613087 5.06666169,2.25370866 C5.39496027,1.63819491 5.87489244,1.51756849 6.73625596,1.47596439 C6.87457362,1.4692836 6.97243264,1.46733086 7.20094793,1.46481058 C7.28448047,1.4638893 7.33609815,1.46310399 7.3739497,1.46202641 C7.99209875,1.22972062 8.66836367,1.08764595 9.44393898,1.04912256 C12.3494691,1.16234682 14.1076026,2.64731612 14.3490571,4.79404524 C14.3862592,5.16681973 14.352,5.69152203 14.259838,6.32475436 C14.3413751,6.43660356 14.4073488,6.56329422 14.4550765,6.70152257 C14.558239,7.00029991 14.5749637,7.31192978 14.5478232,7.68923323 C14.5383445,7.82100423 14.5239751,7.95097072 14.5032027,8.10795553 C14.4892157,8.21152724 14.4892157,8.21152724 14.4777264,8.29530203 C14.4705346,8.34858228 14.4664446,8.38189175 14.4643055,8.4044995 C14.4284201,8.77354319 14.3430927,9.12481355 14.174742,9.43226814 C14.0338365,9.68960037 13.8380938,9.89892738 13.6028683,10.0367331 C13.4140355,10.5879452 13.1164672,11.0538767 12.7371848,11.4329313 C12.6753511,11.4947279 12.6133185,11.5526187 12.5514148,11.606775 C12.7608357,11.7056699 13.0047193,11.8109385 13.2834283,11.9208496 C13.7399406,12.0894379 14.4268332,12.3331926 14.4702477,12.3494862 C14.4978689,12.3598928 14.4978689,12.3598928 14.5256069,12.3705171 C14.7326369,12.4501582 14.8971325,12.5222801 15.5188226,12.8035299 C16.3602325,13.1893642 16.9791851,13.8280202 17.4006883,14.6283286 C17.8113206,15.4079963 17.9706539,16.1685881 17.9987076,16.7198361 L18,16.7706615 C18,17.6943778 17.2341737,18.4110953 16.316,18.4110953 L2.684,18.4110953 C1.76582625,18.4110953 1,17.6943778 1.00133435,16.7190193 C1.03050998,16.1548158 1.20291344,15.3783771 1.64924405,14.5851955 C2.08463489,13.8114551 2.71430431,13.1905923 3.56254794,12.8015385 C4.10222727,12.557195 4.33838085,12.4585475 4.58537864,12.3739538 C4.61323836,12.3644605 4.61323836,12.3644605 4.64055123,12.3553189 C4.66783648,12.3462213 4.93155429,12.2608287 5.03838959,12.2248813 C5.24144388,12.1565585 5.47920886,12.072308 5.79278286,11.9562979 C6.05133099,11.8608832 6.27680729,11.7687809 6.4714003,11.6809355 Z M4.26816357,8.09945429 C4.26857033,8.10252258 4.26905423,8.10615992 4.26962014,8.11040161 C4.26919207,8.10719305 4.26876667,8.10399558 4.26834393,8.10080896 Z" stroke="#8E8E93" stroke-width="2" stroke-linecap="round" stroke-linejoin="round"></path>
                    <text id="我的" font-family="PingFangSC-Regular, PingFang SC" font-size="10" font-weight="normal" fill="#8E8E93">
                        <tspan x="0" y="33.1891892">我的</tspan>
                    </text>
                </g>
                <g id="icon我的-B" transform="translate(319.000000, 10.780000)" stroke="#8E8E93" stroke-linecap="round" stroke-linejoin="round" stroke-width="2">
                    <path d="M6.48207266,11.7670089 C6.41165647,11.7170589 6.34081354,11.6634997 6.2699112,11.6061492 C5.80076507,11.2266723 5.43180407,10.7484949 5.20426796,10.1722493 C4.6438108,9.90965545 4.38323117,9.23656873 4.30860533,8.46357878 C4.30523279,8.42855942 4.25668021,8.06974991 4.26801728,8.15589345 C4.24792553,8.003329 4.23378977,7.87458696 4.22441295,7.74426842 C4.19719416,7.36598314 4.21374232,7.05351145 4.31617801,6.75453223 C4.36705034,6.60605109 4.43891832,6.47073463 4.52850388,6.35271747 C4.39508859,5.34962281 4.39270031,5.16305469 4.46286918,4.81168147 C4.47336019,4.72263779 4.47640354,4.6647557 4.48038771,4.51548444 C4.48882912,4.19921772 4.50776584,4.03890337 4.60619384,3.79545957 C4.69088964,3.58597989 4.8108684,3.40780505 4.96412707,3.24518889 C4.94934656,3.17065174 4.94049617,3.11310548 4.93273179,3.04106404 C4.90093611,2.74604932 4.9263983,2.48795747 5.06526215,2.27601773 C5.39262973,1.65781668 5.87482707,1.53574564 6.73590835,1.49385479 C6.87434628,1.48711991 6.97226163,1.48515193 7.20086829,1.48261243 C7.28355268,1.48169392 7.33493842,1.48090977 7.37263106,1.47984231 C7.99104824,1.24586815 8.66770077,1.10275319 9.44421978,1.06392729 C12.3510586,1.17802064 14.1082349,2.67290038 14.3491272,4.83009121 C14.3863003,5.2052651 14.35179,5.73463969 14.2591956,6.37381039 C14.3414819,6.4867234 14.4079244,6.61472451 14.4557967,6.75437296 C14.5582414,7.05321421 14.5748774,7.3654302 14.5478599,7.74373656 C14.5384049,7.87612782 14.5240635,8.00677731 14.5033246,8.164641 C14.4893488,8.26887721 14.4893488,8.26887721 14.4778531,8.35330426 C14.470638,8.40714311 14.4665297,8.44084382 14.4643722,8.46381214 C14.4286397,8.8339359 14.3436988,9.18614113 14.1761912,9.49426541 C14.0356219,9.75283744 13.8399356,9.96343464 13.6044742,10.1021431 C13.4161815,10.657024 13.1189473,11.1261145 12.7397253,11.507846 C12.6741127,11.5738928 12.6082654,11.6355143 12.5425769,11.6929156 C12.7544379,11.7940535 13.0019965,11.9018742 13.2856271,12.0145345 C13.7420977,12.184325 14.4290059,12.4298457 14.4724691,12.4462754 C14.5001069,12.4567634 14.5001069,12.4567634 14.5278626,12.4674713 C14.7349979,12.5477283 14.8995192,12.6203825 15.5213053,12.9037073 C16.3628055,13.2923699 16.9811539,13.9350106 17.4020643,14.7399651 C17.8118009,15.5235508 17.9707607,16.2878398 17.998726,16.8413211 L18,16.8917829 C18,17.8163551 17.2356662,18.5368421 16.316,18.5368421 L2.684,18.5368421 C1.76433377,18.5368421 1,17.8163551 1.00131532,16.84051 C1.03039636,16.2740742 1.2023808,15.4939286 1.64774273,14.6967524 C2.08256289,13.9184454 2.71171109,13.2936162 3.56008042,12.9016945 C4.0998686,12.6555367 4.33611729,12.5561368 4.58328662,12.470873 C4.6111672,12.4613039 4.6111672,12.4613039 4.63849759,12.4520903 C4.66581322,12.4429169 4.92952214,12.3569105 5.03632289,12.3207151 C5.2393293,12.2519151 5.47704977,12.167072 5.79058499,12.0502386 C6.05487757,11.9519994 6.28459216,11.8572512 6.48207266,11.7670089 Z M4.26801728,8.15589345 C4.26842944,8.15902517 4.26892075,8.16274498 4.26949626,8.1670898 C4.26906273,8.16381685 4.26863195,8.1605554 4.2682039,8.15730519 Z" id="icon我的-A"></path>
                </g>
            </g>
        </g>
    </g>
</svg>