<?xml version="1.0" encoding="UTF-8"?>
<svg width="64px" height="64px" viewBox="0 0 64 64" version="1.1" xmlns="http://www.w3.org/2000/svg" xmlns:xlink="http://www.w3.org/1999/xlink">
    <!-- Generator: Sketch 51 (57462) - http://www.bohemiancoding.com/sketch -->
    <title>更多@2x</title>
    <desc>Created with Sketch.</desc>
    <defs>
        <linearGradient x1="50%" y1="0%" x2="50%" y2="100%" id="linearGradient-1">
            <stop stop-color="#FFE262" offset="0%"></stop>
            <stop stop-color="#FEC133" offset="100%"></stop>
        </linearGradient>
        <filter x="-37.5%" y="-37.5%" width="175.0%" height="175.0%" filterUnits="objectBoundingBox" id="filter-2">
            <feGaussianBlur stdDeviation="5" in="SourceGraphic"></feGaussianBlur>
        </filter>
    </defs>
    <g id="主模块" stroke="none" stroke-width="1" fill="none" fill-rule="evenodd">
        <g id="钱包" transform="translate(-283.000000, -267.000000)">
            <rect fill="#F5F5F5" x="0" y="0" width="375" height="788"></rect>
            <g id="Part-1">
                <g id="4Tab" transform="translate(15.000000, 264.000000)">
                    <g id="更多" transform="translate(280.000000, 15.000000)">
                        <circle id="Oval-2-Copy-3" fill="url(#linearGradient-1)" fill-rule="nonzero" cx="20" cy="20" r="20"></circle>
                        <circle id="Oval-2-Copy-3" fill="url(#linearGradient-1)" fill-rule="nonzero" filter="url(#filter-2)" cx="20" cy="20" r="20"></circle>
                        <g id="4" transform="translate(12.000000, 12.000000)" fill="#FFFFFF">
                            <path d="M15.5247164,2.19954664 C15.8400362,2.36491438 15.9591571,2.75450956 15.7933222,3.06842798 L13.7925594,6.8606746 C13.6271917,7.17459302 13.2375965,7.29511527 12.9236781,7.12787897 L9.13003003,5.12711619 C8.81611161,4.96034702 8.69558936,4.57215327 8.8609571,4.25823485 L10.8631213,0.465988229 C11.0303576,0.15206981 11.4185514,0.0329489816 11.7324698,0.19831672 L15.5247164,2.19954664 Z" id="Fill-1"></path>
                            <path d="M7.3423962,0.877073684 L7.3423962,6.42225838 C7.3423962,6.8816424 6.96969883,7.25433977 6.51086696,7.25433977 L0.963473684,7.25433977 C0.504641813,7.2559962 0.131944444,6.88329883 0.131944444,6.42225838 L0.131944444,0.877073684 C0.131944444,0.418241813 0.504641813,0.0455444444 0.963473684,0.0455444444 L6.50921053,0.0455444444 C6.9680424,0.0455444444 7.3423962,0.418241813 7.3423962,0.877073684 M7.3423962,9.40438947 L7.3423962,14.9501263 C7.3423962,15.4089582 6.96969883,15.7816556 6.51086696,15.7816556 L0.963473684,15.7816556 C0.504641813,15.7816556 0.131944444,15.4089582 0.131944444,14.9501263 L0.131944444,9.40438947 C0.131944444,8.9455576 0.504641813,8.57286023 0.963473684,8.57286023 L6.50921053,8.57286023 C6.9680424,8.5712038 7.3423962,8.94390117 7.3423962,9.40438947 M15.8675034,9.40438947 L15.8675034,14.9501263 C15.8675034,15.4089582 15.4953582,15.7816556 15.0365263,15.7816556 L9.48913304,15.7816556 C9.03030117,15.7816556 8.6576038,15.4089582 8.6576038,14.9501263 L8.6576038,9.40438947 C8.6576038,8.9455576 9.03030117,8.57286023 9.48913304,8.57286023 L15.0348699,8.57286023 C15.4953582,8.5712038 15.8675034,8.94390117 15.8675034,9.40438947" id="Fill-4"></path>
                        </g>
                    </g>
                </g>
            </g>
        </g>
    </g>
</svg>