<?xml version="1.0" encoding="UTF-8"?>
<svg width="64px" height="64px" viewBox="0 0 64 64" version="1.1" xmlns="http://www.w3.org/2000/svg" xmlns:xlink="http://www.w3.org/1999/xlink">
    <!-- Generator: Sketch 51 (57462) - http://www.bohemiancoding.com/sketch -->
    <title>场外OTC@2x</title>
    <desc>Created with Sketch.</desc>
    <defs>
        <linearGradient x1="50%" y1="0%" x2="50%" y2="100%" id="linearGradient-1">
            <stop stop-color="#FFCB93" offset="0%"></stop>
            <stop stop-color="#FF9C5A" offset="100%"></stop>
        </linearGradient>
        <filter x="-37.5%" y="-37.5%" width="175.0%" height="175.0%" filterUnits="objectBoundingBox" id="filter-2">
            <feGaussianBlur stdDeviation="5" in="SourceGraphic"></feGaussianBlur>
        </filter>
    </defs>
    <g id="主模块" stroke="none" stroke-width="1" fill="none" fill-rule="evenodd">
        <g id="钱包" transform="translate(-113.000000, -267.000000)">
            <rect fill="#F5F5F5" x="0" y="0" width="375" height="788"></rect>
            <g id="Part-1">
                <g id="4Tab" transform="translate(15.000000, 264.000000)">
                    <g id="场外OTC" transform="translate(110.000000, 15.000000)">
                        <circle id="Oval-2-Copy" fill="url(#linearGradient-1)" fill-rule="nonzero" filter="url(#filter-2)" cx="20" cy="20" r="20"></circle>
                        <circle id="Oval-2-Copy" fill="url(#linearGradient-1)" fill-rule="nonzero" cx="20" cy="20" r="20"></circle>
                        <path d="M21.257,16.425 C21.271,16.07 21.121,15.725 20.852,15.499 C20.521,15.259 20.12,15.141 19.715,15.168 L18.299,15.168 L18.299,18.361 C19.083,18.418 19.868,18.3 20.597,18.009 C21.034,17.758 21.257,17.236 21.257,16.425 M20.72,21.433 C19.931,21.199 19.119,21.058 18.296,21.016 L18.296,24.842 C19.132,24.876 19.967,24.779 20.77,24.548 C21.337,24.355 21.618,23.822 21.618,22.951 C21.714,22.288 21.34,21.654 20.72,21.433 M24.692,26.363 C24.195,26.763 23.614,27.043 22.994,27.185 C22.841,27.227 22.736,27.365 22.733,27.523 L22.733,28.649 C22.733,28.842 22.578,29 22.388,29 L20.467,29 C20.375,29 20.289,28.962 20.222,28.895 C20.156,28.826 20.12,28.739 20.12,28.645 L20.12,27.48 L18.599,27.48 C18.357,27.48 18.16,27.679 18.16,27.926 L18.16,28.645 C18.16,28.839 18.006,28.996 17.816,28.996 L15.897,28.996 C15.704,28.996 15.552,28.837 15.552,28.645 L15.552,27.852 C15.552,27.655 15.4,27.496 15.207,27.493 L14.351,27.493 C14.259,27.496 14.17,27.459 14.103,27.392 C14.037,27.324 14,27.236 14,27.138 L14,12.865 C14,12.771 14.037,12.678 14.103,12.612 C14.17,12.543 14.259,12.51 14.351,12.51 L15.207,12.51 C15.4,12.507 15.552,12.347 15.552,12.152 L15.552,11.355 C15.552,11.159 15.708,11.003 15.897,11.003 L17.816,11.003 C18.008,11.003 18.16,11.162 18.16,11.355 L18.16,12.152 C18.16,12.347 18.313,12.507 18.506,12.51 L20.117,12.51 L20.117,11.351 C20.117,11.157 20.271,11 20.462,11 L22.381,11 C22.571,11 22.726,11.157 22.726,11.351 L22.726,12.561 C22.726,12.721 22.832,12.857 22.985,12.9 C23.345,13.001 23.698,13.128 24.038,13.283 C25.155,13.733 25.864,14.861 25.796,16.084 C25.835,16.786 25.656,17.486 25.278,18.08 C24.99,18.512 24.602,18.863 24.149,19.11 C23.986,19.185 23.817,19.252 23.644,19.302 C23.497,19.35 23.353,19.383 23.2,19.403 C24.002,19.674 24.735,20.129 25.335,20.734 C25.821,21.407 26.054,22.232 25.988,23.062 C26.084,24.315 25.604,25.528 24.692,26.363" id="2" fill="#FFFFFF"></path>
                    </g>
                </g>
            </g>
        </g>
    </g>
</svg>