<?xml version="1.0" standalone="no"?><!DOCTYPE svg PUBLIC "-//W3C//DTD SVG 1.1//EN" "http://www.w3.org/Graphics/SVG/1.1/DTD/svg11.dtd"><svg t="1553923193973" class="icon" style="" viewBox="0 0 1024 1024" version="1.1" xmlns="http://www.w3.org/2000/svg" p-id="39851" xmlns:xlink="http://www.w3.org/1999/xlink" width="200" height="200"><defs><style type="text/css"></style></defs><path d="M512 979.98848c-251.33056 0-455.79264-204.46208-455.79264-455.79264S260.66944 68.41344 512 68.41344s455.79264 204.46208 455.79264 455.79264S763.33056 979.98848 512 979.98848z m0-866.01728c-226.2016 0-410.22464 184.02304-410.22464 410.22464S285.7984 934.42048 512 934.42048s410.22464-184.02304 410.22464-410.22464S738.2016 113.9712 512 113.9712z" fill="#2B81Ee" p-id="39852"></path><path d="M307.74272 410.90048c-65.69984 3.34848-100.21888 39.46496-103.53664 108.31872 2.64192 67.55328 36.49536 102.97344 101.55008 106.33216 67.03104-2.01728 101.53984-37.77536 103.53664-107.33568-4.6592-67.52256-38.5024-103.30112-101.55008-107.3152z m-2.97984 186.56256c-41.82016-3.33824-63.71328-29.40928-65.71008-78.24384 2.65216-48.80384 25.22112-74.87488 67.69664-78.2336 41.14432 4.00384 63.36512 30.09536 66.70336 78.2336-1.34144 50.16576-24.23808 76.2368-68.68992 78.24384zM600.43264 414.91456H428.20608c-8.3968 0-15.21664 6.73792-15.21664 15.04256s6.8096 15.04256 15.21664 15.04256h69.69344v177.54112h0.48128a16.61952 16.61952 0 0 0 16.50688 14.97088c8.704 0 15.60576-6.6048 16.50688-14.97088h0.34816V444.98944h68.68992c8.3968 0 15.21664-6.73792 15.21664-15.04256a15.13472 15.13472 0 0 0-15.21664-15.03232zM819.79392 552.448a18.46272 18.46272 0 1 0-36.27008-5.00736l-0.5632-0.13312c-7.31136 33.44384-26.56256 49.8176-57.74336 49.152-39.168-1.3312-59.0848-27.07456-59.72992-77.24032 1.98656-49.46944 22.55872-75.22304 61.71648-77.23008 25.88672 1.35168 43.45856 14.71488 52.76672 40.12032l0.19456-0.0512a18.45248 18.45248 0 0 0 17.41824 12.4416 18.5344 18.5344 0 0 0 18.11456-22.38464l0.12288-0.03072c-0.11264-0.26624-0.256-0.49152-0.36864-0.75776a18.40128 18.40128 0 0 0-3.09248-6.42048c-17.00864-35.23584-44.62592-53.38112-83.15904-54.00576-65.05472 1.9968-98.23232 38.11328-99.55328 108.31872 1.32096 69.55008 33.50528 104.99072 96.5632 106.33216 50.42176 0.65536 81.63328-22.40512 93.57312-69.2224l-0.37888-0.09216a19.2512 19.2512 0 0 0 0.38912-3.7888z" fill="#2B81Ee" p-id="39853"></path></svg>