<?xml version="1.0" standalone="no"?><!DOCTYPE svg PUBLIC "-//W3C//DTD SVG 1.1//EN" "http://www.w3.org/Graphics/SVG/1.1/DTD/svg11.dtd"><svg t="1554601726421" class="icon" style="" viewBox="0 0 1024 1024" version="1.1" xmlns="http://www.w3.org/2000/svg" p-id="3625" xmlns:xlink="http://www.w3.org/1999/xlink" width="200" height="200"><defs><style type="text/css"></style></defs><path d="M512 0c282.75712 0 512 229.24288 512 512s-229.25312 512-512 512S0 794.81856 0 512 229.21216 0 512 0" fill="#53AE94" p-id="3626"></path><path d="M575.19104 443.78112V367.616h174.17216V251.56608H275.08736V367.616H449.28v76.10368C307.712 450.22208 201.2672 478.2592 201.2672 511.8464s106.496 61.62432 248.0128 68.16768v243.968h125.952V579.9936c141.312-6.52288 247.54176-34.53952 247.54176-68.096s-106.22976-61.57312-247.54176-68.096m0 115.52768v-0.06144c-3.55328 0.22528-21.8112 1.32096-62.464 1.32096-32.50176 0-55.36768-0.9216-63.42656-1.34144v0.1024C324.27008 553.80992 230.912 532.02944 230.912 505.96864S324.28032 458.15808 449.34144 452.608v85.0432c8.192 0.5632 31.62112 1.9456 63.95904 1.9456 38.84032 0 58.368-1.61792 61.952-1.9456V452.608c124.8256 5.56032 217.96864 27.36128 217.96864 53.32992s-93.184 47.77984-217.96864 53.34016" fill="#FFFFFF" p-id="3627"></path></svg>