<?xml version="1.0" standalone="no"?>
<!DOCTYPE svg PUBLIC "-//W3C//DTD SVG 20010904//EN"
 "http://www.w3.org/TR/2001/REC-SVG-20010904/DTD/svg10.dtd">
<svg version="1.0" xmlns="http://www.w3.org/2000/svg"
 width="64.000000pt" height="64.000000pt" viewBox="0 0 64.000000 64.000000"
 preserveAspectRatio="xMidYMid meet">

<g transform="translate(0.000000,64.000000) scale(0.100000,-0.100000)"
fill="#000000" stroke="none">
<path d="M1 540 c1 -66 5 -100 13 -100 8 0 8 -2 -1 -8 -16 -10 -16 -214 0
-224 9 -6 9 -8 1 -8 -8 0 -12 -34 -13 -100 l-2 -99 321 0 321 0 -2 99 c-1 66
-5 100 -13 100 -8 0 -8 2 1 8 7 5 11 43 11 112 0 69 -4 107 -11 112 -9 6 -9 8
-1 8 8 0 12 34 13 100 l2 99 -321 0 -321 0 2 -99z m97 23 c-2 -9 -11 -17 -21
-19 -18 -2 -18 -2 -1 17 21 23 26 24 22 2z m466 -2 c17 -19 17 -19 -1 -17 -10
2 -19 10 -21 19 -4 22 1 21 22 -2z m-527 -87 c-3 -3 -12 -4 -19 -1 -8 3 -5 6
6 6 11 1 17 -2 13 -5z m431 -31 l-3 -38 -52 -3 c-45 -3 -53 -6 -53 -23 0 -13
7 -19 23 -20 l22 -2 -22 -4 c-16 -3 -23 -11 -23 -29 0 -21 -4 -24 -40 -24 -36
0 -40 3 -40 25 0 19 -6 25 -22 26 l-23 2 23 4 c13 3 22 12 22 23 0 16 -9 19
-52 22 l-53 3 -3 38 -3 37 151 0 151 0 -3 -37z m159 31 c-3 -3 -12 -4 -19 -1
-8 3 -5 6 6 6 11 1 17 -2 13 -5z m-420 -130 c-3 -3 -12 -4 -19 -1 -8 3 -5 6 6
6 11 1 17 -2 13 -5z m250 0 c-3 -3 -12 -4 -19 -1 -8 3 -5 6 6 6 11 1 17 -2 13
-5z m-297 -14 c-46 -29 113 -55 237 -40 81 11 109 24 83 40 -17 11 -9 13 14 4
9 -3 16 -12 16 -19 0 -15 -41 -30 -107 -40 l-43 -7 0 -74 0 -74 -40 0 -40 0 0
74 0 74 -42 7 c-67 10 -108 25 -108 40 0 13 14 23 35 24 6 0 3 -4 -5 -9z
m-123 -166 c-3 -3 -12 -4 -19 -1 -8 3 -5 6 6 6 11 1 17 -2 13 -5z m590 0 c-3
-3 -12 -4 -19 -1 -8 3 -5 6 6 6 11 1 17 -2 13 -5z m-529 -87 c4 -22 -1 -21
-22 2 -17 19 -17 19 1 17 10 -2 19 -10 21 -19z m465 1 c-18 -20 -29 -17 -20 5
3 7 12 14 21 14 15 0 14 -2 -1 -19z"/>
</g>
</svg>
