<?xml version="1.0" standalone="no"?><!DOCTYPE svg PUBLIC "-//W3C//DTD SVG 1.1//EN" "http://www.w3.org/Graphics/SVG/1.1/DTD/svg11.dtd"><svg t="1553922554377" class="icon" style="" viewBox="0 0 1024 1024" version="1.1" xmlns="http://www.w3.org/2000/svg" p-id="7295" xmlns:xlink="http://www.w3.org/1999/xlink" width="200" height="200"><defs><style type="text/css"></style></defs><path d="M894.7 253.7h-176V150.4c0-38-30.9-68.9-68.9-68.9H374.2c-38 0-68.9 30.9-68.9 68.9v103.3h-176c-35.9 0-65.1 30.9-65.1 68.9v551c0 38 29.2 68.9 65.1 68.9h765.3c35.9 0 65.1-30.9 65.1-68.9v-551c0-38-29.2-68.9-65-68.9zM374.2 150.4h275.5l-0.1 103.3H374.2V150.4z m0 172.2h516.6l-0.1 241.1H684.1V426.2c0-18.9-15.5-34.4-34.4-34.4s-34.4 15.5-34.4 34.4v137.4H408.7V425.9c0-18.9-15.5-34.4-34.4-34.4s-34.4 15.5-34.4 34.4v137.8H133.3l0.1-241.1h240.8z m-241 551l0.1-241.1h206.5v137.8c0 18.9 15.5 34.4 34.4 34.4s34.4-15.5 34.4-34.4V632.5h206.5v138.1c0 18.9 15.5 34.4 34.4 34.4s34.4-15.5 34.4-34.4V632.5h206.5l-0.1 241.1H133.2z" fill="#2B81Ee" p-id="7296"></path></svg>