<?xml version="1.0" standalone="no"?><!DOCTYPE svg PUBLIC "-//W3C//DTD SVG 1.1//EN" "http://www.w3.org/Graphics/SVG/1.1/DTD/svg11.dtd"><svg t="1553923366591" class="icon" style="" viewBox="0 0 1024 1024" version="1.1" xmlns="http://www.w3.org/2000/svg" p-id="46774" xmlns:xlink="http://www.w3.org/1999/xlink" width="200" height="200"><defs><style type="text/css"></style></defs><path d="M693 371.5H333c-6.6 0-12-5.4-12-12V203.8c0-6.6 5.4-12 12-12h360c6.6 0 12 5.4 12 12v155.7c0 6.6-5.4 12-12 12z" fill="#2B81Ee" p-id="46775"></path><path d="M693 376.5H333c-9.4 0-17-7.6-17-17V203.8c0-9.4 7.6-17 17-17h360c9.4 0 17 7.6 17 17v155.7c0 9.4-7.6 17-17 17zM333 196.8c-3.9 0-7 3.1-7 7v155.7c0 3.9 3.1 7 7 7h360c3.9 0 7-3.1 7-7V203.8c0-3.9-3.1-7-7-7H333z" fill="#2B81Ee" p-id="46776"></path><path d="M896.2 928.3H128L249.3 306h524z" fill="#2B81Ee" p-id="46777"></path><path d="M902.3 933.3H122L245.2 301h532.2l124.9 632.3z m-768.2-10h756L769.2 311H253.5L134.1 923.3z" fill="#2B81Ee" p-id="46778"></path><path d="M146.8 826.7h730.3v10H146.8z" fill="#2B81Ee" p-id="46779"></path></svg>