<?xml version="1.0" standalone="no"?><!DOCTYPE svg PUBLIC "-//W3C//DTD SVG 1.1//EN" "http://www.w3.org/Graphics/SVG/1.1/DTD/svg11.dtd"><svg t="1553922958636" class="icon" style="" viewBox="0 0 1024 1024" version="1.1" xmlns="http://www.w3.org/2000/svg" p-id="32074" xmlns:xlink="http://www.w3.org/1999/xlink" width="200" height="200"><defs><style type="text/css"></style></defs><path d="M985.6 980.48H43.52c-14.336 0-25.6-11.264-25.6-25.6v-686.08c0-14.336 11.264-25.6 25.6-25.6h471.04c14.336 0 25.6 11.264 25.6 25.6s-11.264 25.6-25.6 25.6h-445.44v634.88h890.88v-384c0-14.336 11.264-25.6 25.6-25.6s25.6 11.264 25.6 25.6v409.6c0 14.336-11.264 25.6-25.6 25.6z" p-id="32075" fill="#2B81Ee"></path><path d="M473.6 550.4h-302.08c-14.336 0-25.6-11.264-25.6-25.6s11.264-25.6 25.6-25.6h302.08c14.336 0 25.6 11.264 25.6 25.6s-11.264 25.6-25.6 25.6zM816.64 765.44h-645.12c-14.336 0-25.6-11.264-25.6-25.6s11.264-25.6 25.6-25.6h645.12c14.336 0 25.6 11.264 25.6 25.6s-11.264 25.6-25.6 25.6z" p-id="32076" fill="#2B81Ee"></path><path d="M643.072 550.4c-5.632 0-11.264-2.048-15.872-5.632-11.264-8.704-12.8-25.088-4.096-35.84l342.016-427.52c8.704-11.264 25.088-12.8 35.84-4.096 11.264 8.704 12.8 25.088 4.096 35.84l-342.016 427.52c-5.12 6.656-12.288 9.728-19.968 9.728z" p-id="32077" fill="#2B81Ee"></path></svg>