<?xml version="1.0" standalone="no"?><!DOCTYPE svg PUBLIC "-//W3C//DTD SVG 1.1//EN" "http://www.w3.org/Graphics/SVG/1.1/DTD/svg11.dtd"><svg t="1553922464889" class="icon" style="" viewBox="0 0 1024 1024" version="1.1" xmlns="http://www.w3.org/2000/svg" p-id="1369" xmlns:xlink="http://www.w3.org/1999/xlink" width="200" height="200"><defs><style type="text/css"></style></defs><path d="M275.2 405.333333c-21.333333 0-39.466667-5.333333-54.4-16-22.4-16-30.933333-38.4-23.466667-58.666666 5.333333-13.866667 17.066667-21.333333 22.4-24.533334l2.133334-1.066666c6.4-4.266667 12.8-9.6 19.2-13.866667 5.333333-4.266667 11.733333-8.533333 17.066666-12.8 7.466667-5.333333 13.866667-10.666667 21.333334-17.066667L501.333333 90.666667c11.733333-8.533333 27.733333-8.533333 39.466667 0 32 23.466667 62.933333 46.933333 94.933333 70.4l59.733334 43.733333c25.6 19.2 52.266667 38.4 78.933333 58.666667 2.133333 2.133333 7.466667 5.333333 13.866667 8.533333 33.066667 20.266667 58.666667 38.4 64 64 3.2 17.066667-4.266667 36.266667-20.266667 48-17.066667 12.8-42.666667 18.133333-59.733333 18.133333v-32 32c-3.2 0-497.066667 3.2-497.066667 3.2z m246.4-248.533333L317.866667 312.533333c-6.4 5.333333-13.866667 10.666667-20.266667 16L281.6 341.333333c422.4-3.2 478.933333-3.2 487.466667-3.2-6.4-4.266667-12.8-7.466667-17.066667-10.666666-7.466667-4.266667-13.866667-8.533333-18.133333-11.733334-26.666667-19.2-52.266667-38.4-78.933334-58.666666L595.2 213.333333c-23.466667-19.2-49.066667-38.4-73.6-56.533333zM280.533333 731.733333c-33.066667 0-59.733333-26.666667-59.733333-59.733333V505.6c0-33.066667 26.666667-59.733333 59.733333-59.733333s59.733333 26.666667 59.733334 59.733333V672c0 33.066667-26.666667 59.733333-59.733334 59.733333z m0-243.2c-9.6 0-17.066667 7.466667-17.066666 17.066667V672c0 9.6 7.466667 17.066667 17.066666 17.066667s17.066667-7.466667 17.066667-17.066667V505.6c0-9.6-7.466667-17.066667-17.066667-17.066667zM445.866667 731.733333c-33.066667 0-59.733333-26.666667-59.733334-59.733333V505.6c0-33.066667 26.666667-59.733333 59.733334-59.733333 33.066667 0 59.733333 26.666667 59.733333 59.733333V672c0 33.066667-26.666667 59.733333-59.733333 59.733333z m0-243.2c-9.6 0-17.066667 7.466667-17.066667 17.066667V672c0 9.6 7.466667 17.066667 17.066667 17.066667 9.6 0 17.066667-7.466667 17.066666-17.066667V505.6c0-9.6-7.466667-17.066667-17.066666-17.066667zM608 731.733333c-33.066667 0-59.733333-26.666667-59.733333-59.733333V505.6c0-33.066667 26.666667-59.733333 59.733333-59.733333s59.733333 26.666667 59.733333 59.733333V672c-1.066667 33.066667-27.733333 59.733333-59.733333 59.733333z m0-243.2c-9.6 0-17.066667 7.466667-17.066667 17.066667V672c0 9.6 7.466667 17.066667 17.066667 17.066667 9.6 0 17.066667-7.466667 17.066667-17.066667V505.6c-1.066667-9.6-8.533333-17.066667-17.066667-17.066667zM764.8 731.733333c-33.066667 0-59.733333-26.666667-59.733333-59.733333V505.6c0-33.066667 26.666667-59.733333 59.733333-59.733333s59.733333 26.666667 59.733333 59.733333V672c-1.066667 33.066667-27.733333 59.733333-59.733333 59.733333z m0-243.2c-9.6 0-17.066667 7.466667-17.066667 17.066667V672c0 9.6 7.466667 17.066667 17.066667 17.066667 9.6 0 17.066667-7.466667 17.066667-17.066667V505.6c-1.066667-9.6-8.533333-17.066667-17.066667-17.066667z" fill="#2B81Ee" p-id="1370"></path><path d="M810.666667 929.066667H234.666667a71.466667 71.466667 0 0 1 0-142.933334h576a71.466667 71.466667 0 0 1 0 142.933334z m-576-99.2c-16 0-28.8 12.8-28.8 28.8s12.8 28.8 28.8 28.8h576c16 0 28.8-12.8 28.8-28.8s-12.8-28.8-28.8-28.8H234.666667z" fill="#2B81Ee" p-id="1371"></path></svg>