<?xml version="1.0" standalone="no"?><!DOCTYPE svg PUBLIC "-//W3C//DTD SVG 1.1//EN" "http://www.w3.org/Graphics/SVG/1.1/DTD/svg11.dtd"><svg t="1553922741713" class="icon" style="" viewBox="0 0 1024 1024" version="1.1" xmlns="http://www.w3.org/2000/svg" p-id="16255" xmlns:xlink="http://www.w3.org/1999/xlink" width="200" height="200"><defs><style type="text/css"></style></defs><path d="M150.588235 0h722.82353c83.169882 0 150.588235 67.418353 150.588235 150.588235v722.82353c0 83.169882-67.418353 150.588235-150.588235 150.588235H150.588235C67.418353 1024 0 956.581647 0 873.411765V150.588235C0 67.418353 67.418353 0 150.588235 0z m155.602824 712.779294V662.588235a50.221176 50.221176 0 0 1 50.206117-50.191059h401.558589V261.014588A50.221176 50.221176 0 0 0 707.764706 210.823529H306.191059A50.221176 50.221176 0 0 0 256 261.014588v501.970824A50.221176 50.221176 0 0 0 306.191059 813.176471H707.764706a50.221176 50.221176 0 0 0 50.191059-50.191059H356.397176a50.221176 50.221176 0 0 1-50.206117-50.206118z m386.514823 0A25.088 25.088 0 1 0 692.705882 662.588235H341.338353a25.088 25.088 0 1 0 0 50.191059H692.705882z" fill="#2B81Ee" p-id="16256"></path></svg>