<?xml version="1.0" standalone="no"?><!DOCTYPE svg PUBLIC "-//W3C//DTD SVG 1.1//EN" "http://www.w3.org/Graphics/SVG/1.1/DTD/svg11.dtd"><svg t="1553922799535" class="icon" style="" viewBox="0 0 1024 1024" version="1.1" xmlns="http://www.w3.org/2000/svg" p-id="25855" xmlns:xlink="http://www.w3.org/1999/xlink" width="200" height="200"><defs><style type="text/css"></style></defs><path d="M720.37 291.899H294.55l-20.417 20.418V603.52l21.174 18.9h424.312l30.249-19.657V312.317l-29.498-20.418z m-0.752 278.338H305.136V322.908h414.482v247.329zM450.737 642.089h122.512v39.332H450.737zM411.405 701.084h201.187v31.017H411.405z" fill="#2B81Ee" p-id="25856"></path><path d="M512.013 93.174C280.69 93.174 93.182 280.695 93.182 512c0 231.307 187.508 418.826 418.831 418.826 231.315 0 418.806-187.52 418.806-418.826-0.001-231.305-187.491-418.826-418.806-418.826z m-0.001 819.795c-221.459 0-400.973-179.524-400.973-400.969 0-221.442 179.514-400.969 400.973-400.969 221.453 0 400.949 179.526 400.949 400.969 0 221.444-179.496 400.969-400.949 400.969z" fill="#2B81Ee" p-id="25857"></path></svg>