<?xml version="1.0" standalone="no"?><!DOCTYPE svg PUBLIC "-//W3C//DTD SVG 1.1//EN" "http://www.w3.org/Graphics/SVG/1.1/DTD/svg11.dtd"><svg t="1553922614630" class="icon" style="" viewBox="0 0 1024 1024" version="1.1" xmlns="http://www.w3.org/2000/svg" p-id="9089" xmlns:xlink="http://www.w3.org/1999/xlink" width="200" height="200"><defs><style type="text/css"></style></defs><path d="M780.8 793.6H243.2c-21.1712 0-38.4-17.2288-38.4-38.4V64c0-21.1712 17.2288-38.4 38.4-38.4h537.6c21.1712 0 38.4 17.2288 38.4 38.4v473.6h-25.6V64c0-7.0528-5.7472-12.8-12.8-12.8H243.2c-7.0528 0-12.8 5.7472-12.8 12.8v691.2c0 7.0528 5.7472 12.8 12.8 12.8h537.6c7.0528 0 12.8-5.7472 12.8-12.8V614.4h25.6v140.8c0 21.1712-17.2288 38.4-38.4 38.4z" fill="#2B81Ee" p-id="9090"></path><path d="M793.6 563.2h25.6v25.6h-25.6zM729.6 729.6H294.4a12.8 12.8 0 0 1-12.8-12.8V102.4a12.8 12.8 0 0 1 12.8-12.8h435.2a12.8 12.8 0 0 1 12.8 12.8v614.4a12.8 12.8 0 0 1-12.8 12.8z m-422.4-25.6h409.6V115.2H307.2v588.8zM243.2 115.2H192a12.8 12.8 0 0 1 0-25.6h51.2a12.8 12.8 0 0 1 0 25.6zM243.2 217.6H192a12.8 12.8 0 0 1 0-25.6h51.2a12.8 12.8 0 0 1 0 25.6zM243.2 320H192a12.8 12.8 0 0 1 0-25.6h51.2a12.8 12.8 0 0 1 0 25.6zM243.2 422.4H192a12.8 12.8 0 0 1 0-25.6h51.2a12.8 12.8 0 0 1 0 25.6zM243.2 524.8H192a12.8 12.8 0 0 1 0-25.6h51.2a12.8 12.8 0 0 1 0 25.6zM243.2 627.2H192a12.8 12.8 0 0 1 0-25.6h51.2a12.8 12.8 0 0 1 0 25.6zM243.2 729.6H192a12.8 12.8 0 0 1 0-25.6h51.2a12.8 12.8 0 0 1 0 25.6z" fill="#2B81Ee" p-id="9091"></path><path d="M614.4 166.4h64v25.6h-64zM563.2 166.4h25.6v25.6h-25.6zM345.6 166.4h192v25.6H345.6zM345.6 281.6h332.8v25.6H345.6zM345.6 396.8h332.8v25.6H345.6zM345.6 512h332.8v25.6H345.6zM345.6 627.2h332.8v25.6H345.6z" fill="#2B81Ee" p-id="9092"></path></svg>