<?xml version="1.0" standalone="no"?><!DOCTYPE svg PUBLIC "-//W3C//DTD SVG 1.1//EN" "http://www.w3.org/Graphics/SVG/1.1/DTD/svg11.dtd"><svg t="1553922945043" class="icon" style="" viewBox="0 0 1024 1024" version="1.1" xmlns="http://www.w3.org/2000/svg" p-id="31284" xmlns:xlink="http://www.w3.org/1999/xlink" width="200" height="200"><defs><style type="text/css"></style></defs><path d="M510.464 355.328c-97.28 0-176.64 79.36-176.64 176.64s79.36 176.64 176.64 176.64c30.208 0 60.416-7.68 86.528-22.528 8.704-5.12 12.288-16.384 7.168-25.088-5.12-8.704-16.384-12.288-25.088-7.168-20.48 11.776-44.544 17.92-68.096 17.92-76.8 0-139.264-62.464-139.264-139.264s62.464-139.264 139.264-139.264S650.24 455.68 650.24 532.48c0 24.064-6.144 47.616-17.92 68.608-5.12 8.704-2.048 20.48 7.168 25.088 8.704 5.12 20.48 2.048 25.088-7.168 14.848-26.112 23.04-56.32 23.04-86.528-0.512-97.792-79.872-177.152-177.152-177.152z m413.696 93.184l-125.44-20.48c-2.56-7.168-5.632-14.848-9.216-22.016l74.24-102.912c5.12-7.168 4.608-17.408-2.048-24.064L766.976 184.32c-6.656-6.656-16.384-7.168-24.064-2.048l-103.424 74.24c-7.68-3.584-15.36-6.656-23.04-9.216l-19.968-127.488c-1.536-9.216-9.216-15.872-18.432-15.872H444.416c-9.216 0-16.896 6.656-18.432 15.872l-19.968 127.488c-7.168 2.56-13.824 5.632-20.992 8.704L280.576 180.224c-7.168-5.632-17.408-4.608-24.064 2.048L161.792 276.48c-6.656 6.656-7.168 16.896-2.048 24.064L235.52 404.48c-3.584 8.192-7.168 15.872-10.24 24.064l-124.928 19.968c-9.216 1.536-15.872 9.216-15.872 18.432v134.144c0 9.216 6.656 16.896 15.872 18.432l124.928 19.456c3.072 7.68 6.144 15.872 9.728 23.552l-74.24 102.4c-5.632 7.168-4.608 17.408 2.048 24.064l94.72 94.72c6.656 6.656 16.896 7.168 24.064 2.048l102.4-74.752c7.168 3.584 14.848 6.656 22.528 9.216l19.968 123.392c1.536 9.216 9.216 15.36 18.432 15.36H578.56c9.216 0 16.896-6.656 18.432-15.36l19.968-122.88c8.192-3.072 16.384-6.656 24.576-10.24l100.864 72.704c7.168 5.12 17.408 4.608 24.064-2.048l94.72-94.72c6.656-6.656 7.168-16.384 2.048-24.064L790.016 660.48c3.072-7.168 6.144-13.824 8.704-20.992l125.44-20.48c9.216-1.536 15.36-9.216 15.36-18.432V466.944c0-9.216-6.656-16.896-15.36-18.432z m-22.016 136.704l-120.832 19.456c-6.656 1.024-12.288 6.144-14.848 12.8-4.096 12.8-9.216 25.088-15.36 36.864-3.072 6.144-2.56 13.824 1.536 19.456l70.656 97.792-72.192 72.192-97.28-70.144c-5.632-4.096-13.312-4.608-19.456-1.536-12.8 6.656-26.624 12.288-39.936 16.896-6.656 2.048-11.264 7.68-12.8 14.848l-19.456 118.272h-102.4L440.32 803.328c-1.024-6.656-6.144-12.288-12.8-14.848-13.312-4.096-26.112-9.728-38.4-15.872-6.144-3.072-13.824-2.56-19.456 1.536l-98.304 71.68-71.68-72.192 71.68-98.816c4.096-5.632 4.608-13.312 1.536-19.456-6.656-12.8-12.288-26.112-16.384-39.424-2.048-6.656-7.68-11.776-14.848-12.8l-120.32-18.944v-102.4l120.32-18.944c7.168-1.024 12.8-6.144 14.848-12.8 4.608-13.824 10.24-27.136 16.896-39.936 3.072-6.144 2.56-13.824-1.536-19.456L199.168 291.84 271.36 219.648l100.864 73.216c5.632 4.096 13.312 4.608 19.456 1.536 11.776-6.144 24.576-11.264 36.864-15.36 6.656-2.048 11.264-7.68 12.8-14.848l19.456-122.88h102.4l19.456 122.368c1.024 7.168 6.144 12.8 12.8 14.848 13.312 4.096 26.112 9.728 38.4 15.872 6.144 3.072 13.824 2.56 19.456-1.536l99.328-71.68 71.68 72.704-71.68 99.328c-4.096 5.632-4.608 13.312-1.536 19.456 6.144 12.288 11.776 25.088 15.872 37.888 2.048 6.656 7.68 11.264 14.848 12.8l120.832 19.456-0.512 102.4z" fill="#2B81Ee" p-id="31285"></path></svg>