<?xml version="1.0" standalone="no"?><!DOCTYPE svg PUBLIC "-//W3C//DTD SVG 1.1//EN" "http://www.w3.org/Graphics/SVG/1.1/DTD/svg11.dtd"><svg t="1553923250404" class="icon" style="" viewBox="0 0 1024 1024" version="1.1" xmlns="http://www.w3.org/2000/svg" p-id="42199" xmlns:xlink="http://www.w3.org/1999/xlink" width="200" height="200"><defs><style type="text/css"></style></defs><path d="M765.6 434.5v71.2c0 6 4.8 10.8 10.8 10.8 77.5 0 140.3-62.8 140.3-140.3v-140c0-8.2-6.7-14.9-14.9-14.9H211.4c-81.3 0-147.2 65.9-147.2 147.2 0 10 8.1 18.1 18.1 18.1h635.5c26.4 0.1 47.8 21.5 47.8 47.9zM945.9 679.8H310.4c-26.4 0-47.8-21.4-47.8-47.8v-71.2c0-6-4.8-10.8-10.8-10.8-77.5 0-140.3 62.8-140.3 140.3v140c0 8.2 6.7 14.9 14.9 14.9h690.4c81.3 0 147.2-65.9 147.2-147.2 0-10.1-8.1-18.2-18.1-18.2z" fill="#2B81Ee" p-id="42200"></path></svg>