<?xml version="1.0" standalone="no"?><!DOCTYPE svg PUBLIC "-//W3C//DTD SVG 1.1//EN" "http://www.w3.org/Graphics/SVG/1.1/DTD/svg11.dtd"><svg t="1553922879958" class="icon" style="" viewBox="0 0 1024 1024" version="1.1" xmlns="http://www.w3.org/2000/svg" p-id="27605" xmlns:xlink="http://www.w3.org/1999/xlink" width="200" height="200"><defs><style type="text/css"></style></defs><path d="M883.1 121.1H712c-7.4-72-66.9-119.7-153.8-119.7H130.5c-54.9 0-99.9 62.3-106.8 119.7h-1v770.7c0 72.9 59.3 132.2 132.2 132.2h735.8c63.3 0 114.7-51.5 114.7-114.7v-666c-0.1-67.3-54.9-122.2-122.3-122.2zM130.5 31.3h427.8c53.8 0 115.2 24.3 123.6 89.8H54c6.8-42.7 40.6-89.8 76.5-89.8z m844.9 718.3h-419c-74.3 0-134.7-60.4-134.7-134.7v-67.3c0-78.4 63.8-142.2 142.2-142.2h411.5v344.2z m0-374.1H563.8c-94.9 0-172.1 77.2-172.1 172.1V615c0 90.8 73.9 164.6 164.6 164.6h419v129.7c0 46.8-38 84.8-84.8 84.8H154.8c-56.4 0-102.2-45.9-102.2-102.3V151h830.6c50.9 0 92.3 41.4 92.3 92.3v132.2z" fill="#2B81Ee" p-id="27606"></path><path d="M167.3 330.6h29.9v389.1h-29.9zM167.3 802h29.9v29.9h-29.9zM507.7 590c0 46.1 37.5 83.6 83.6 83.6s83.5-37.5 83.5-83.6c0-46.1-37.5-83.5-83.5-83.5S507.7 544 507.7 590z m83.6-61.1c33.7 0 61.1 27.4 61.1 61.1s-27.4 61.1-61.1 61.1-61.1-27.4-61.1-61.1 27.4-61.1 61.1-61.1z" fill="#2B81Ee" p-id="27607"></path></svg>