<?xml version="1.0" standalone="no"?><!DOCTYPE svg PUBLIC "-//W3C//DTD SVG 1.1//EN" "http://www.w3.org/Graphics/SVG/1.1/DTD/svg11.dtd"><svg t="1553922844396" class="icon" style="" viewBox="0 0 1024 1024" version="1.1" xmlns="http://www.w3.org/2000/svg" p-id="26688" xmlns:xlink="http://www.w3.org/1999/xlink" width="200" height="200"><defs><style type="text/css"></style></defs><path d="M236.373333 533.333333c0 153.173333 124.16 277.333333 277.333334 277.333334 145.92 0 265.813333-112.64 276.48-256h-297.813334V256.853333c-143.36 10.666667-256 130.56-256 276.48z m597.333334-21.333333v21.333333c0 176.64-143.36 320-320 320s-320-143.36-320-320 143.36-320 320-320h21.333333v298.666667h298.666667z" fill="#2B81Ee" p-id="26689"></path><path d="M832.853333 426.666667h-212.48V214.186667c112.64 10.24 202.24 99.84 212.48 212.48z m-233.813333-256h-21.333333v298.666666h298.666666v-21.333333c0-153.173333-124.16-277.333333-277.333333-277.333333z" fill="#2B81Ee" p-id="26690"></path></svg>