<?xml version="1.0" standalone="no"?>
<!DOCTYPE svg PUBLIC "-//W3C//DTD SVG 1.1//EN" "http://www.w3.org/Graphics/SVG/1.1/DTD/svg11.dtd" >
<svg xmlns="http://www.w3.org/2000/svg">
<metadata>Generated by IcoMoon</metadata>
<defs>
<font id="icomoon" horiz-adv-x="1024">
<font-face units-per-em="1024" ascent="960" descent="-64" />
<missing-glyph horiz-adv-x="1024" />
<glyph unicode="&#x20;" horiz-adv-x="512" d="" />
<glyph unicode="&#xe900;" glyph-name="101" horiz-adv-x="1202" d="M0 448v-512h672.278l262.678 280.487c146.922 151.374 262.678 311.652 267.13 356.174 0 40.070-44.522 146.922-97.948 231.513l-102.4 155.826h-1001.739v-512zM801.391 692.87c0-22.261-57.878-44.522-133.565-44.522-71.235 0-133.565-17.809-133.565-44.522 0-22.261 48.974-44.522 106.852-44.522 146.922 0 235.965-111.304 160.278-200.348-62.33-75.687-400.696-93.496-400.696-22.261 0 26.713 71.235 44.522 155.826 44.522s155.826 22.261 155.826 44.522c0 26.713-62.33 44.522-133.565 44.522-142.47 0-209.252 80.139-160.278 200.348 26.713 75.687 382.887 97.948 382.887 22.261z" />
<glyph unicode="&#xe901;" d="M-4522.667 10688h16000v-57216h-16000v57216z" />
<glyph unicode="&#xe902;" d="M222.609 681.739v-166.957h578.783v166.957c0 153.656-129.532 278.261-289.391 278.261-159.802 0-289.391-124.605-289.391-278.261zM685.635 681.739v-100.174h-347.27v100.174c0 92.049 77.904 166.957 173.635 166.957s173.635-74.908 173.635-166.957z" />
<glyph unicode="&#xe903;" d="M512 47.304c-125.668 0-227.556 99.673-227.556 222.609s101.888 222.609 227.556 222.609c125.668 0 227.556-99.673 227.556-222.609s-101.888-222.609-227.556-222.609zM910.222 603.826h-796.444c-62.805 0-113.778-49.864-113.778-111.304v-445.217c0-61.44 50.972-111.304 113.778-111.304h796.444c62.805 0 113.778 49.864 113.778 111.304v445.217c0 61.44-50.972 111.304-113.778 111.304z" />
<glyph unicode="&#xe904;" d="M512 425.739c-16.523 0-33.047-6.325-45.633-18.911l-91.266-91.266c-25.237-25.237-25.237-66.029 0-91.266l91.266-91.266c12.586-12.586 29.109-18.911 45.633-18.911s33.047 6.325 45.633 18.911l91.266 91.266c25.237 25.237 25.237 66.029 0 91.266l-91.266 91.266c-12.586 12.586-29.109 18.911-45.633 18.911zM557.633 315.562v0z" />
<glyph unicode="&#xe905;" glyph-name="112" horiz-adv-x="1202" d="M0 448v-512h672.278l262.678 280.487c146.922 151.374 262.678 311.652 267.13 356.174 0 40.070-44.522 146.922-97.948 231.513l-102.4 155.826h-1001.739v-512zM667.826 514.783c0-169.183-17.809-222.609-66.783-222.609s-66.783 53.426-66.783 222.609c0 169.183 17.809 222.609 66.783 222.609s66.783-53.426 66.783-222.609z" />
<glyph unicode="&#xe906;" horiz-adv-x="942" d="M-7249.92 10298.88h15360v-54927.36h-15360v54927.36z" />
<glyph unicode="&#xe907;" horiz-adv-x="942" d="M923.603 243.524c0-216.855-198.666-305.37-443.733-305.37s-443.733 88.515-443.733 305.37c0 216.855 198.666 479.932 443.733 479.932s443.733-263.076 443.733-479.932zM580.965 431.979l-95.91-131.762h-4.881l-95.973 131.819c-8.177 9.816-24.786 12.901-37.781 7.068s-17.876-18.567-11.030-28.944l79.745-109.942h-77.844c-10.586 0.561-20.665-3.478-26.18-10.433-5.515-7.068-5.515-15.818 0-22.83 5.515-7.068 15.594-11.106 26.18-10.545h115.117v-27.766h-115.117c-10.459 0.449-20.285-3.59-25.673-10.545-5.325-6.956-5.325-15.594 0-22.605 5.388-6.899 15.214-10.938 25.673-10.602h115.117v-57.383c0.571-11.78 12.995-21.147 28.209-21.147 15.087 0 27.511 9.368 28.082 21.147v57.383h114.42c10.396-0.337 20.285 3.702 25.61 10.602 5.325 7.012 5.325 15.65 0 22.605s-15.214 10.994-25.61 10.545h-114.42v27.766h114.42c15.594 0 28.209 9.872 28.209 21.932 0 12.116-12.615 21.876-28.209 21.876h-73.026l79.618 109.942c3.803 4.992 4.881 10.994 2.853 16.547-1.902 5.665-6.593 10.433-13.122 13.35-4.437 1.963-9.255 2.917-14.009 2.917-9.762 0-19.207-3.927-24.469-10.994z" />
<glyph unicode="&#xe908;" horiz-adv-x="942" d="M649.105 738.133l-26.155 9.295c-86.201 30.508-183.562 30.508-269.694 0l-26.292-9.295c-21.156 0-39.917 11.291-46.558 27.999l-55.938 139.652c-12.803 31.991 23.827 62.442 62.237 51.721l137.757-38.434c40.259-11.234 83.873-11.291 124.2-0.171l141.043 38.948c38.342 10.607 74.835-19.787 62.032-51.778l-56.007-139.937c-6.71-16.708-25.47-27.999-46.626-27.999z" />
<glyph unicode="&#xe909;" glyph-name="111" horiz-adv-x="1202" d="M0 448v-512h672.278l262.678 280.487c146.922 151.374 262.678 311.652 267.13 356.174 0 40.070-44.522 146.922-97.948 231.513l-102.4 155.826h-1001.739v-512zM756.87 692.87c0-22.261-48.974-44.522-111.304-44.522-93.496 0-111.304-22.261-111.304-133.565s17.809-133.565 111.304-133.565c62.33 0 111.304-17.809 111.304-44.522 0-62.33-240.417-53.426-302.748 8.904-66.783 66.783-66.783 271.583 0 338.365 62.33 62.33 302.748 71.235 302.748 8.904z" />
<glyph unicode="&#xe90a;" horiz-adv-x="1336" d="M-10863.304 11155.478h16695.652v-59703.652h-16695.652v59703.652z" />
<glyph unicode="&#xe90b;" horiz-adv-x="1336" d="M773.819 318.706c70.474 29.51 165.54 78.264 269.17 123.315v-361.449c0 0-134.074-144.572-369.656-144.572-253.731 0-390.791 144.572-390.791 144.572v337.334c79.981-33.013 169.783-61.476 278.48-99.199 67.017-24.156 152.027-32.53 212.798 0zM1277.981 634.783v-218.448l51.422-60.268-98.68-87.645-90.155 87.645 54.25 61.839v180.725c-291.522-121.865-370.442-159.749-435.024-189.3-64.66-29.55-111.211-29.389-175.361-4.912-64.11 24.478-354.807 137.405-506.323 210.959-101.155 49.076-107.676 80.197 1.689 121.865 142.756 54.954 364.196 143.002 489.235 191.071 74.049 30.356 113.175 46.943 181.136 12.319 121.307-50.807 384.073-156.287 521.919-213.979 120.011-53.142 39.362-70.615 5.892-91.872z" />
<glyph unicode="&#xe90c;" glyph-name="110" horiz-adv-x="1202" d="M0 448v-512h672.278l262.678 280.487c146.922 151.374 262.678 311.652 267.13 356.174 0 40.070-44.522 146.922-97.948 231.513l-102.4 155.826h-1001.739v-512z" />
<glyph unicode="&#xe90d;" horiz-adv-x="983" d="M-13025.28 10298.88h15360v-54927.36h-15360v54927.36z" />
<glyph unicode="&#xe90e;" horiz-adv-x="983" d="M490.667 960l-141.774-78.114v-153.71l113.459-61.988v-18.865l-141.774-75.349 170.088-91.64 28.343 16.154 141.745 75.486-141.745 75.458v18.865l113.431 61.988v153.49l-141.774 78.224zM711.38 750.491l196.411-93.118v-162.964l73.542-57.278v266.788l-269.953 139.636v-93.064zM0 703.918v-266.788l73.542 57.278v162.964h0.087l196.296 93.118v93.064l-269.924-139.636zM515.258 424.645v-186.182l147.229 93.091 49.067-23.327v-116.281l128.006-78.142 141.774 75.513v156.311l-147.171 79.155-116.606-68.394-30.652 21.849v139.527l-171.647-93.118zM294.4 378.237l-33.51-21.849-119.145 64.616-141.745-75.458v-156.365l141.745-75.486 152.655 78.114v116.528l24.476 23.355 147.2-93.091v186.045l-171.676 93.118v-139.527zM490.667 29.091l-171.676 93.091-86.328-51.474 258.004-134.708 258.091 134.708-86.271 51.474-171.82-93.091z" />
<glyph unicode="&#xe90f;" d="M24.976 448c0-268.976 218.048-487.024 487.024-487.024s487.024 218.048 487.024 487.024v0c0 268.976-218.048 487.024-487.024 487.024s-487.024-218.048-487.024-487.024v0z" />
<glyph unicode="&#xe910;" d="M512-64c-282.224 0-512 229.776-512 512s229.776 512 512 512 512-229.776 512-512-229.776-512-512-512zM512 910.049c-254.751 0-462.049-207.298-462.049-462.049s207.298-462.049 462.049-462.049 462.049 207.298 462.049 462.049-207.298 462.049-462.049 462.049z" />
<glyph unicode="&#xe911;" d="M512 610.341c14.985 0 27.473-12.488 27.473-27.473v-269.737c0-14.985-12.488-27.473-27.473-27.473s-27.473 12.488-27.473 27.473v269.737c0 14.985 12.488 27.473 27.473 27.473z" />
<glyph unicode="&#xe912;" d="M674.341 448c0-14.985-12.488-27.473-27.473-27.473h-269.737c-14.985 0-27.473 12.488-27.473 27.473s12.488 27.473 27.473 27.473h269.737c14.985 0 27.473-12.488 27.473-27.473z" />
<glyph unicode="&#xe913;" glyph-name="addCoin" d="M-16640 21081.6h19200v-40345.6h-19200v40345.6z" />
<glyph unicode="&#xe914;" glyph-name="asset-11" horiz-adv-x="1052" d="M0 448v-512h440.043c392.995 0 440.043 5.535 456.649 49.816 8.303 24.908 47.049 88.562 85.795 141.146 58.119 77.492 69.189 124.541 69.189 282.292 0 171.589-8.303 199.265-83.027 282.292-55.351 63.654-83.027 124.541-83.027 182.659v85.795h-885.622v-512zM968.649 389.881c0-80.259-16.605-160.519-41.514-193.73-35.978-47.049-38.746-27.676-38.746 210.335 0 240.778 2.768 257.384 38.746 193.73 22.141-38.746 38.746-132.843 41.514-210.335z" />
<glyph unicode="&#xe915;" glyph-name="asset" horiz-adv-x="1052" d="M0 448v-512h440.043c392.995 0 440.043 5.535 456.649 49.816 8.303 24.908 47.049 88.562 85.795 141.146 58.119 77.492 69.189 124.541 69.189 282.292 0 171.589-8.303 199.265-83.027 282.292-55.351 63.654-83.027 124.541-83.027 182.659v85.795h-885.622v-512zM968.649 389.881c0-80.259-16.605-160.519-41.514-193.73-35.978-47.049-38.746-27.676-38.746 210.335 0 240.778 2.768 257.384 38.746 193.73 22.141-38.746 38.746-132.843 41.514-210.335z" />
<glyph unicode="&#xe916;" glyph-name="asset-1" horiz-adv-x="1052" d="M0 448v-512h440.043c392.995 0 440.043 5.535 456.649 49.816 8.303 24.908 47.049 88.562 85.795 141.146 58.119 77.492 69.189 124.541 69.189 282.292 0 171.589-8.303 199.265-83.027 282.292-55.351 63.654-83.027 124.541-83.027 182.659v85.795h-885.622v-512zM968.649 389.881c0-80.259-16.605-160.519-41.514-193.73-35.978-47.049-38.746-27.676-38.746 210.335 0 240.778 2.768 257.384 38.746 193.73 22.141-38.746 38.746-132.843 41.514-210.335z" />
<glyph unicode="&#xe917;" glyph-name="asset-1-1" horiz-adv-x="1052" d="M0 448v-512h440.043c392.995 0 440.043 5.535 456.649 49.816 8.303 24.908 47.049 88.562 85.795 141.146 58.119 77.492 69.189 124.541 69.189 282.292 0 171.589-8.303 199.265-83.027 282.292-55.351 63.654-83.027 124.541-83.027 182.659v85.795h-885.622v-512zM968.649 389.881c0-80.259-16.605-160.519-41.514-193.73-35.978-47.049-38.746-27.676-38.746 210.335 0 240.778 2.768 257.384 38.746 193.73 22.141-38.746 38.746-132.843 41.514-210.335z" />
<glyph unicode="&#xe918;" glyph-name="assets-1" horiz-adv-x="1068" d="M733.834 843.245c-39.037 63.089-107.852 104.49-186.337 104.49-75.564 0-142.164-38.376-181.374-96.702l-0.496-0.783c-202.094-38.097-352.975-213.070-353.336-423.35v-47.786c0.28-237.826 193-430.545 430.798-430.825h182.778c237.931 0.14 430.791 192.913 431.071 430.798v47.774c-0.339 199.356-136.048 366.922-320.098 415.707l-3.005 0.677zM547.579 886.936c87.258-0.105 157.971-70.796 158.11-158.036v-0.013c-0.011-16.502-2.595-32.396-7.371-47.31l0.304 1.1h-302.087c-4.45 13.912-7.015 29.916-7.015 46.518 0 87.118 70.623 157.742 157.742 157.742 0.111 0 0.223 0 0.334 0h-0.017zM996.163 379.115c-0.245-204.275-165.776-369.806-370.027-370.051h-183.021c-204.275 0.245-369.806 165.776-370.051 370.027v47.771c0.234 165.796 109.303 306.055 259.581 353.18l2.625 0.71c-4.157-15.683-6.544-33.688-6.544-52.251 0-16.328 1.847-32.225 5.343-47.492l-0.274 1.424h-30.725c-15.985 0-28.943-12.958-28.943-28.943s12.958-28.943 28.943-28.943h482.135c15.985 0 28.943 12.958 28.943 28.943s-12.958 28.943-28.943 28.943h-23.781c3.187 13.882 5.022 29.827 5.039 46.198v0.012c-0.041 14.698-1.516 29.026-4.291 42.885l0.235-1.406c137.786-55.848 233.249-188.495 233.509-343.472v-47.78zM650.446 354.535c15.982 0.003 28.937 12.96 28.937 28.943s-12.955 28.94-28.937 28.943h-61.327l58.009 58.009c5.25 5.242 8.498 12.489 8.498 20.494 0 15.994-12.966 28.96-28.96 28.96-7.99 0-15.224-3.235-20.463-8.467v0l-71.589-71.589-71.835 71.589c-5.201 5.033-12.297 8.135-20.118 8.135-15.985 0-28.943-12.958-28.943-28.943 0-7.821 3.102-14.917 8.143-20.126l58.001-58.001h-61.081c-15.985 0-28.943-12.958-28.943-28.943s12.958-28.943 28.943-28.943v0h86.767v-57.824h-86.767c-15.985 0-28.943-12.958-28.943-28.943s12.958-28.943 28.943-28.943v0h86.767v-77.181c0.003-15.982 12.96-28.937 28.943-28.937s28.94 12.955 28.943 28.937v0 77.365h86.767c15.985 0 28.943 12.958 28.943 28.943s-12.958 28.943-28.943 28.943v0h-86.767v57.824z" />
<glyph unicode="&#xe919;" glyph-name="btc-01" d="M446.351 483.338h70.687c13.897 0.133 27.312 1.929 40.139 5.198l-1.165-0.252c4.533 1.425 8.344 2.967 12.005 4.767l-0.496-0.22c9.297 4.314 17.008 10.666 22.804 18.518l0.113 0.16c7.232 10.336 11.557 23.171 11.557 37.015 0 0.869-0.017 1.734-0.051 2.595l0.004-0.124c0.012 0.5 0.020 1.088 0.020 1.678 0 14.073-4.030 27.204-10.999 38.303l0.176-0.3c-5.686 8.914-13.743 15.867-23.287 20.061l-0.337 0.132c-1.949 0.96-4.322 1.918-6.768 2.714l-0.4 0.113c-12.932 3.5-27.824 5.623-43.173 5.856l-0.142 0.002c-7.772 0.502-16.261 0.502-25.549 0.502h-90.481v-136.817h45.343v0.102zM571.863 422.246l-4.342 1.311c-15.128 3.817-32.519 6.058-50.415 6.164h-0.068v0.102h-116.029v-155.597h116.029c12.493-0.225 24.975 0.481 37.366 2.12 4.434 0.799 8.817 1.843 13.128 3.133 8.172 2.277 15.317 5.449 21.865 9.495l-0.361-0.208c9.686 6.273 17.436 14.767 22.654 24.789l0.171 0.361c5.673 10.629 9.005 23.247 9.005 36.643 0 0.535-0.005 1.069-0.016 1.601l0.001-0.080c0.012 0.508 0.019 1.106 0.019 1.706 0 15.755-4.838 30.381-13.109 42.472l0.167-0.258c-8.703 12.346-21.106 21.57-35.581 26.114l-0.485 0.131zM512 897.126c-248.044 0-449.116-201.083-449.116-449.126s201.083-449.116 449.116-449.116c248.044 0 449.116 201.083 449.116 449.116 0 248.044-201.073 449.126-449.116 449.126zM669.512 293.202c-7.894-16.855-19.143-30.951-32.981-41.925l-0.238-0.182c-14.078-10.313-30.672-18.167-48.633-22.528l-0.949-0.195c-6.328-1.608-12.728-2.888-19.18-3.84v-54.221h-50.483v50.483h-70.687v-50.483h-50.483v50.483h-54.835v452.68h54.835v52.204h50.483v-52.204h64.522l6.164-0.102v52.306h50.483v-57.559c9.093-1.751 17.981-4.393 26.552-7.875 20.653-8.979 37.456-23.574 48.91-41.862l0.263-0.45c10.988-16.908 17.563-37.565 17.674-59.752v-0.029c0-0.061 0-0.134 0-0.207 0-20.173-5.829-38.984-15.895-54.841l0.248 0.418c-11.576-18.159-27.695-32.492-46.783-41.61l-0.679-0.292c25.477-6.842 46.939-21.261 62.424-40.661l0.183-0.238 0.41-0.102c13.817-18.179 22.134-41.194 22.134-66.151 0-0.846-0.010-1.69-0.029-2.531l0.002 0.125c0.001-0.154 0.001-0.335 0.001-0.517 0-21.231-4.96-41.303-13.785-59.121l0.349 0.779z" />
<glyph unicode="&#xe91a;" glyph-name="close-1" d="M0 448v-512h1024v1024h-1024v-512z" />
<glyph unicode="&#xe91b;" glyph-name="close" d="M0 448v-512h1024v1024h-1024v-512z" />
<glyph unicode="&#xe91c;" glyph-name="close-11" d="M0 448v-512h1024v1024h-1024v-512z" />
<glyph unicode="&#xe91d;" glyph-name="close-1-1" d="M0 448v-512h1024v1024h-1024v-512z" />
<glyph unicode="&#xe91e;" d="M-13880.889 13134.222h21333.333v-44828.444h-21333.333v44828.444z" />
<glyph unicode="&#xe91f;" d="M-540.444 1671.111h4437.333c659.796 0 1194.667-534.87 1194.667-1194.667s-534.87-1194.667-1194.667-1194.667h-4437.333c-659.796 0-1194.667 534.87-1194.667 1194.667s534.87 1194.667 1194.667 1194.667z" />
<glyph unicode="&#xe920;" d="M284.444 960c31.403 0 56.889-25.486 56.889-56.889s-25.486-56.889-56.889-56.889h-142.222c-15.701 0-28.444-12.743-28.444-28.444v-142.222c0-31.403-25.486-56.889-56.889-56.889s-56.889 25.486-56.889 56.889v227.556c0 31.403 25.486 56.889 56.889 56.889h227.556zM739.556 960h227.556c31.46 0 56.889-25.486 56.889-56.889v-227.556c0-31.403-25.429-56.889-56.889-56.889s-56.889 25.486-56.889 56.889v142.222c0 15.701-12.743 28.444-28.444 28.444h-142.222c-31.46 0-56.889 25.486-56.889 56.889s25.429 56.889 56.889 56.889zM284.444-64h-227.556c-31.403 0-56.889 25.429-56.889 56.889v227.556c0 31.46 25.486 56.889 56.889 56.889s56.889-25.429 56.889-56.889v-142.222c0-15.701 12.743-28.444 28.444-28.444h142.222c31.403 0 56.889-25.429 56.889-56.889s-25.486-56.889-56.889-56.889zM739.556-64c-31.46 0-56.889 25.429-56.889 56.889s25.429 56.889 56.889 56.889h142.222c15.701 0 28.444 12.743 28.444 28.444v142.222c0 31.46 25.429 56.889 56.889 56.889s56.889-25.429 56.889-56.889v-227.556c0-31.46-25.429-56.889-56.889-56.889h-227.556zM682.667 391.111c31.46 0 56.889-25.429 56.889-56.889s-25.429-56.889-56.889-56.889h-113.778v-113.778c0-31.46-25.486-56.889-56.889-56.889s-56.889 25.429-56.889 56.889v113.778h-113.778c-31.403 0-56.889 25.429-56.889 56.889s25.486 56.889 56.889 56.889h113.778v56.889h-113.778c-31.403 0-56.889 25.486-56.889 56.889s25.486 56.889 56.889 56.889h91.705l-75.719 76.402c-21.333 21.561-21.333 56.548 0 78.108 21.39 21.561 56.036 21.561 77.369 0l77.312-78.108 77.312 78.108c21.333 21.561 55.979 21.561 77.369 0 21.333-21.561 21.333-56.548 0-78.108l-75.662-76.402h91.648c31.46 0 56.889-25.486 56.889-56.889s-25.429-56.889-56.889-56.889h-113.778v-56.889h113.778z" />
<glyph unicode="&#xe921;" d="M-3826.526 12439.579h20210.526v-42469.053h-20210.526v42469.053z" />
<glyph unicode="&#xe922;" d="M665.606 396.811c28.314 0 51.2-22.902 51.2-51.236s-22.886-51.236-51.2-51.236h-102.4v-102.472c0-28.333-22.938-51.236-51.2-51.236s-51.2 22.902-51.2 51.236v102.472h-102.4c-28.262 0-51.2 22.902-51.2 51.236s22.938 51.236 51.2 51.236h102.4v51.236h-102.4c-28.262 0-51.2 22.954-51.2 51.236s22.938 51.236 51.2 51.236h82.534l-68.147 68.81c-19.2 19.418-19.2 50.928 0 70.347 19.251 19.418 50.432 19.418 69.632 0l69.581-70.347 69.581 70.347c19.2 19.418 50.381 19.418 69.632 0 19.2-19.418 19.2-50.928 0-70.347l-68.096-68.81h82.483c28.314 0 51.2-22.954 51.2-51.236s-22.886-51.236-51.2-51.236h-102.4v-51.236h102.4zM919.056 898.913v-153.708c0-1.64-0.819-2.972-0.973-4.56-0.205-14.5-5.939-28.795-17.971-38.734-21.914-17.984-54.118-14.858-72.090 7.019-123.136 149.66-336.947 192.186-508.211 101.088-171.315-91.097-255.744-292.096-200.704-477.929 8.038-27.155-7.475-55.642-34.56-63.737-4.864-1.435-9.728-2.101-14.541-2.101-22.118 0-42.496 14.449-49.101 36.685-68.813 232.406 36.71 483.718 250.88 597.564 176.691 93.967 389.325 73.933 544.87-41.040v39.452c0 28.333 22.886 51.236 51.2 51.236 28.262 0 51.2-22.902 51.2-51.236zM1003.106 593.152c68.813-232.406-36.71-483.667-250.88-597.564-75.622-40.22-157.901-59.587-239.411-59.587-109.005 0-216.525 34.943-305.459 100.73v-34.431c0-28.282-22.886-51.236-51.2-51.236-28.262 0-51.2 22.954-51.2 51.236v153.708c0 1.025 0.563 1.947 0.614 2.972 0.051 0.769 0.358 1.486 0.461 2.203 2.714 25.72 23.706 46.061 50.125 46.061 16.179 0 29.952-7.942 39.373-19.675 0.102-0.154 0.307-0.256 0.461-0.41 123.187-149.763 336.896-192.186 508.211-101.088s255.744 292.147 200.704 477.98c-7.987 27.104 7.475 55.642 34.56 63.686 27.238 7.993 55.603-7.48 63.642-34.584z" />
<glyph unicode="&#xe923;" glyph-name="diamond" horiz-adv-x="1257" d="M907.857 547.030l-307.506-353.894c-5.66-7.488-15.389-12.007-25.84-12.007s-20.18 4.519-25.841 12.007l-307.506 353.894c-6.036 7.975-6.539 18.099-1.329 26.483l166.546 144.179c5.33 8.576 15.788 13.939 27.169 13.939h278.106c11.185 0 21.501-5.184 26.907-13.529l170.359-144.179c5.48-8.449 5.076-18.791-1.065-26.893v0z" />
<glyph unicode="&#xe924;" d="M0 448c0-282.77 229.23-512 512-512s512 229.23 512 512v0c0 282.77-229.23 512-512 512s-512-229.23-512-512v0z" />
<glyph unicode="&#xe925;" d="M817.869 187.238l-96.973 432.179c-0.352 1.562-0.991 2.935-1.865 4.127l0.022-0.031-198.093 272.845c-2.045 2.767-5.295 4.541-8.96 4.541s-6.915-1.774-8.939-4.511l-0.021-0.030-198.093-272.845c-0.852-1.161-1.491-2.534-1.829-4.022l-0.014-0.074-96.973-432.179c-0.162-0.71-0.254-1.526-0.254-2.363 0-4.017 2.132-7.536 5.325-9.487l0.049-0.028 296.96-179.405h7.68l0.922 0.41 0.563 0.307h0.41l295.066 178.688c3.192 1.989 5.284 5.48 5.284 9.46 0 0.857-0.097 1.692-0.281 2.493l0.014-0.075zM523.059 855.757l174.746-240.64-44.544-137.421-130.202 228.864zM500.941 706.509l-130.202-228.864-44.544 137.421 174.746 240.64zM512 680.909l131.994-232.090-131.994-406.733-131.994 406.989zM492.288 30.669l-260.403 157.696 133.12 234.291zM658.842 422.656l133.12-234.291-260.403-157.696zM668.109 451.174l40.038 123.546 71.68-320.256zM315.853 575.078l40.038-123.546-111.872-196.71z" />
<glyph unicode="&#xe926;" d="M0 448c0-282.77 229.23-512 512-512s512 229.23 512 512v0c0 282.77-229.23 512-512 512s-512-229.23-512-512v0z" />
<glyph unicode="&#xe927;" d="M817.869 187.238l-96.973 432.179c-0.352 1.562-0.991 2.935-1.865 4.127l0.022-0.031-198.093 272.845c-2.045 2.767-5.295 4.541-8.96 4.541s-6.915-1.774-8.939-4.511l-0.021-0.030-198.093-272.845c-0.852-1.161-1.491-2.534-1.829-4.022l-0.014-0.074-96.973-432.179c-0.162-0.71-0.254-1.526-0.254-2.363 0-4.017 2.132-7.536 5.325-9.487l0.049-0.028 296.96-179.405h7.68l0.922 0.41 0.563 0.307h0.41l295.066 178.688c3.192 1.989 5.284 5.48 5.284 9.46 0 0.857-0.097 1.692-0.281 2.493l0.014-0.075zM523.059 855.757l174.746-240.64-44.544-137.421-130.202 228.864zM500.941 706.509l-130.202-228.864-44.544 137.421 174.746 240.64zM512 680.909l131.994-232.090-131.994-406.733-131.994 406.989zM492.288 30.669l-260.403 157.696 133.12 234.291zM658.842 422.656l133.12-234.291-260.403-157.696zM668.109 451.174l40.038 123.546 71.68-320.256zM315.853 575.078l40.038-123.546-111.872-196.71z" />
<glyph unicode="&#xe928;" d="M1028.608 448c0-282.624-229.376-512-512-512s-512 229.376-512 512 229.376 512 512 512 512-229.376 512-512z" />
<glyph unicode="&#xe929;" d="M289.792 384.512l219.648 452.608v-568.32zM743.424 384.512l-220.672-115.712v568.32zM289.792 368.128l219.648-110.080v-176.64zM743.424 368.128l-220.672-286.72v176.64z" />
<glyph unicode="&#xe92a;" glyph-name="eth-01" d="M512 897.116c-248.044 0-449.116-201.073-449.116-449.116s201.083-449.116 449.116-449.116c248.044 0 449.116 201.083 449.116 449.116 0 248.044-201.073 449.116-449.116 449.116zM512 140.401l-186.644 266.158 186.644-109.834 186.644 109.834-186.644-266.158zM512 329.073l-186.644 111.176 186.644 315.351 186.644-315.341-186.644-111.186z" />
<glyph unicode="&#xe92b;" horiz-adv-x="819" d="M-870.4 17958.4h19200v-68659.2h-19200v68659.2z" />
<glyph unicode="&#xe92c;" horiz-adv-x="819" d="M566.618 496.399l-69.733-68.813c-2.427-2.406-3.489-5.837-2.933-9.216l16.485-97.178c1.416-8.499-7.383-14.95-14.918-10.957l-86.168 45.875c-3.034 1.587-6.574 1.587-9.608 0l-86.168-45.875c-7.535-3.994-16.333 2.458-14.918 10.957l16.485 97.178c0.556 3.379-0.556 6.81-2.984 9.216l-69.683 68.813c-6.119 5.99-2.731 16.486 5.664 17.715l96.332 14.182c3.388 0.512 6.27 2.611 7.787 5.683l43.084 88.422c3.742 7.731 14.614 7.731 18.407 0l43.084-88.422c1.466-3.072 4.399-5.171 7.737-5.683l96.382-14.182c8.445-1.229 11.782-11.725 5.664-17.715zM767.98 960.015h-716.749c-28.318 0-51.225-23.654-51.225-52.838v-918.272c0-39.322 40.050-64.819 74.082-47.258l312.611 161.229c14.412 7.475 31.352 7.475 45.815 0l312.56-161.229c34.083-17.562 74.133 7.936 74.133 47.258v918.272c0 29.184-22.907 52.838-51.225 52.838z" />
<glyph unicode="&#xe92d;" horiz-adv-x="1084" d="M-1024 32342.588h22588.235v-80775.529h-22588.235v80775.529z" />
<glyph unicode="&#xe92e;" horiz-adv-x="1084" d="M542.133 866.982c-124.024 124.024-325.090 124.024-449.114 0s-124.024-325.090 0-449.114l449.114-449.054 449.114 449.054c124.024 124.024 124.024 325.090 0 449.114-124.085 124.024-325.090 124.024-449.114 0z" />
<glyph unicode="&#xe92f;" horiz-adv-x="979" d="M-9928.348 34262.261h16695.652v-35083.13h-16695.652v35083.13z" />
<glyph unicode="&#xe930;" horiz-adv-x="979" d="M489.739 924.383c-270.091 0-489.739-215.255-489.739-479.944s219.648-479.944 489.739-479.944c270.091 0 489.739 215.255 489.739 479.944s-219.648 479.944-489.739 479.944zM489.739 837.12c220.934 0 400.696-176.167 400.696-392.682s-179.762-392.682-400.696-392.682c-220.934 0-400.696 176.167-400.696 392.682s179.762 392.682 400.696 392.682z" />
<glyph unicode="&#xe931;" horiz-adv-x="979" d="M712.348 662.595l-333.69-79.671c-14.959-3.578-26.579-14.966-30.23-29.626l-81.297-327.017 333.69 79.671c14.915 3.578 26.579 15.009 30.23 29.626l81.297 327.017zM591.16 543.83l-39.713-159.865-163.128-38.919 39.713 159.865 163.128 38.919z" />
<glyph unicode="&#xe932;" horiz-adv-x="979" d="M489.739 480.7c-9.483 0-18.922-3.534-26.179-10.602-14.425-14.18-14.425-37.13 0-51.31 7.257-7.068 16.696-10.602 26.179-10.602s18.922 3.534 26.179 10.602c14.425 14.18 14.425 37.13 0 51.31-7.257 7.068-16.696 10.602-26.179 10.602z" />
<glyph unicode="&#xe933;" d="M-3168 5232h6000v-12608h-6000v12608z" />
<glyph unicode="&#xe934;" d="M832 448c0-176.731-143.269-320-320-320s-320 143.269-320 320c0 176.731 143.269 320 320 320s320-143.269 320-320z" />
<glyph unicode="&#xe935;" d="M516 342.039c0-4.398-1.359-8.73-3.915-12.4-3.883-5.599-9.81-9.639-16.481-9.639h-104.444c-6.661 0-15.366 4.040-19.249 9.639-3.893 5.588-4.998 12.712-2.778 19.267l21.851 77.854c2.953 8.661 10.368 14.249 23.514 13.669h57.964c8.891 0 17.958-5.008 20.736-13.669l21.665-77.854c0.765-2.249 1.137-4.566 1.137-6.864 0 2.302 0.349 4.621 1.047 6.874l21.853 77.881c2.963 8.664 11.283 13.673 24.238 13.673h57.951c14.245-0.376 17.218-5.009 19.985-13.673l21.843-77.881c2.219-6.364 0.929-13.684-2.963-19.274-3.892-5.601-9.074-9.642-15.732-9.642h-104.403c-6.658 0-16.103 4.042-19.995 9.642-2.547 3.669-3.823 7.999-3.824 12.396zM464.798 455.529c-6.671 0-14.819 4.052-18.888 9.642-3.893 5.589-4.998 12.716-2.778 19.272l21.851 77.874c2.964 8.674 14.251 13.683 23.142 13.683h57.778c8.891 0 18.34-5.009 21.108-13.683l21.862-77.874c2.21-6.557 1.105-13.683-2.788-19.272-3.883-5.589-10.182-9.642-16.853-9.642h-104.435z" />
<glyph unicode="&#xe936;" horiz-adv-x="1920" d="M0 22421.333h16000v-57216h-16000v57216z" />
<glyph unicode="&#xe937;" horiz-adv-x="1920" d="M1194.667 938.667c0-553.758-448.909-1002.667-1002.667-1002.667s-1002.667 448.909-1002.667 1002.667c0 553.758 448.909 1002.667 1002.667 1002.667s1002.667-448.909 1002.667-1002.667z" />
<glyph unicode="&#xe938;" horiz-adv-x="1920" d="M1920 810.667c0-435.937-353.397-789.333-789.333-789.333s-789.333 353.397-789.333 789.333c0 435.937 353.397 789.333 789.333 789.333s789.333-353.397 789.333-789.333z" />
<glyph unicode="&#xe939;" horiz-adv-x="1920" d="M0 32960h16000v-57216h-16000v57216z" />
<glyph unicode="&#xe93a;" horiz-adv-x="1920" d="M1194.667 938.667c0-553.758-448.909-1002.667-1002.667-1002.667s-1002.667 448.909-1002.667 1002.667c0 553.758 448.909 1002.667 1002.667 1002.667s1002.667-448.909 1002.667-1002.667z" />
<glyph unicode="&#xe93b;" horiz-adv-x="1920" d="M1920 810.667c0-435.937-353.397-789.333-789.333-789.333s-789.333 353.397-789.333 789.333c0 435.937 353.397 789.333 789.333 789.333s789.333-353.397 789.333-789.333z" />
<glyph unicode="&#xe93c;" horiz-adv-x="1306" d="M0 960h1306.122v-2744.599h-1306.122v2744.599z" />
<glyph unicode="&#xe93d;" horiz-adv-x="1306" d="M1302.617 1054.27c27.658-27.559 27.658-72.24 0-99.799l-373.662-372.327c-27.658-27.559-72.499-27.559-100.157 0s-27.658 72.24 0 99.799l373.662 372.327c27.658 27.559 72.499 27.559 100.157 0z" />
<glyph unicode="&#xe93e;" horiz-adv-x="1306" d="M1302.617 1054.27c27.658-27.559 27.658-72.24 0-99.799l-373.662-372.327c-27.658-27.559-72.499-27.559-100.157 0s-27.658 72.24 0 99.799l373.662 372.327c27.658 27.559 72.499 27.559 100.157 0z" />
<glyph unicode="&#xe93f;" horiz-adv-x="1306" d="M1640.467 1235.385c27.658-27.559 27.658-72.24 0-99.799l-373.662-372.327c-27.658-27.559-72.499-27.559-100.157 0s-27.658 72.24 0 99.799l373.662 372.327c27.658 27.559 72.499 27.559 100.157 0z" />
<glyph unicode="&#xe940;" horiz-adv-x="1306" d="M1640.467 1235.385c27.658-27.559 27.658-72.24 0-99.799l-373.662-372.327c-27.658-27.559-72.499-27.559-100.157 0s-27.658 72.24 0 99.799l373.662 372.327c27.658 27.559 72.499 27.559 100.157 0z" />
<glyph unicode="&#xe941;" horiz-adv-x="1306" d="M372.51 486.909c27.455-27.069 27.455-70.956 0-98.024l-370.919-365.706c-27.455-27.069-71.967-27.069-99.422 0s-27.455 70.956 0 98.024l370.919 365.706c27.455 27.069 71.967 27.069 99.422 0z" />
<glyph unicode="&#xe942;" horiz-adv-x="1306" d="M387.348 364.616c23.025-22.943 23.025-60.141 0-83.084l-311.078-309.967c-23.025-22.943-60.357-22.943-83.382 0s-23.025 60.141 0 83.084l311.078 309.967c23.025 22.943 60.357 22.943 83.382 0z" />
<glyph unicode="&#xe943;" horiz-adv-x="1306" d="M387.348 364.616c23.025-22.943 23.025-60.141 0-83.084l-311.078-309.967c-23.025-22.943-60.357-22.943-83.382 0s-23.025 60.141 0 83.084l311.078 309.967c23.025 22.943 60.357 22.943 83.382 0z" />
<glyph unicode="&#xe944;" horiz-adv-x="1306" d="M570.357 1028.634c20.015-19.943 20.015-52.277 0-72.22l-270.404-269.438c-20.015-19.943-52.465-19.943-72.479 0s-20.015 52.277 0 72.22l270.404 269.438c20.015 19.943 52.465 19.943 72.479 0z" />
<glyph unicode="&#xe945;" horiz-adv-x="1306" d="M570.357 1028.634c20.015-19.943 20.015-52.277 0-72.22l-270.404-269.438c-20.015-19.943-52.465-19.943-72.479 0s-20.015 52.277 0 72.22l270.404 269.438c20.015 19.943 52.465 19.943 72.479 0z" />
<glyph unicode="&#xe946;" horiz-adv-x="1306" d="M1068.142 618.667l-138.5-212.171 143.117-470.496 143.126 470.496z" />
<glyph unicode="&#xe947;" horiz-adv-x="1306" d="M874.231 83.607l198.53-147.604-143.126 470.487z" />
<glyph unicode="&#xe948;" horiz-adv-x="1306" d="M1072.762-63.999l198.53 147.604-55.404 322.883z" />
<glyph unicode="&#xe949;" horiz-adv-x="2093" d="M0 15028.87h16695.652v-59703.652h-16695.652v59703.652z" />
<glyph unicode="&#xe94a;" horiz-adv-x="2093" d="M1335.652 982.261c0-577.834-468.427-1046.261-1046.261-1046.261s-1046.261 468.427-1046.261 1046.261c0 577.834 468.427 1046.261 1046.261 1046.261s1046.261-468.427 1046.261-1046.261z" />
<glyph unicode="&#xe94b;" horiz-adv-x="2093" d="M2092.522 848.696c0-454.891-368.762-823.652-823.652-823.652s-823.652 368.762-823.652 823.652c0 454.891 368.762 823.652 823.652 823.652s823.652-368.762 823.652-823.652z" />
<glyph unicode="&#xe94c;" glyph-name="H" d="M662.971 392.311v-389.524c0-44.491 22.296-66.787 66.787-66.787 37.093 0 57.489 22.296 61.188 66.787v879.328c-3.699 48.191-24.195 74.186-61.188 77.885-44.591-3.699-66.787-29.694-66.787-77.885v-384.025h-534.296v384.025c-3.699 48.191-24.195 74.186-61.188 77.885-40.892-3.699-61.288-29.694-61.288-77.885v-879.328c0-44.491 20.296-66.787 61.188-66.787 37.093 0 57.489 22.296 61.188 66.787v389.524h534.396z" />
<glyph unicode="&#xe94f;" glyph-name="ICON_EOS2" d="M513.3-62.1c-68.8 0-135.6 13.5-198.4 40.1-60.7 25.7-115.2 62.4-162 109.2s-83.6 101.3-109.2 162c-26.6 62.9-40.1 129.6-40.1 198.4s13.5 135.6 40.1 198.4c25.7 60.7 62.4 115.2 109.2 162s101.3 83.6 162 109.2c62.9 26.7 129.6 40.2 198.4 40.2s135.6-13.5 198.4-40.1c60.7-25.7 115.2-62.4 162-109.2s83.6-101.3 109.2-162c26.6-62.9 40.1-129.6 40.1-198.4s-13.5-135.6-40.1-198.4c-25.7-60.7-62.4-115.2-109.2-162s-101.3-83.6-162-109.2c-62.8-26.7-129.6-40.2-198.4-40.2zM513.3 917.4c-259 0-469.7-210.7-469.7-469.7s210.7-469.7 469.7-469.7 469.7 210.7 469.7 469.7-210.7 469.7-469.7 469.7zM416.2 446.6l-37.8 116.5-56.8-275.3 0.6-0.5h2zM336.2 276.8l178.9-134.9-43.8 134.9zM515.6 618.7l-1.4 2.4 4.1 2.3 1.7 2.9 1.7-0.9 1.6 0.9 1.7-2.9 4.1-2.3-1.4-2.4 83.4-144.4 29 102.2-118 176.3-135.3-178.2 37.2-114.6zM570.1 287.3h136.9l-91.9 159zM336.4 287.3h131.5l-47.3 145.9zM715.8 292.9l4.8 3.9-73 264.1-28.5-100.5zM521.7 158.7l33.5 118.1h-71.8zM428.3 446.6l51.7-159.3h78.1l49 172.9-85.4 148zM528.8 141.4l167.1 135.4h-128.8z" />
<glyph unicode="&#xe950;" horiz-adv-x="1084" d="M-20299.294 3429.647h22588.235v-47465.412h-22588.235v47465.412z" />
<glyph unicode="&#xe951;" horiz-adv-x="1084" d="M301.176 960c33.267 0 60.235-26.968 60.235-60.235s-26.968-60.235-60.235-60.235h-150.468c-16.685 0-30.238-13.553-30.238-30.238v-150.468c0-33.267-26.968-60.235-60.235-60.235s-60.235 26.968-60.235 60.235v240.941c0 33.25 26.985 60.235 60.235 60.235h240.941zM783.059 960h240.941c33.31 0 60.235-26.985 60.235-60.235v-240.941c0-33.267-26.968-60.235-60.235-60.235s-60.235 26.968-60.235 60.235v150.468c0 16.685-13.553 30.238-30.238 30.238h-150.468c-33.267 0-60.235 26.968-60.235 60.235s26.968 60.235 60.235 60.235zM301.176-64h-240.941c-33.25 0-60.235 26.925-60.235 60.235v240.941c0 33.267 26.968 60.235 60.235 60.235s60.235-26.968 60.235-60.235v-150.468c0-16.685 13.553-30.238 30.238-30.238h150.468c33.267 0 60.235-26.968 60.235-60.235s-26.968-60.235-60.235-60.235zM783.059-64c-33.267 0-60.235 26.968-60.235 60.235s26.968 60.235 60.235 60.235h150.468c16.685 0 30.238 13.553 30.238 30.238v150.468c0 33.267 26.968 60.235 60.235 60.235s60.235-26.968 60.235-60.235v-240.941c0-33.31-26.925-60.235-60.235-60.235h-240.941zM301.176 357.647c-33.25 0-60.235 26.985-60.235 60.235s26.985 60.235 60.235 60.235h481.882c33.31 0 60.235-26.985 60.235-60.235s-26.925-60.235-60.235-60.235h-481.882z" />
<glyph unicode="&#xe952;" glyph-name="icon-back" horiz-adv-x="546" d="M-1024 3417.6h25600v-45533.867h-25600v45533.867zM99.032 448l435.087 441.019c16.019 16.238 16.019 42.565 0 58.803s-41.992 16.238-58.012 0l-464.093-470.42c-16.019-16.238-16.019-42.565 0-58.803l464.093-470.42c16.019-16.238 41.992-16.238 58.012 0s16.019 42.565 0 58.803l-435.087 441.019z" />
<glyph unicode="&#xe953;" horiz-adv-x="559" d="M-31557.818 55418.182h34909.091v-124834.909h-34909.091v124834.909z" />
<glyph unicode="&#xe954;" horiz-adv-x="559" d="M457.263 448l-444.975 441.019c-16.384 16.238-16.384 42.565 0 58.803s42.946 16.238 59.33 0l474.64-470.42c16.384-16.238 16.384-42.565 0-58.803l-474.64-470.42c-16.384-16.238-42.946-16.238-59.33 0s-16.384 42.565 0 58.803l444.975 441.019z" />
<glyph unicode="&#xe955;" horiz-adv-x="979" d="M-9928.348 58882.783h16695.652v-59703.652h-16695.652v59703.652z" />
<glyph unicode="&#xe956;" horiz-adv-x="979" d="M489.739 924.383c-270.091 0-489.739-215.255-489.739-479.944s219.648-479.944 489.739-479.944c270.091 0 489.739 215.255 489.739 479.944s-219.648 479.944-489.739 479.944zM489.739 837.12c220.934 0 400.696-176.167 400.696-392.682s-179.762-392.682-400.696-392.682c-220.934 0-400.696 176.167-400.696 392.682s179.762 392.682 400.696 392.682z" />
<glyph unicode="&#xe957;" horiz-adv-x="979" d="M712.348 662.595l-333.69-79.671c-14.959-3.578-26.579-14.966-30.23-29.626l-81.297-327.017 333.69 79.671c14.915 3.578 26.579 15.009 30.23 29.626l81.297 327.017zM591.16 543.83l-39.713-159.865-163.128-38.919 39.713 159.865 163.128 38.919z" />
<glyph unicode="&#xe958;" horiz-adv-x="979" d="M489.739 480.7c-9.483 0-18.922-3.534-26.179-10.602-14.425-14.18-14.425-37.13 0-51.31 7.257-7.068 16.696-10.602 26.179-10.602s18.922 3.534 26.179 10.602c14.425 14.18 14.425 37.13 0 51.31-7.257 7.068-16.696 10.602-26.179 10.602z" />
<glyph unicode="&#xe959;" horiz-adv-x="979" d="M-5787.826 58882.783h16695.652v-59703.652h-16695.652v59703.652z" />
<glyph unicode="&#xe95a;" horiz-adv-x="979" d="M-5787.826 1317.064h16695.652v-2137.934h-16695.652v2137.934z" />
<glyph unicode="&#xe95b;" horiz-adv-x="979" d="M489.739 924.383c-270.091 0-489.739-213.712-489.739-476.503s219.648-476.503 489.739-476.503c270.091 0 489.739 213.712 489.739 476.503s-219.648 476.503-489.739 476.503z" />
<glyph unicode="&#xe95c;" horiz-adv-x="979" d="M489.739 634.14c-11.398 0-22.795-4.245-31.477-12.692l-146.922-142.951c-17.363-16.894-17.363-44.315 0-61.252l146.922-142.951c8.682-8.447 20.079-12.692 31.477-12.692s22.795 4.245 31.477 12.692l146.922 142.951c17.363 16.938 17.363 44.358 0 61.252l-146.922 142.951c-8.682 8.447-20.079 12.692-31.477 12.692zM489.739 529.57l83.968-81.699-83.968-81.699-83.968 81.699 83.968 81.699z" />
<glyph unicode="&#xe95d;" horiz-adv-x="979" d="M489.739 924.383c-270.091 0-489.739-215.255-489.739-479.944s219.648-479.944 489.739-479.944c270.091 0 489.739 215.255 489.739 479.944s-219.648 479.944-489.739 479.944z" />
<glyph unicode="&#xe95e;" horiz-adv-x="979" d="M489.739 632.044c-11.398 0-22.795-4.276-31.477-12.784l-146.922-143.983c-17.363-17.016-17.363-44.635 0-61.695l146.922-143.983c8.682-8.508 20.079-12.784 31.477-12.784s22.795 4.276 31.477 12.784l146.922 143.983c17.363 17.060 17.363 44.678 0 61.695l-146.922 143.983c-8.682 8.508-20.079 12.784-31.477 12.784zM489.739 526.718l83.968-82.289-83.968-82.289-83.968 82.289 83.968 82.289z" />
<glyph unicode="&#xe95f;" horiz-adv-x="967" d="M-967.111 44593.778h21333.333v-76288h-21333.333v76288z" />
<glyph unicode="&#xe960;" horiz-adv-x="967" d="M227.556-64h-170.667c-31.403 0-56.889 25.429-56.889 56.889v625.778c0 31.403 25.486 56.889 56.889 56.889h170.667c31.403 0 56.889-25.486 56.889-56.889v-625.778c0-31.46-25.486-56.889-56.889-56.889z" />
<glyph unicode="&#xe961;" horiz-adv-x="967" d="M568.889-64h-170.667c-31.403 0-56.889 25.429-56.889 56.889v910.222c0 31.403 25.486 56.889 56.889 56.889h170.667c31.46 0 56.889-25.486 56.889-56.889v-910.222c0-31.46-25.429-56.889-56.889-56.889z" />
<glyph unicode="&#xe962;" horiz-adv-x="967" d="M910.222-64h-170.667c-31.46 0-56.889 25.429-56.889 56.889v455.111c0 31.403 25.429 56.889 56.889 56.889h170.667c31.46 0 56.889-25.486 56.889-56.889v-455.111c0-31.46-25.429-56.889-56.889-56.889z" />
<glyph unicode="&#xe963;" horiz-adv-x="975" d="M-1804.19 64448h18285.714v-65389.714h-18285.714v65389.714z" />
<glyph unicode="&#xe964;" horiz-adv-x="975" d="M-1804.19 1399.832h18285.714v-2341.547h-18285.714v2341.547z" />
<glyph unicode="&#xe965;" horiz-adv-x="975" d="M939.897 726.918h-904.533c-19.559 0-35.379-16.273-35.379-36.335v-576.672c0-92.341 72.818-167.184 162.54-167.184h650.159c89.83 0 162.54 74.843 162.54 167.184v576.672c0 20.062-15.821 36.335-35.325 36.335zM866.862 615.462v-501.551c0-30.762-24.273-55.728-54.18-55.728h-650.159c-29.853 0-54.18 24.966-54.18 55.728v501.551h758.519z" />
<glyph unicode="&#xe966;" horiz-adv-x="975" d="M899.365 921.966h-736.847c-89.722 0-162.54-65.487-162.54-146.286s72.818-146.286 162.54-146.286h736.847c14.954 0 27.090 10.923 27.090 24.381v243.81c0 13.458-12.136 24.381-27.090 24.381zM818.095 824.442v-97.524h-655.577c-29.853 0-54.18 21.894-54.18 48.762s24.327 48.762 54.18 48.762h655.577z" />
<glyph unicode="&#xe967;" horiz-adv-x="975" d="M658.286 239.299c-40.448 0-73.143 32.695-73.143 73.143s32.695 73.143 73.143 73.143c40.448 0 73.143-32.695 73.143-73.143s-32.695-73.143-73.143-73.143zM849.85 434.347h-188.082c-69.214 0-125.388-54.613-125.388-121.905s56.174-121.905 125.388-121.905h188.082c69.214 0 125.388 54.613 125.388 121.905s-56.174 121.905-125.388 121.905z" />
<glyph unicode="&#xe968;" horiz-adv-x="975" d="M939.897 725.653h-904.533c-19.559 0-35.379-16.378-35.379-36.57v-580.413c0-92.94 72.818-168.268 162.54-168.268h650.159c89.83 0 162.54 75.328 162.54 168.268v580.413c0 20.192-15.821 36.57-35.325 36.57zM866.862 613.474v-504.804c0-30.961-24.273-56.089-54.18-56.089h-650.159c-29.853 0-54.18 25.128-54.18 56.089v504.804h758.519z" />
<glyph unicode="&#xe969;" horiz-adv-x="975" d="M899.365 921.966h-736.847c-89.722 0-162.54-65.912-162.54-147.235s72.818-147.235 162.54-147.235h736.847c14.954 0 27.090 10.994 27.090 24.539v245.391c0 13.546-12.136 24.539-27.090 24.539zM818.095 823.809v-98.156h-655.577c-29.853 0-54.18 22.036-54.18 49.078s24.327 49.078 54.18 49.078h655.577z" />
<glyph unicode="&#xe96a;" horiz-adv-x="975" d="M658.286 234.871c-40.448 0-73.143 32.907-73.143 73.617s32.695 73.617 73.143 73.617c40.448 0 73.143-32.907 73.143-73.617s-32.695-73.617-73.143-73.617zM849.85 431.184h-188.082c-69.214 0-125.388-54.968-125.388-122.695s56.174-122.695 125.388-122.695h188.082c69.214 0 125.388 54.968 125.388 122.695s-56.174 122.695-125.388 122.695z" />
<glyph unicode="&#xe96b;" glyph-name="leavel-1" horiz-adv-x="1308" d="M1147.034 703.998c-69.815 0-126.494-57.403-126.494-127.998 0-16.865 3.253-32.891 9.034-47.589l-198.775-80.415-133.243 269.615c41.504 20.781 69.995 64.273 69.995 114.39 0 70.595-56.68 127.998-126.494 127.998s-126.495-57.403-126.495-127.998c0-50.118 28.433-93.609 69.995-114.39l-133.241-269.615-198.839 80.415c5.756 14.059 9.098 30.374 9.098 47.47 0 0.042 0 0.084 0 0.125v-0.006c0 70.595-56.68 127.998-126.495 127.998-69.814 0-126.494-57.403-126.494-127.998 0-70.776 56.68-128.003 126.494-128.003 7.11 0 14.214 0.484 21.084 1.806l67.403-405.079c6.383-64.034 63.248-108.725 120.171-108.725h588.316c63.248 0 113.725 44.693 126.494 108.725l67.403 405.079c6.87-1.324 13.975-1.806 21.084-1.806 69.815 0 126.494 57.285 126.494 128.003 0.001 70.595-56.679 127.998-126.493 127.998z" />
<glyph unicode="&#xe96c;" glyph-name="level" horiz-adv-x="1270" d="M212.992 394.752l-212.992-12.288v-446.464h1269.76v479.232l-417.792-4.096c-233.472-4.096-520.192-8.192-638.976-16.384z" />
<glyph unicode="&#xe96d;" glyph-name="level-1" horiz-adv-x="1270" d="M212.992 394.752l-212.992-12.288v-446.464h1269.76v479.232l-417.792-4.096c-233.472-4.096-520.192-8.192-638.976-16.384z" />
<glyph unicode="&#xe96e;" glyph-name="mine" horiz-adv-x="926" d="M-15555.048 37482.667h18285.714v-38424.381h-18285.714v38424.381z" />
<glyph unicode="&#xe96f;" horiz-adv-x="979" d="M-5787.826 34262.261h16695.652v-35083.13h-16695.652v35083.13z" />
<glyph unicode="&#xe970;" horiz-adv-x="979" d="M-5787.826 1317.064h16695.652v-2137.934h-16695.652v2137.934z" />
<glyph unicode="&#xe971;" horiz-adv-x="979" d="M489.739 924.383c-270.091 0-489.739-213.712-489.739-476.503s219.648-476.503 489.739-476.503c270.091 0 489.739 213.712 489.739 476.503s-219.648 476.503-489.739 476.503zM489.739 837.746c220.934 0 400.696-174.904 400.696-389.866s-179.762-389.866-400.696-389.866c-220.934 0-400.696 174.904-400.696 389.866s179.762 389.866 400.696 389.866z" />
<glyph unicode="&#xe972;" horiz-adv-x="979" d="M489.739 634.14c-11.398 0-22.795-4.245-31.477-12.692l-146.922-142.951c-17.363-16.894-17.363-44.315 0-61.252l146.922-142.951c8.682-8.447 20.079-12.692 31.477-12.692s22.795 4.245 31.477 12.692l146.922 142.951c17.363 16.938 17.363 44.358 0 61.252l-146.922 142.951c-8.682 8.447-20.079 12.692-31.477 12.692zM489.739 529.57l83.968-81.699-83.968-81.699-83.968 81.699 83.968 81.699z" />
<glyph unicode="&#xe973;" horiz-adv-x="979" d="M489.739 924.383c-270.091 0-489.739-215.255-489.739-479.944s219.648-479.944 489.739-479.944c270.091 0 489.739 215.255 489.739 479.944s-219.648 479.944-489.739 479.944zM489.739 837.12c220.934 0 400.696-176.167 400.696-392.682s-179.762-392.682-400.696-392.682c-220.934 0-400.696 176.167-400.696 392.682s179.762 392.682 400.696 392.682z" />
<glyph unicode="&#xe974;" horiz-adv-x="979" d="M489.739 632.044c-11.398 0-22.795-4.276-31.477-12.784l-146.922-143.983c-17.363-17.016-17.363-44.635 0-61.695l146.922-143.983c8.682-8.508 20.079-12.784 31.477-12.784s22.795 4.276 31.477 12.784l146.922 143.983c17.363 17.060 17.363 44.678 0 61.695l-146.922 143.983c-8.682 8.508-20.079 12.784-31.477 12.784zM489.739 526.718l83.968-82.289-83.968-82.289-83.968 82.289 83.968 82.289z" />
<glyph unicode="&#xe975;" d="M-4528 5232h6000v-12608h-6000v12608z" />
<glyph unicode="&#xe976;" d="M832 448c0-176.731-143.269-320-320-320s-320 143.269-320 320c0 176.731 143.269 320 320 320s320-143.269 320-320z" />
<glyph unicode="&#xe977;" d="M632.395 540.807c5.045-2.646 6.951-8.879 4.298-13.902l-32.012-60.676c-2.646-5.023-8.879-6.951-13.902-4.275l-60.698 32.012c-5.023 2.668-6.951 8.879-4.305 13.902l32.035 60.676c2.676 5.023 8.887 6.929 13.91 4.283l60.676-32.020z" />
<glyph unicode="&#xe978;" d="M501.478 561.967v-88.723c0-7.35-5.963-13.313-13.304-13.313h-88.758c-7.341-0.027-13.304 5.937-13.304 13.313v88.723c0 7.341 5.963 13.304 13.304 13.304h88.732c7.341 0 13.331-5.963 13.331-13.304zM501.478 425.53v-88.732c0-7.341-5.963-13.304-13.304-13.304h-88.758c-7.341 0-13.304 5.963-13.304 13.304v88.732c0 7.341 5.963 13.304 13.304 13.304h88.732c7.341 0.027 13.331-5.937 13.331-13.304zM637.88 425.53v-88.732c0-7.341-5.954-13.304-13.296-13.304h-88.758c-7.341 0-13.304 5.963-13.304 13.304v88.732c0 7.341 5.963 13.304 13.304 13.304h88.732c7.368 0.027 13.322-5.937 13.322-13.304z" />
<glyph unicode="&#xe979;" d="M-448 5232h6000v-12608h-6000v12608z" />
<glyph unicode="&#xe97a;" d="M832 448c0-176.731-143.269-320-320-320s-320 143.269-320 320c0 176.731 143.269 320 320 320s320-143.269 320-320z" />
<glyph unicode="&#xe97b;" d="M583.848 577.232c2.448-5.904 2.448-12.576 0-18.464-0.048-0.128-0.128-0.224-0.176-0.336-1.168-2.688-2.8-5.216-4.992-7.408l-169.712-169.696c-9.36-9.376-24.56-9.376-33.936 0s-9.376 24.56 0 33.936l128.736 128.736h-38.064c-13.248 0-24 10.736-24 24 0 13.248 10.752 24 24 24h96c3.152 0 6.304-0.64 9.232-1.872 0.128-0.048 0.224-0.128 0.352-0.176 2.672-1.168 5.2-2.784 7.392-4.992 2.192-2.176 3.824-4.72 4.992-7.392 0.048-0.112 0.128-0.224 0.176-0.336zM435.005 323.918c-2.448 5.904-2.448 12.56 0 18.464 0.048 0.128 0.128 0.224 0.176 0.352 1.168 2.672 2.8 5.2 4.992 7.392l169.712 169.712c9.376 9.36 24.56 9.36 33.936 0 9.376-9.376 9.376-24.576 0-33.952l-128.736-128.736h38.064c13.248 0 24-10.752 24-24s-10.752-24-24-24h-96c-3.152 0-6.288 0.64-9.248 1.856-0.112 0.064-0.208 0.128-0.336 0.192-2.672 1.152-5.2 2.8-7.392 4.992-2.192 2.176-3.824 4.72-4.992 7.392-0.048 0.112-0.128 0.208-0.176 0.336z" />
<glyph unicode="&#xe97c;" d="M-1808 5232h6000v-12608h-6000v12608z" />
<glyph unicode="&#xe97d;" d="M832 448c0-176.731-143.269-320-320-320s-320 143.269-320 320c0 176.731 143.269 320 320 320s320-143.269 320-320z" />
<glyph unicode="&#xe97e;" d="M532.112 505.2c0.224 5.68-2.176 11.2-6.48 14.816-5.296 3.84-11.712 5.728-18.192 5.296h-22.656v-51.088c12.544-0.912 25.104 0.976 36.768 5.632 6.992 4.016 10.56 12.368 10.56 25.344zM523.52 425.072c-12.624 3.744-25.616 6-38.784 6.672v-61.216c13.376-0.544 26.736 1.008 39.584 4.704 9.072 3.088 13.568 11.616 13.568 25.552 1.536 10.608-4.448 20.752-14.368 24.288zM587.072 346.192c-7.952-6.4-17.248-10.88-27.168-13.152-2.448-0.672-4.128-2.88-4.176-5.408v-18.016c0-3.088-2.48-5.616-5.52-5.616h-30.736c-1.472 0-2.848 0.608-3.92 1.68-1.056 1.104-1.632 2.496-1.632 4v18.64h-24.336c-3.872 0-7.024-3.184-7.024-7.136v-11.504c0-3.104-2.464-5.616-5.504-5.616h-30.704c-3.088 0-5.52 2.544-5.52 5.616v12.688c0 3.152-2.432 5.696-5.52 5.744h-13.696c-1.472-0.048-2.896 0.544-3.968 1.616-1.056 1.088-1.648 2.496-1.648 4.064v228.368c0 1.504 0.592 2.992 1.648 4.048 1.072 1.104 2.496 1.632 3.968 1.632h13.696c3.088 0.048 5.52 2.608 5.52 5.728v12.752c0 3.136 2.496 5.632 5.52 5.632h30.704c3.072 0 5.504-2.544 5.504-5.632v-12.752c0-3.12 2.448-5.68 5.536-5.728h25.776v18.544c0 3.104 2.464 5.616 5.52 5.616h30.704c3.040 0 5.52-2.512 5.52-5.616v-19.36c0-2.56 1.696-4.736 4.144-5.424 5.76-1.616 11.408-3.648 16.848-6.128 17.872-7.2 29.216-25.248 28.128-44.816 0.624-11.232-2.24-22.432-8.288-31.936-4.608-6.912-10.816-12.528-18.064-16.48-2.608-1.2-5.312-2.272-8.080-3.072-2.352-0.768-4.656-1.296-7.104-1.616 12.832-4.336 24.56-11.616 34.16-21.296 7.776-10.768 11.504-23.968 10.448-37.248 1.536-20.048-6.144-39.456-20.736-52.816z" />
<glyph unicode="&#xe97f;" glyph-name="otc-01" d="M512-19.988c-251.331 0-455.793 204.462-455.793 455.793s204.462 455.782 455.793 455.782 455.793-204.462 455.793-455.793-204.462-455.782-455.793-455.782zM512 846.029c-226.202 0-410.225-184.023-410.225-410.225s184.023-410.225 410.225-410.225 410.225 184.023 410.225 410.225-184.023 410.225-410.225 410.225zM307.743 549.1c-65.7-3.348-100.219-39.465-103.537-108.319 2.642-67.553 36.495-102.973 101.55-106.332 67.031 2.017 101.54 37.775 103.537 107.336-4.659 67.523-38.502 103.301-101.55 107.315zM304.763 362.537c-41.82 3.338-63.713 29.409-65.71 78.244 2.652 48.804 25.221 74.875 67.697 78.234 41.144-4.004 63.365-30.095 66.703-78.234-1.341-50.166-24.238-76.237-68.69-78.244zM600.433 545.085h-172.227c-8.397 0-15.217-6.738-15.217-15.043s6.81-15.043 15.217-15.043h69.693v-177.541h0.481c0.865-8.431 7.922-14.955 16.505-14.971h0.002c8.704 0 15.606 6.605 16.507 14.971h0.348v177.551h68.69c8.397 0 15.217 6.738 15.217 15.043-0.058 8.315-6.812 15.033-15.134 15.033-0.029 0-0.058 0-0.087 0h0.004zM819.794 407.552c0.416 1.461 0.655 3.14 0.655 4.874 0 10.197-8.266 18.463-18.463 18.463-10.15 0-18.386-8.19-18.462-18.322v-0.007l-0.563 0.133c-7.311-33.444-26.563-49.818-57.743-49.152-39.168 1.331-59.085 27.075-59.73 77.24 1.987 49.469 22.559 75.223 61.716 77.23 25.887-1.352 43.459-14.715 52.767-40.12l0.195 0.051c2.567-7.293 9.391-12.429 17.417-12.442h0.002c10.23 0.009 18.519 8.304 18.519 18.534 0 1.364-0.147 2.693-0.427 3.973l0.022-0.123 0.123 0.031c-0.113 0.266-0.256 0.492-0.369 0.758-0.649 2.455-1.714 4.6-3.126 6.467l0.033-0.046c-17.009 35.236-44.626 53.381-83.159 54.006-65.055-1.997-98.232-38.113-99.553-108.319 1.321-69.55 33.505-104.991 96.563-106.332 50.422-0.655 81.633 22.405 93.573 69.222l-0.379 0.092c0.243 1.137 0.385 2.445 0.389 3.785v0.003z" />
<glyph unicode="&#xe980;" horiz-adv-x="1996" d="M-86.78 4165.062h2169.492v-7758.102h-2169.492v7758.102z" />
<glyph unicode="&#xe981;" horiz-adv-x="1996" d="M44.499 960h1906.935c15.473 0 21.084-1.611 26.741-4.636s10.096-7.465 13.121-13.121c3.025-5.657 4.636-11.268 4.636-26.741v-935.003c0-15.473-1.611-21.084-4.636-26.741s-7.465-10.096-13.121-13.121c-5.657-3.025-11.268-4.636-26.741-4.636h-1906.935c-15.473 0-21.084 1.611-26.741 4.636s-10.096 7.465-13.121 13.121c-3.025 5.657-4.636 11.268-4.636 26.741v935.003c0 15.473 1.611 21.084 4.636 26.741s7.465 10.096 13.121 13.121c5.657 3.025 11.268 4.636 26.741 4.636z" />
<glyph unicode="&#xe982;" horiz-adv-x="1996" d="M2591.819 737.266c0-359.453-291.394-650.847-650.847-650.847s-650.847 291.394-650.847 650.847c0 359.453 291.394 650.847 650.847 650.847s650.847-291.394 650.847-650.847z" />
<glyph unicode="&#xe983;" horiz-adv-x="1996" d="M1316.158 25.672c0-28.756-23.312-52.068-52.068-52.068s-52.068 23.312-52.068 52.068c0 28.756 23.312 52.068 52.068 52.068s52.068-23.312 52.068-52.068z" />
<glyph unicode="&#xe984;" horiz-adv-x="1996" d="M549.605-66.893c0-170.94-138.574-309.514-309.514-309.514s-309.514 138.574-309.514 309.514c0 170.94 138.574 309.514 309.514 309.514s309.514-138.574 309.514-309.514z" />
<glyph unicode="&#xe985;" horiz-adv-x="1996" d="M543.819 1012.068c0-169.342-137.279-306.621-306.621-306.621s-306.621 137.279-306.621 306.621c0 169.342 137.279 306.621 306.621 306.621s306.621-137.279 306.621-306.621z" />
<glyph unicode="&#xe986;" horiz-adv-x="256" d="M-1920 26240h24000v-50432h-24000v50432z" />
<glyph unicode="&#xe987;" horiz-adv-x="256" d="M128 960c70.692 0 128-57.308 128-128v-768c0-70.692-57.308-128-128-128s-128 57.308-128 128v768c0 70.692 57.308 128 128 128z" />
<glyph unicode="&#xe988;" horiz-adv-x="3976" d="M-54.468 4674.723h4085.106v-7266.043h-4085.106v7266.043z" />
<glyph unicode="&#xe989;" horiz-adv-x="3976" d="M174.298 851.064h3627.574c36.098 0 65.362-29.263 65.362-65.362v-675.404c0-36.098-29.263-65.362-65.362-65.362h-3627.574c-36.098 0-65.362 29.263-65.362 65.362v675.404c0 36.098 29.263 65.362 65.362 65.362z" />
<glyph unicode="&#xe98a;" horiz-adv-x="3976" d="M174.298 851.064h3627.574c36.098 0 65.362-29.263 65.362-65.362v-675.404c0-36.098-29.263-65.362-65.362-65.362h-3627.574c-36.098 0-65.362 29.263-65.362 65.362v675.404c0 36.098 29.263 65.362 65.362 65.362z" />
<glyph unicode="&#xe98b;" glyph-name="search-close" d="M521.694 510.703l-410.283 410.283c-9.325 9.654-22.384 15.648-36.844 15.648-28.277 0-51.2-22.923-51.2-51.2 0-14.443 5.98-27.489 15.599-36.797l0.014-0.013 410.283-410.317-410.283-410.317c-9.644-9.323-15.631-22.376-15.631-36.828 0-28.277 22.923-51.2 51.2-51.2 14.451 0 27.504 5.987 36.814 15.616l410.331 410.297 410.317-410.283c9.354-9.878 22.562-16.026 37.205-16.026 28.277 0 51.2 22.923 51.2 51.2 0 14.635-6.14 27.836-15.985 37.167l-0.023 0.022-410.283 410.351 410.283 410.283c9.644 9.323 15.631 22.376 15.631 36.828 0 28.277-22.923 51.2-51.2 51.2-14.451 0-27.504-5.987-36.814-15.616l-410.297-410.297z" />
<glyph unicode="&#xe98c;" d="M512 960c282.757 0 512-229.243 512-512s-229.253-512-512-512-512 229.181-512 512 229.212 512 512 512z" />
<glyph unicode="&#xe98d;" d="M575.191 516.219v76.165h174.172v116.050h-474.276v-116.050h174.193v-76.104c-141.568-6.502-248.013-34.54-248.013-68.127s106.496-61.624 248.013-68.168v-243.968h125.952v243.988c141.312 6.523 247.542 34.54 247.542 68.096s-106.23 61.573-247.542 68.096zM575.232 400.671v0.061c-3.553-0.225-21.811-1.321-62.464-1.321-32.502 0-55.368 0.922-63.427 1.341v-0.102c-125.071 5.54-218.429 27.32-218.429 53.381s93.368 47.811 218.429 53.361v-85.043c8.192-0.563 31.621-1.946 63.959-1.946 38.84 0 58.368 1.618 61.952 1.946v85.043c124.826-5.56 217.969-27.361 217.969-53.33s-93.184-47.78-217.969-53.34z" />
<glyph unicode="&#xe98e;" horiz-adv-x="975" d="M-1804.19 37482.667h18285.714v-38424.381h-18285.714v38424.381z" />
<glyph unicode="&#xe98f;" horiz-adv-x="975" d="M-1804.19 1399.832h18285.714v-2341.547h-18285.714v2341.547z" />
<glyph unicode="&#xe990;" horiz-adv-x="975" d="M899.365 921.966h-736.847c-89.722 0-162.54-65.487-162.54-146.286s72.818-146.286 162.54-146.286h736.847c14.954 0 27.090 10.923 27.090 24.381v243.81c0 13.458-12.136 24.381-27.090 24.381zM818.095 824.442v-97.524h-655.577c-29.853 0-54.18 21.894-54.18 48.762s24.327 48.762 54.18 48.762h655.577z" />
<glyph unicode="&#xe991;" horiz-adv-x="975" d="M939.897 726.918h-904.533c-19.559 0-35.379-16.273-35.379-36.335v-576.672c0-92.341 72.818-167.184 162.54-167.184h650.159c89.83 0 162.54 74.843 162.54 167.184v576.672c0 20.062-15.821 36.335-35.325 36.335z" />
<glyph unicode="&#xe992;" horiz-adv-x="975" d="M585.143 312.442c0 40.448 32.695 73.143 73.143 73.143s73.143-32.695 73.143-73.143c0-40.448-32.695-73.143-73.143-73.143s-73.143 32.695-73.143 73.143zM661.769 434.347c-69.214 0-125.388-54.613-125.388-121.905s56.174-121.905 125.388-121.905h264.707c0 48.762 0 195.048 0 243.81h-264.707z" />
<glyph unicode="&#xe993;" horiz-adv-x="975" d="M899.365 921.966h-736.847c-89.722 0-162.54-65.912-162.54-147.235s72.818-147.235 162.54-147.235h736.847c14.954 0 27.090 10.994 27.090 24.539v245.391c0 13.546-12.136 24.539-27.090 24.539zM818.095 823.809v-98.156h-655.577c-29.853 0-54.18 22.036-54.18 49.078s24.327 49.078 54.18 49.078h655.577z" />
<glyph unicode="&#xe994;" horiz-adv-x="975" d="M939.897 725.653h-904.533c-19.559 0-35.379-16.378-35.379-36.57v-580.413c0-92.94 72.818-168.268 162.54-168.268h650.159c89.83 0 162.54 75.328 162.54 168.268v580.413c0 20.192-15.821 36.57-35.325 36.57z" />
<glyph unicode="&#xe995;" horiz-adv-x="975" d="M585.143 308.488c0 40.71 32.695 73.617 73.143 73.617s73.143-32.907 73.143-73.617c0-40.71-32.695-73.617-73.143-73.617s-73.143 32.907-73.143 73.617zM661.769 431.184c-69.214 0-125.388-54.968-125.388-122.695s56.174-122.695 125.388-122.695h264.707c0 49.078 0 196.313 0 245.391h-264.707z" />
<glyph unicode="&#xe996;" glyph-name="24" d="M780.8 166.4h-537.6c-21.171 0-38.4 17.229-38.4 38.4v691.2c0 21.171 17.229 38.4 38.4 38.4h537.6c21.171 0 38.4-17.229 38.4-38.4v-473.6h-25.6v473.6c0 7.053-5.747 12.8-12.8 12.8h-537.6c-7.053 0-12.8-5.747-12.8-12.8v-691.2c0-7.053 5.747-12.8 12.8-12.8h537.6c7.053 0 12.8 5.747 12.8 12.8v140.8h25.6v-140.8c0-21.171-17.229-38.4-38.4-38.4zM793.6 396.8h25.6v-25.6h-25.6zM729.6 230.4h-435.2c-7.069 0-12.8 5.731-12.8 12.8v0 614.4c0 7.069 5.731 12.8 12.8 12.8v0h435.2c7.069 0 12.8-5.731 12.8-12.8v0-614.4c0-7.069-5.731-12.8-12.8-12.8v0zM307.2 256h409.6v588.8h-409.6v-588.8zM243.2 844.8h-51.2c-7.069 0-12.8 5.731-12.8 12.8s5.731 12.8 12.8 12.8v0h51.2c7.069 0 12.8-5.731 12.8-12.8s-5.731-12.8-12.8-12.8v0zM243.2 742.4h-51.2c-7.069 0-12.8 5.731-12.8 12.8s5.731 12.8 12.8 12.8h51.2c7.069 0 12.8-5.731 12.8-12.8s-5.731-12.8-12.8-12.8v0zM243.2 640h-51.2c-7.069 0-12.8 5.731-12.8 12.8s5.731 12.8 12.8 12.8h51.2c7.069 0 12.8-5.731 12.8-12.8s-5.731-12.8-12.8-12.8v0zM243.2 537.6h-51.2c-7.069 0-12.8 5.731-12.8 12.8s5.731 12.8 12.8 12.8h51.2c7.069 0 12.8-5.731 12.8-12.8s-5.731-12.8-12.8-12.8v0zM243.2 435.2h-51.2c-7.069 0-12.8 5.731-12.8 12.8s5.731 12.8 12.8 12.8h51.2c7.069 0 12.8-5.731 12.8-12.8s-5.731-12.8-12.8-12.8v0zM243.2 332.8h-51.2c-7.069 0-12.8 5.731-12.8 12.8s5.731 12.8 12.8 12.8h51.2c7.069 0 12.8-5.731 12.8-12.8s-5.731-12.8-12.8-12.8v0zM243.2 230.4h-51.2c-7.069 0-12.8 5.731-12.8 12.8s5.731 12.8 12.8 12.8h51.2c7.069 0 12.8-5.731 12.8-12.8s-5.731-12.8-12.8-12.8v0zM614.4 793.6h64v-25.6h-64zM563.2 793.6h25.6v-25.6h-25.6zM345.6 793.6h192v-25.6h-192zM345.6 678.4h332.8v-25.6h-332.8zM345.6 563.2h332.8v-25.6h-332.8zM345.6 448h332.8v-25.6h-332.8zM345.6 332.8h332.8v-25.6h-332.8z" />
<glyph unicode="&#xe997;" glyph-name="wallet-12" d="M236.373 426.667c0-153.173 124.16-277.333 277.333-277.333 145.92 0 265.813 112.64 276.48 256h-297.813v297.813c-143.36-10.667-256-130.56-256-276.48zM833.707 448v-21.333c0-176.64-143.36-320-320-320s-320 143.36-320 320 143.36 320 320 320h21.333v-298.667h298.667zM832.853 533.333h-212.48v212.48c112.64-10.24 202.24-99.84 212.48-212.48zM599.040 789.333h-21.333v-298.667h298.667v21.333c0 153.173-124.16 277.333-277.333 277.333z" />
<glyph unicode="&#xe998;" glyph-name="22" d="M972.8-5.12h-921.6c-15.36 0-25.6 10.24-25.6 25.6v629.76c0 12.8 10.24 25.6 25.6 25.6h921.6c15.36 0 25.6-10.24 25.6-25.6v-627.2c0-15.36-10.24-28.16-25.6-28.16zM125.44 94.72h775.68v481.28h-775.68v-481.28zM837.12 719.36h-650.24c-15.36 0-25.6 15.36-25.6 38.4s10.24 38.4 25.6 38.4h650.24c15.36 0 25.6-15.36 25.6-38.4s-10.24-38.4-25.6-38.4zM729.6 834.56h-435.2c-15.36 0-25.6 15.36-25.6 38.4s10.24 38.4 25.6 38.4h435.2c15.36 0 25.6-15.36 25.6-38.4s-12.8-38.4-25.6-38.4zM235.52 473.6h215.040c20.48 0 38.4-17.92 38.4-38.4v-43.52c0-20.48-17.92-38.4-38.4-38.4h-215.040c-20.48 0-38.4 17.92-38.4 38.4v43.52c0 20.48 15.36 38.4 38.4 38.4zM573.44 473.6h215.040c20.48 0 38.4-17.92 38.4-38.4v-43.52c0-20.48-17.92-38.4-38.4-38.4h-215.040c-20.48 0-38.4 17.92-38.4 38.4v43.52c0 20.48 17.92 38.4 38.4 38.4z" />
<glyph unicode="&#xe999;" glyph-name="21" d="M720.37 668.101h-425.82l-20.417-20.418v-291.203l21.174-18.9h424.312l30.249 19.657v290.446l-29.498 20.418zM719.618 389.763h-414.482v247.329h414.482v-247.329zM450.737 317.911h122.512v-39.332h-122.512zM411.405 258.916h201.187v-31.017h-201.187zM512.013 866.826c-231.323 0-418.831-187.521-418.831-418.826 0-231.307 187.508-418.826 418.831-418.826 231.315 0 418.806 187.52 418.806 418.826s-187.491 418.826-418.806 418.826zM512.012 47.031c-221.459 0-400.973 179.524-400.973 400.969 0 221.442 179.514 400.969 400.973 400.969 221.453 0 400.949-179.526 400.949-400.969s-179.496-400.969-400.949-400.969z" />
<glyph unicode="&#xe99a;" glyph-name="qrcode" d="M742.8 838.5c-2.3-0.3-4.7-0.1-7-0.1-38 0-76 0.1-114-0.1-11 0-21.9-1.4-32.4-5.1-18.6-6.5-29.8-19.5-34.4-38.4-1.7-7-2.4-14.1-2.4-21.3 0-67.2-0.1-134.3 0.1-201.5 0-13.8 0.9-27.6 6.2-40.8 6.9-17.1 19.7-27.2 37.3-31.7 6.3-1.6 12.8-2.2 19.3-2.2h218c8.3 0 16.6 0.7 24.8 2.3 24.4 4.5 40.4 20.7 44.9 45 0.4 2.2-0.4 5.2 2.9 6.2v232c-0.4 0.4-0.5 0.9-0.5 1.5-1.5 4.8-1.7 9.8-3.3 14.7-7.1 21-21.7 33.4-42.8 38.8-6.4 1.6-12.8 2.4-19.5 2.1-1.3-0.1-3-1-3.9 0.9h-89c-0.4-2.6-2.7-2.1-4.3-2.3zM841.5 797.8c4 0 8.1-0.9 11.9-2.1 6.9-2.2 10.7-7.6 10.7-15.1 0-74.8 0.1-149.6-0.1-224.4 0-11.2-8.6-18-21.1-18.1-38.2-0.3-76.3-0.1-114.5-0.1h-113c-4.5 0-8.6 1.3-12.7 2.7-8.5 3.1-9.6 10.5-9.7 17.9-0.2 37.5-0.1 75-0.1 112.5v105.5c0 6.5 1.5 12.5 6.9 17 4.6 3.8 10.3 4.3 15.6 4.3 75.4 0.1 150.8 0 226.1-0.1zM742 840c-39.5-0.1-79-0.1-118.4-0.1-9.4 0-18.6-1-27.7-3.1-11.6-2.7-22.1-7.7-30-16.7-10.6-12.1-14.8-26.9-14.8-42.6-0.2-69.6-0.2-139.3 0-208.9 0-9.1 0.7-18.3 2.8-27.2 2.8-11.7 7.6-22.5 16.7-30.5 11.7-10.3 25.9-15 41.5-15 74.1-0.1 148.3-0.1 222.4 0 9.3 0 18.7 0.5 27.7 3 19 5.4 33.6 15.9 40 35.8 1.7 5.3 1.8 10.9 3.8 16.1-3.2-1-2.5-4-2.9-6.2-4.5-24.4-20.5-40.5-44.9-45-8.2-1.5-16.5-2.3-24.8-2.3h-218c-6.5 0-13 0.6-19.3 2.2-17.5 4.5-30.4 14.6-37.3 31.7-5.3 13.1-6.2 27-6.2 40.8-0.2 67.2-0.1 134.3-0.1 201.5 0 7.2 0.7 14.3 2.4 21.3 4.6 18.9 15.8 31.9 34.4 38.4 10.5 3.7 21.4 5 32.4 5.1 38 0.2 76 0.1 114 0.1 2.3 0 4.7-0.2 7 0.1 1.7 0.2 3.9-0.2 4.2 2.4-1.2-2.1-3.2-0.9-4.9-0.9zM120.6 549.7c2-12.5 5.5-24.4 14.3-34 11.5-12.7 26.5-18 43-18.1 75.1-0.3 150.2-0.3 225.4 0 9.4 0 18.9 1 28.1 3.9 24.5 7.7 39.1 27.3 39.1 53.1 0 74 0 147.9 0.1 221.9 0 6.4-0.8 12.6-2.4 18.8-5.8 22.4-24.5 39.1-47.5 42.3-4.1 0.6-8.2 1.1-12.4 1.1-2 0-4.5-0.6-5.2 2.4h-89c-1.3-2.1-3.3-0.9-4.9-0.9-41.1-0.1-82.2 0.2-123.3-0.2-14.8-0.1-29.2-2.6-42.2-10.7-12.5-7.8-19.8-19.1-23.7-33-0.8-2.7-0.2-5.7-1.9-8.2v-233c2.9-0.9 2.2-3.5 2.5-5.4zM160.1 780.7c0 8.1 6.2 14.6 14.5 16.3 4.4 0.9 8.8 1 13.2 1h219c4.3 0 8.4-0.8 12.4-2 7.5-2.4 10.8-6.9 10.8-14.6v-225.5c0-8.2-3.8-13.3-11.6-15.9-4-1.3-8.1-2.1-12.4-2-37.2 0.1-74.3 0.1-111.5 0.1-37.7 0-75.3-0.1-113 0.1-6.3 0-12.6 0.9-17.3 6.1-2.7 3-4.1 6.3-4.1 10.1-0.1 75.3-0.1 150.8 0 226.3zM119 552.5c0.1-8.9 2.6-17.3 6.4-25.1 10.4-21.4 28.9-31 51.6-31.2 74.5-0.6 149-0.2 223.4-0.2 9.3 0 18.6 0.8 27.7 3 27.1 6.7 43.6 26.4 43.8 54.4 0.5 73.8 0.2 147.6 0.2 221.4 0 4.9 0 9.8-0.9 14.7-3 16.2-10.7 29.4-24.2 39-11 7.8-23.5 11-36.9 11.4-2.3 0.1-4.9-1.2-6.9 0.9 0.7-3 3.3-2.4 5.2-2.4 4.2 0 8.3-0.6 12.4-1.1 23-3.2 41.7-19.9 47.5-42.3 1.6-6.2 2.4-12.4 2.4-18.8-0.1-74 0-147.9-0.1-221.9 0-25.7-14.6-45.3-39.1-53.1-9.2-2.9-18.7-3.9-28.1-3.9-75.1-0.2-150.2-0.3-225.4 0-16.5 0.1-31.4 5.4-43 18.1-8.8 9.7-12.3 21.5-14.3 34-0.3 1.9 0.4 4.6-2.6 5.2 1.3-0.1 0.9-1.3 0.9-2.1zM191.8 77.3c2.1 0.3 4.3 0.1 6.5 0.1h206c8.4 0 16.6 1 24.7 3.1 25.5 6.6 41.4 26.9 41.5 53.2 0.1 25.3 0 50.7 0 76v148c0 32.3-21.4 56.2-53.6 59.7-11.4 1.2-22.9 1.7-34.4 2-34.5 0.7-69-0.5-103.4-1.3-33-0.8-66-0.2-98.9-0.7-11.5-0.2-22.6-2.7-32.7-8.1-13.6-7.2-21.9-18.5-25.7-33.4-0.7-2.8-0.1-6.5-3.7-8v-234c2-5.5 2.2-11.4 3.9-17.1 5.9-20.7 19.4-33.3 39.8-38.9 6.5-1.8 13.2-2.3 19.9-2.1 1.4 0 3.3 1.1 4.4-0.9h2c0.2 2.3 2.1 2.2 3.7 2.4zM180.4 117.9c-12.2 0-20.7 6.6-20.6 20.5 0.4 73.3 0.2 146.6 0.1 220 0 11.8 7 18.1 18.3 18.5 74.6 2.4 149.1 0.5 223.7 0.8 6.4 0 13.4 0.4 19.6-3 5.4-3 8.5-7.2 8.5-13.7-0.1-37.5 0-75 0-112.5 0-37.2-0.2-74.3 0.1-111.5 0.1-12.1-7.8-17.6-18.7-19.3-8.6-1.3-17 0-25.5 0.1-68.5 0.2-137 0.1-205.5 0.1zM193.5 75.8c67.8 0.1 135.7 0.1 203.5 0 9.4 0 18.7 0.2 28 2.1 12.5 2.5 23.8 7.8 32.5 17.1 9.7 10.4 14.5 23.4 14.5 37.6 0.2 74.3 0.1 148.7 0.1 223 0 6.3-0.4 12.4-2 18.5-5.3 19.9-17.3 33.7-36.7 41.3-13.3 5.2-27.3 5-41 5.3-23.1 0.5-46.2 0.9-69.3-0.5-19-1.2-38.2-0.3-57.3-1-27.6-0.9-55.3-0.3-83-0.2-6.4 0-12.7-0.6-19-2-18.4-4.2-32.5-13.8-40.6-31.3-2.6-5.7-2.8-12-5.2-17.7 3.7 1.5 3 5.2 3.7 8 3.8 14.9 12.2 26.2 25.7 33.4 10.2 5.4 21.2 7.9 32.7 8.1 33 0.5 65.9-0.1 98.9 0.7 34.5 0.8 68.9 2 103.4 1.3 11.5-0.2 23-0.7 34.4-2 32.2-3.5 53.5-27.4 53.6-59.7v-148c0-25.3 0.1-50.7 0-76-0.2-26.4-16-46.6-41.5-53.2-8.1-2.1-16.3-3.1-24.7-3.1h-206c-2.2 0-4.3 0.1-6.5-0.1-1.6-0.2-3.5 0-3.7-2.4 1.5 1.9 3.7 0.8 5.5 0.8zM143.6 829.1c13 8 27.4 10.6 42.2 10.7 41.1 0.4 82.2 0.1 123.3 0.2 1.6 0 3.6-1.2 4.9 0.9-1.7-1-3.6-0.5-5.4-0.5-44.8-0.3-89.6 0.8-134.4-0.6-18.9-0.6-34.9-8.1-46.5-23.6-6.3-8.4-9.1-18-9.7-28.3 1.8 2.4 1.2 5.4 1.9 8.2 4 13.9 11.2 25.2 23.7 33zM840 840c6.6 0.3 13.1-0.5 19.5-2.1 21-5.4 35.7-17.8 42.8-38.8 1.6-4.8 1.8-9.9 3.3-14.7v0.4c0.4 28.1-24.4 53.2-52.7 55.3-5.6 0.4-11.2-0.5-16.8 0.9 0.8-2.1 2.6-1.1 3.9-1zM181.6 75.8c-6.7-0.2-13.4 0.3-19.9 2.1-20.4 5.6-33.9 18.2-39.8 38.9-1.6 5.7-1.8 11.6-3.9 17.1 1.1-5.3 0.8-10.8 2.1-16.1 5.5-22.8 25.5-40.6 48.6-42 5.8-0.4 11.6 0.6 17.3-0.8-1.1 1.9-3 0.9-4.4 0.8zM608.4 292.8c-12.3-0.2-20.4-8.3-20.4-20v-171.8c0-12.3 8.5-20.1 20.8-19.9 12.9 0.2 21 6.9 21.1 19.7 0.2 57.4 0.1 114.9 0 172.3 0 12-8.4 19.9-21.5 19.7zM861.4 292.6c-9.9 1.8-23.3-4.9-23.3-18.2-0.2-29.2 0-58.3 0-87.5v-87c0-1.6-0.1-3.4 0.4-4.9 3.3-9.4 14.4-16.2 23.5-14 11.4 2.7 17.9 7.2 18 21.4 0.2 55.5 0.1 111 0.1 166.5-0.1 14.4-4.6 21.1-18.7 23.7zM768.7 232.7c-2.6 9.4-13 16.8-22.1 15.1-12.4-2.4-19.4-6.6-19.5-20.9-0.3-41.1-0.1-82.3-0.1-123.4 0-13.8 5.7-20 17.5-22.2 11.1-2.1 24.4 4.5 24.5 19.1v128c0 1.3 0 2.9-0.3 4.3zM741 415.2c-8.7-1.9-14-10.2-14-19.8v-88.4c0-13.1 4-21 18.1-23.7 10.3-1.9 24 5.2 23.9 18.5-0.1 15.8 0 31.6 0 47.5 0 15.3-0.2 30.6 0 46 0.3 19-14.6 22.8-28 19.9zM622 412.6c-4.9 3.4-10.1 3.3-15.4 3.3-10.5 0-18.5-7.9-18.5-18.3v-26c0-9-0.1-18 0-27 0.1-4.6 1.3-8.7 4.9-12.3 5.2-5.2 11.2-6.7 18.2-6.5 9.9 0.3 18.8 8.9 18.8 18.7 0.1 17.7 0.2 35.3-0.1 53 0 6.1-2.4 11.3-7.9 15.1zM878.3 404.1c-2.2 6.2-9.8 11.8-17.9 12-14.3 0.5-23.6-7.9-22.5-22.8 0.5-7 0.1-14 0.1-21v-25c0-1.5 0-3 0.4-4.4 3.2-10.3 12.9-15.5 23.9-14 11 1.6 17.4 8.4 17.6 19.7 0.3 15.8 0.1 31.7 0.1 47.5 0 2.9-0.8 5.5-1.7 8zM352 702.2c-1.9 7.3-7.9 12.7-15.4 13.7-1.3 0.2-2.7 0.4-4 0.4-0.6 0-1.5-0.2-1.7 0.8h-28.8c-0.4-0.7-1.1-0.3-1.6-0.3-13.3 0-26.6 0.1-39.9-0.1-4.8 0-9.5-0.9-13.7-3.5-4.1-2.5-6.4-6.2-7.7-10.7-0.2-0.9 0-1.9-0.6-2.6v-75.5c1-0.2 0.7-1.1 0.8-1.7 0.7-4.1 1.8-7.9 4.6-11 3.7-4.1 8.6-5.8 13.9-5.9 24.3-0.1 48.7-0.1 73 0 3.1 0 6.1 0.3 9.1 1.3 7.9 2.5 12.7 8.9 12.7 17.2v71.9c0.1 2-0.2 4-0.7 6zM785.5 709.9c-1.9 7.3-7.9 12.7-15.4 13.7-1.3 0.2-2.7 0.4-4 0.4-0.6 0-1.5-0.2-1.7 0.8h-28.8c-0.4-0.7-1.1-0.3-1.6-0.3-13.3 0-26.6 0.1-39.9-0.1-4.8 0-9.5-0.9-13.7-3.5-4.1-2.5-6.4-6.2-7.7-10.7-0.2-0.9 0-1.9-0.6-2.6v-75.5c1-0.2 0.7-1.1 0.8-1.7 0.7-4.1 1.8-7.9 4.6-11 3.7-4.1 8.6-5.8 13.9-5.9 24.3-0.1 48.7-0.1 73 0 3.1 0 6.1 0.3 9.1 1.3 7.9 2.5 12.7 8.9 12.7 17.2v71.9c0.2 2-0.2 4.1-0.7 6zM351.4 283.4c-1.9 7.3-7.9 12.7-15.4 13.7-1.3 0.2-2.7 0.4-4 0.4-0.6 0-1.5-0.2-1.7 0.8h-28.8c-0.4-0.7-1.1-0.3-1.6-0.3-13.3 0-26.6 0.1-39.9-0.1-4.8 0-9.5-0.9-13.7-3.5-4.1-2.5-6.4-6.2-7.7-10.7-0.2-0.9 0-1.9-0.6-2.6v-75.5c1-0.2 0.7-1.1 0.8-1.7 0.7-4.1 1.8-7.9 4.6-11 3.7-4.1 8.6-5.8 13.9-5.9 24.3-0.1 48.7-0.1 73 0 3.1 0 6.1 0.3 9.1 1.3 7.9 2.5 12.7 8.9 12.7 17.2v71.9c0.1 2-0.2 4-0.7 6z" />
<glyph unicode="&#xe99b;" glyph-name="find-1" d="M905.994 667.423c47.043 80.742 92.795 187.29 43.725 236.36-25.19 25.201-94.157 48.691-274.995-67.4-55.971 28.489-122.060 45.179-192.047 45.179-0.128 0-0.255 0-0.383 0h0.020c-239.073 0-433.562-194.488-433.562-433.562 0-0.087 0-0.19 0-0.293 0-71.798 17.566-139.493 48.634-199.022l-1.13 2.379-0.645 0.399c-55.194-89.293-109.967-206.735-57.467-259.236 14.94-14.95 35.205-21.105 58.46-21.105 53.105 0.010 121.754 32.113 177.91 64.819 9.411 5.478 18.995 11.356 28.652 17.398 52.525-24.566 114.049-38.902 178.922-38.902 0.080 0 0.16 0 0.24 0h-0.012c239.063 0 433.562 194.488 433.562 433.562 0 62.362-13.332 121.631-37.14 175.258 6.788 10.063 15.801 24.477 24.483 39.111l2.776 5.055zM920.75 874.824c17.92-17.92 14.152-76.39-50.145-186.778-4.301-7.393-8.847-14.889-13.517-22.446-35.627 60.353-83.323 109.957-140.098 146.738l-1.705 1.035c113.859 69.683 184.689 82.196 205.466 61.45zM482.314 840.602c152.218 0 284.385-87.132 349.501-214.098-59.853-88.73-141.65-186.143-235.95-280.443-99.635-99.645-202.721-185.262-295.404-245.842-125.153 65.71-210.749 196.905-210.749 347.781 0 216.484 176.118 392.602 392.602 392.602zM253.88 71.332c-110.387-64.307-168.878-68.055-186.778-50.145-17.766 17.766-13.742 78.080 52.204 190.177 36.726-55.606 84.111-101.189 139.569-134.78l1.947-1.095c-2.304-1.382-4.649-2.826-6.943-4.157zM874.916 448c0-216.484-176.118-392.602-392.602-392.602-48.476 0-94.894 8.888-137.8 25.027 89.272 60.959 186.429 142.797 280.31 236.687 88.658 88.658 166.625 180.255 226.376 265.349 15.021-39.874 23.716-85.964 23.716-134.085 0-0.132 0-0.264 0-0.396v0.020zM485.13 540.375c53.105 0 96.317 43.203 96.317 96.307 0 53.115-43.213 96.317-96.317 96.317s-96.307-43.203-96.307-96.317c0-53.105 43.203-96.307 96.307-96.307zM485.13 692.040c30.559-0.035 55.322-24.798 55.357-55.354v-0.003c-0.041-30.555-24.802-55.312-55.354-55.347h-0.003c-30.551 0.041-55.306 24.796-55.347 55.343v0.004c0.035 30.555 24.793 55.317 55.343 55.357h0.004zM372.961 311.081c42.271 0 76.657 34.386 76.657 76.657s-34.386 76.657-76.657 76.657-76.657-34.386-76.657-76.657 34.386-76.657 76.657-76.657zM372.961 423.444c19.681 0 35.697-16.005 35.697-35.697s-16.015-35.697-35.697-35.697-35.697 16.005-35.697 35.697 16.015 35.697 35.697 35.697zM670.126 168.356c34.898 0 63.304 28.385 63.304 63.293s-28.396 63.304-63.304 63.304-63.304-28.396-63.304-63.304 28.406-63.293 63.304-63.293zM670.126 253.993c12.319 0 22.344-10.025 22.344-22.344 0-12.308-10.025-22.333-22.344-22.333s-22.344 10.025-22.344 22.333c0.017 12.333 10.011 22.326 22.342 22.344h0.002z" />
<glyph unicode="&#xe99c;" glyph-name="house" d="M275.2 554.667c-21.333 0-39.467 5.333-54.4 16-22.4 16-30.933 38.4-23.467 58.667 5.333 13.867 17.067 21.333 22.4 24.533l2.133 1.067c6.4 4.267 12.8 9.6 19.2 13.867 5.333 4.267 11.733 8.533 17.067 12.8 7.467 5.333 13.867 10.667 21.333 17.067l221.867 170.667c11.733 8.533 27.733 8.533 39.467 0 32-23.467 62.933-46.933 94.933-70.4l59.733-43.733c25.6-19.2 52.267-38.4 78.933-58.667 2.133-2.133 7.467-5.333 13.867-8.533 33.067-20.267 58.667-38.4 64-64 3.2-17.067-4.267-36.267-20.267-48-17.067-12.8-42.667-18.133-59.733-18.133v0c-3.2 0-497.067-3.2-497.067-3.2zM521.6 803.2l-203.733-155.733c-6.4-5.333-13.867-10.667-20.267-16l-16-12.8c422.4 3.2 478.933 3.2 487.467 3.2-6.4 4.267-12.8 7.467-17.067 10.667-7.467 4.267-13.867 8.533-18.133 11.733-26.667 19.2-52.267 38.4-78.933 58.667l-59.733 43.733c-23.467 19.2-49.067 38.4-73.6 56.533zM280.533 228.267c-33.067 0-59.733 26.667-59.733 59.733v166.4c0 33.067 26.667 59.733 59.733 59.733s59.733-26.667 59.733-59.733v-166.4c0-33.067-26.667-59.733-59.733-59.733zM280.533 471.467c-9.6 0-17.067-7.467-17.067-17.067v-166.4c0-9.6 7.467-17.067 17.067-17.067s17.067 7.467 17.067 17.067v166.4c0 9.6-7.467 17.067-17.067 17.067zM445.867 228.267c-33.067 0-59.733 26.667-59.733 59.733v166.4c0 33.067 26.667 59.733 59.733 59.733s59.733-26.667 59.733-59.733v-166.4c0-33.067-26.667-59.733-59.733-59.733zM445.867 471.467c-9.6 0-17.067-7.467-17.067-17.067v-166.4c0-9.6 7.467-17.067 17.067-17.067s17.067 7.467 17.067 17.067v166.4c0 9.6-7.467 17.067-17.067 17.067zM608 228.267c-33.067 0-59.733 26.667-59.733 59.733v166.4c0 33.067 26.667 59.733 59.733 59.733s59.733-26.667 59.733-59.733v-166.4c-1.067-33.067-27.733-59.733-59.733-59.733zM608 471.467c-9.6 0-17.067-7.467-17.067-17.067v-166.4c0-9.6 7.467-17.067 17.067-17.067s17.067 7.467 17.067 17.067v166.4c-1.067 9.6-8.533 17.067-17.067 17.067zM764.8 228.267c-33.067 0-59.733 26.667-59.733 59.733v166.4c0 33.067 26.667 59.733 59.733 59.733s59.733-26.667 59.733-59.733v-166.4c-1.067-33.067-27.733-59.733-59.733-59.733zM764.8 471.467c-9.6 0-17.067-7.467-17.067-17.067v-166.4c0-9.6 7.467-17.067 17.067-17.067s17.067 7.467 17.067 17.067v166.4c-1.067 9.6-8.533 17.067-17.067 17.067zM810.667 30.933h-576c-39.47 0-71.467 31.997-71.467 71.467s31.997 71.467 71.467 71.467v0h576c39.47 0 71.467-31.997 71.467-71.467s-31.997-71.467-71.467-71.467v0zM234.667 130.133c-16 0-28.8-12.8-28.8-28.8s12.8-28.8 28.8-28.8h576c16 0 28.8 12.8 28.8 28.8s-12.8 28.8-28.8 28.8h-576z" />
<glyph unicode="&#xe99d;" glyph-name="-1" horiz-adv-x="1170" d="M36.571 886.857h1097.143c20.195 0.003 36.565 16.376 36.565 36.571s-16.37 36.568-36.565 36.571h-1097.143c-20.195-0.003-36.565-16.376-36.565-36.571s16.37-36.568 36.565-36.571v0zM1133.714 488.96h-1097.143c-20.195-0.003-36.565-16.376-36.565-36.571s16.37-36.568 36.565-36.571h1097.143c20.195 0.003 36.565 16.376 36.565 36.571s-16.37 36.568-36.565 36.571v0zM1133.714 9.143h-1097.143c-20.195-0.003-36.565-16.376-36.565-36.571s16.37-36.568 36.565-36.571h1097.143c20.195 0.003 36.565 16.376 36.565 36.571s-16.37 36.568-36.565 36.571v0z" />
<glyph unicode="&#xe99e;" glyph-name="2" d="M487.104 472.96h-487.104v487.040h487.040v-487.040zM107.072 580.032h272.896v272.896h-272.896v-272.896zM487.104-60.608h-487.104v487.040h487.040v-487.040zM107.072 46.528h272.896v272.832h-272.896v-272.832zM786.88 942.72l228.48-234.24-234.176-228.416-228.48 234.24zM1018.944-64h-487.104v487.040h487.104v-487.040zM638.848 43.072h273.024v272.96h-273.024v-272.96z" />
<glyph unicode="&#xe99f;" glyph-name="3" d="M894.7 706.3h-176v103.3c0 38-30.9 68.9-68.9 68.9h-275.6c-38 0-68.9-30.9-68.9-68.9v-103.3h-176c-35.9 0-65.1-30.9-65.1-68.9v-551c0-38 29.2-68.9 65.1-68.9h765.3c35.9 0 65.1 30.9 65.1 68.9v551c0 38-29.2 68.9-65 68.9zM374.2 809.6h275.5l-0.1-103.3h-275.4v103.3zM374.2 637.4h516.6l-0.1-241.1h-206.6v137.5c0 18.9-15.5 34.4-34.4 34.4s-34.4-15.5-34.4-34.4v-137.4h-206.6v137.7c0 18.9-15.5 34.4-34.4 34.4s-34.4-15.5-34.4-34.4v-137.8h-206.6l0.1 241.1h240.8zM133.2 86.4l0.1 241.1h206.5v-137.8c0-18.9 15.5-34.4 34.4-34.4s34.4 15.5 34.4 34.4v137.8h206.5v-138.1c0-18.9 15.5-34.4 34.4-34.4s34.4 15.5 34.4 34.4v138.1h206.5l-0.1-241.1h-757.1z" />
<glyph unicode="&#xe9a0;" glyph-name="6" d="M273.067 161.28h-116.053c-6.827 0-13.653 6.827-13.653 13.653v213.902c0 6.827 6.827 13.653 13.653 13.653h116.053c6.827 0 13.653-6.827 13.653-13.653v-213.902c0-6.827-4.551-13.653-13.653-13.653zM468.764 161.28h-118.329c-6.827 0-13.653 6.827-13.653 13.653v496.071c0 6.827 6.827 13.653 13.653 13.653h118.329c6.827 0 13.653-6.827 13.653-13.653v-496.071c0-6.827-6.827-13.653-13.653-13.653zM664.462 161.28h-118.329c-6.827 0-13.653 6.827-13.653 13.653v357.262c0 6.827 6.827 13.653 13.653 13.653h118.329c6.827 0 13.653-6.827 13.653-13.653v-357.262c0-6.827-6.827-13.653-13.653-13.653zM860.16 161.28h-118.329c-6.827 0-13.653 6.827-13.653 13.653v634.88c0 6.827 6.827 13.653 13.653 13.653h118.329c6.827 0 13.653-6.827 13.653-13.653v-634.88c0-6.827-6.827-13.653-13.653-13.653zM880.64 61.156h-746.382c-6.827 0-13.653 6.827-13.653 13.653v27.307c0 6.827 6.827 13.653 13.653 13.653h746.382c6.827 0 13.653-6.827 13.653-13.653v-29.582c0-6.827-4.551-11.378-13.653-11.378z" />
<glyph unicode="&#xe9a1;" glyph-name="7" d="M512 875.527c223.010 0 406.194-183.186 406.194-406.194s-183.186-406.194-406.194-406.194c-223.010 0-406.194 183.186-406.194 406.194 0 223.010 183.186 406.194 406.194 406.194zM512 919.333c-248.894 0-450-201.106-450-450s201.106-450 450-450c248.894 0 450 201.106 450 450s-201.106 450-450 450v0zM543.858 319.996c-17.92-17.92-41.814-33.849-49.778-39.823 3.982 21.902 23.894 71.682 49.778 157.3 25.884 87.61 27.877 101.549 27.877 109.513 0 11.947-3.983 23.894-13.938 31.858-21.903 17.92-57.743 13.938-103.539-11.947-23.894-13.938-49.778-35.841-79.645-69.69l-15.929-15.929 51.771-39.823 11.947 13.938c13.938 11.947 45.796 39.823 51.771 45.796-39.823-129.425-79.645-226.99-79.645-262.832 0-15.929 5.973-29.867 13.938-39.823 9.955-9.955 23.894-15.929 39.823-15.929 13.938 0 31.859 5.973 53.761 17.92 17.92 11.947 45.796 33.849 85.62 71.682l15.929 15.929-45.796 45.796-13.938-13.938zM504.035 742.121c-9.955-11.947-15.929-27.877-15.929-45.796 0-15.929 3.982-27.877 13.938-37.832s21.903-15.929 35.841-15.929c11.947 0 27.877 3.982 43.806 21.902 11.947 11.947 17.92 27.877 17.92 45.796 0 13.938-3.983 27.877-13.938 37.832-19.912 19.912-57.743 17.92-81.637-5.973v0z" />
<glyph unicode="&#xe9a2;" glyph-name="8" d="M533.333 106.667h-256c-35.345 0-64 28.655-64 64v298.667c0 35.345 28.655 64 64 64v42.667c-58.91 0-106.667-47.761-106.667-106.667v-298.667c0-58.91 47.757-106.667 106.667-106.667h256v42.667zM341.333 789.333c-23.565 0-42.667-19.102-42.667-42.667v-597.333c0-23.565 19.102-42.667 42.667-42.667h426.667c23.565 0 42.667 19.102 42.667 42.667v597.333c0 23.565-19.102 42.667-42.667 42.667h-426.667zM341.333 832h426.667c47.13 0 85.333-38.204 85.333-85.333v-597.333c0-47.13-38.204-85.333-85.333-85.333h-426.667c-47.13 0-85.333 38.204-85.333 85.333v597.333c0 47.13 38.204 85.333 85.333 85.333zM598.814 430.464h65.566c0.118 0.003 0.256 0.004 0.395 0.004 10.1 0 18.287-8.187 18.287-18.287s-8.187-18.287-18.287-18.287c-0.139 0-0.277 0.002-0.416 0.005h-91.405v-36.574h91.426c0.083 0.001 0.181 0.002 0.279 0.002 10.1 0 18.287-8.187 18.287-18.287s-8.187-18.287-18.287-18.287c-0.098 0-0.196 0.001-0.294 0.002h-91.411v-76.8c0-10.1-8.187-18.287-18.287-18.287s-18.287 8.187-18.287 18.287v0 76.8h-91.426c-0.118-0.003-0.256-0.004-0.395-0.004-10.1 0-18.287 8.187-18.287 18.287s8.187 18.287 18.287 18.287c0.139 0 0.277-0.002 0.416-0.005h91.405v36.574h-91.426c-10.1 0-18.287 8.187-18.287 18.287s8.187 18.287 18.287 18.287v0h64.465l-33.25 33.25c-3.472 3.334-5.629 8.014-5.629 13.198 0 10.1 8.187 18.287 18.287 18.287 5.184 0 9.864-2.157 13.192-5.623l52.098-52.089 52.087 52.087c3.334 3.472 8.014 5.629 13.198 5.629 10.1 0 18.287-8.187 18.287-18.287 0-5.184-2.157-9.864-5.623-13.192l-33.252-33.26zM293.116 781.833l227.004-145.562c9.768-6.35 21.717-10.125 34.547-10.125s24.78 3.776 34.796 10.277l-0.249-0.151 226.999 145.562 23.031-35.921-227.004-145.557c-16.279-10.583-36.194-16.875-57.579-16.875s-41.299 6.293-57.994 17.128l0.415-0.252-226.999 145.557 23.031 35.921z" />
<glyph unicode="&#xe9a3;" glyph-name="rocket" d="M528.032 733.235l0.083 0.077c105.523 105.536 252.269 143.066 382.72 111.2 31.872-130.458-5.664-277.197-111.194-382.726-1.459-1.459-2.925-2.906-4.403-4.339l-58.035-58.042 47.981-84.768c6.266-10.878 9.963-23.922 9.963-37.829 0-16.411-5.147-31.619-13.915-44.099l0.163 0.245-126.272-181.549c-24.211-34.816-72.077-43.411-106.899-19.2-1.479 1.033-2.688 1.939-3.868 2.878l0.156-0.12 0.326 0.41c-11.815 7.479-19.545 20.478-19.545 35.283 0 7.014 1.735 13.623 4.799 19.421l-0.109-0.227c0.193-0.074 0.163-0.061 0.134-0.048l-0.223 0.087c24.998 42.675 28.013 98.496 11.046 155.456-61.984-13.824-129.485 3.392-177.715 51.616-48.218 48.218-65.427 115.699-51.629 177.67-56.928 16.947-112.723 13.926-155.379-11.059-0.101 0.257-0.114 0.286-0.127 0.316l0.089-0.226c-5.572-2.956-12.182-4.692-19.197-4.692-14.803 0-27.801 7.728-35.179 19.37l-0.101 0.17-0.358-0.282c-23.411 30.131-21.28 73.683 6.4 101.363 3.145 3.146 6.562 6.021 10.213 8.586l0.245 0.163 181.651 126.336c12.235 8.604 27.443 13.751 43.853 13.751 13.843 0 26.831-3.662 38.047-10.071l-0.377 0.198 84.403-47.514 60.365 60.365c0.621 0.627 1.254 1.235 1.888 1.83zM266.528 354.374c17.875-45.997 37.286-79.462 58.227-100.403 20.512-20.512 52.096-38.611 94.758-54.291 7.403-2.777 12.577-9.795 12.577-18.022 0-6.26-2.996-11.821-7.633-15.326l-0.048-0.035-72.858-54.637c-3.168-2.396-7.174-3.837-11.517-3.837-10.604 0-19.2 8.596-19.2 19.2 0 1.587 0.192 3.128 0.555 4.603l-0.027-0.132 3.181 13.274c0.336 1.345 0.529 2.888 0.529 4.477 0 10.604-8.596 19.2-19.2 19.2-3.376 0-6.549-0.872-9.306-2.402l0.098 0.050-64.262-35.123c-2.656-1.478-5.826-2.348-9.2-2.348-10.604 0-19.2 8.596-19.2 19.2 0 3.372 0.869 6.54 2.395 9.294l-0.050-0.098 37.478 68.582c1.482 2.659 2.354 5.833 2.354 9.211 0 10.604-8.596 19.2-19.2 19.2-0.959 0-1.902-0.070-2.823-0.206l0.104 0.013-32.326-4.627c-0.818-0.123-1.761-0.194-2.721-0.194-10.604 0-19.2 8.596-19.2 19.2 0 4.345 1.443 8.353 3.876 11.57l-0.035-0.048 59.411 79.219c3.54 4.684 9.1 7.679 15.359 7.679 8.101 0 15.030-5.017 17.85-12.113l0.045-0.13zM621.203 554.88c29.99-29.997 78.618-29.997 108.608 0 29.997 29.984 29.997 78.611 0 108.608-29.99 29.99-78.618 29.99-108.608 0-29.99-29.997-29.99-78.624 0-108.608z" />
<glyph unicode="&#xe9a4;" glyph-name="down" d="M454.188 174.978c-145.192 150.177-290.378 300.353-435.422 450.526-59.842 61.836 37.327 154.021 97.313 91.899 129.23-133.647 258.318-267.296 387.548-400.868 133.646 134.287 267.436 268.574 401.083 402.934 60.84 61.123 158.011-31.060 97.244-91.971-150.105-150.89-300.279-301.703-450.454-452.521-24.933-24.934-72.666-25.575-97.311 0z" />
<glyph unicode="&#xe9a5;" glyph-name="up" d="M910.222 163.556c-17.067 0-34.133 5.689-45.511 17.067l-312.889 369.778c-11.378 5.689-17.067 11.378-34.133 11.378-5.689 0-22.756-5.689-28.444-11.378l-329.956-364.089c-22.756-22.756-56.889-22.756-79.644-5.689-22.756 22.756-22.756 56.889-5.689 79.644l329.956 364.089c28.444 34.133 73.956 51.2 119.467 51.2s85.333-22.756 119.467-56.889l312.889-364.089c22.756-22.756 17.067-56.889-5.689-79.644-11.378-5.689-28.444-11.378-39.822-11.378z" />
<glyph unicode="&#xe9a6;" glyph-name="toright" d="M312.889-35.556c-17.067 0-28.444 5.689-39.822 17.067-22.756 22.756-17.067 56.889 5.689 79.644l364.089 329.956c11.378 11.378 17.067 22.756 17.067 34.133s-5.689 22.756-17.067 34.133l-369.778 312.889c-22.756 22.756-28.444 56.889-5.689 79.644s56.889 28.444 79.644 5.689l364.089-312.889c34.133-28.444 56.889-73.956 56.889-119.467s-17.067-85.333-51.2-119.467l-364.089-329.956c-11.378-5.689-28.444-11.378-39.822-11.378z" />
<glyph unicode="&#xe9a7;" glyph-name="right-1" d="M341.957 0.645c-12.894 0-25.843 4.426-36.387 13.468-23.493 20.106-26.224 55.426-6.064 78.892l304.423 355.206-304.423 355.207c-20.16 23.465-17.428 58.787 6.064 78.892 23.438 20.024 58.787 17.374 78.838-6.064l335.675-391.62c17.974-20.952 17.974-51.875 0-72.828l-335.675-391.62c-11.036-12.895-26.716-19.532-42.451-19.532z" />
<glyph unicode="&#xe9a8;" glyph-name="11" d="M227.874 491.11l-46.148 50.313 262.007 240.162v-674.918h-68.267v519.748l-147.593-135.305zM796.126 404.89l46.148-50.313-262.007-240.162v674.918h68.267v-519.748l147.593 135.305z" />
<glyph unicode="&#xe9a9;" glyph-name="81" d="M508.258 897.838c-251.137 0-454.765-203.622-454.765-454.765s203.622-454.765 454.765-454.765 454.765 203.622 454.765 454.765c0 251.137-203.622 454.765-454.765 454.765zM546.37 190.891v-85.107h-81.972v78.317c-55.344 2.61-109.121 18.274-140.449 35.503l24.54 96.59c34.462-18.8 83.538-36.549 137.317-36.549 48.031 0 79.886 18.8 79.886 51.166 0 31.327-26.627 51.166-88.237 72.052-88.237 29.763-148.804 71.010-148.804 151.413 0 73.618 51.166 130.529 139.405 147.236v78.317h80.931v-72.574c54.302-1.566 91.892-14.097 120.609-27.148l-24.54-93.457c-20.885 9.921-59.523 29.235-119.041 29.235-53.776 0-71.010-24.017-71.010-46.989 0-26.627 28.714-44.902 100.249-69.964 98.157-34.983 137.317-80.406 137.317-155.59 0-73.618-51.166-136.799-146.19-152.459z" />
<glyph unicode="&#xe9aa;" glyph-name="wallet-1" d="M883.1 838.9h-171.1c-7.4 72-66.9 119.7-153.8 119.7h-427.7c-54.9 0-99.9-62.3-106.8-119.7h-1v-770.7c0-72.9 59.3-132.2 132.2-132.2h735.8c63.3 0 114.7 51.5 114.7 114.7v666c-0.1 67.3-54.9 122.2-122.3 122.2zM130.5 928.7h427.8c53.8 0 115.2-24.3 123.6-89.8h-627.9c6.8 42.7 40.6 89.8 76.5 89.8zM975.4 210.4h-419c-74.3 0-134.7 60.4-134.7 134.7v67.3c0 78.4 63.8 142.2 142.2 142.2h411.5v-344.2zM975.4 584.5h-411.6c-94.9 0-172.1-77.2-172.1-172.1v-67.4c0-90.8 73.9-164.6 164.6-164.6h419v-129.7c0-46.8-38-84.8-84.8-84.8h-735.7c-56.4 0-102.2 45.9-102.2 102.3v740.8h830.6c50.9 0 92.3-41.4 92.3-92.3v-132.2zM167.3 629.4h29.9v-389.1h-29.9zM167.3 158h29.9v-29.9h-29.9zM507.7 370c0-46.1 37.5-83.6 83.6-83.6s83.5 37.5 83.5 83.6c0 46.1-37.5 83.5-83.5 83.5s-83.6-37.5-83.6-83.5zM591.3 431.1c33.7 0 61.1-27.4 61.1-61.1s-27.4-61.1-61.1-61.1-61.1 27.4-61.1 61.1 27.4 61.1 61.1 61.1z" />
<glyph unicode="&#xe9ab;" glyph-name="17" d="M868.6 864h-148.6c-7.6 0-15.2-2.9-21-8.7s-8.7-13.4-8.7-21 2.9-15.2 8.7-21 13.4-8.7 21-8.7h148.6v-148.6c0-7.6 2.9-15.2 8.7-21s13.4-8.7 21-8.7 15.2 2.9 21 8.7 8.7 13.4 8.7 21v148.6c0 32.8-26.6 59.4-59.4 59.4zM928 91.4v148.6c0 7.6-2.9 15.2-8.7 21s-13.4 8.7-21 8.7-15.2-2.9-21-8.7-8.7-13.4-8.7-21v-148.6h-148.6c-7.6 0-15.2-2.9-21-8.7s-8.7-13.4-8.7-21 2.9-15.2 8.7-21 13.4-8.7 21-8.7h148.6c32.8 0 59.4 26.6 59.4 59.4zM155.4 32h148.6c7.6 0 15.2 2.9 21 8.7s8.7 13.4 8.7 21-2.9 15.2-8.7 21-13.4 8.7-21 8.7h-148.6v148.6c0 7.6-2.9 15.2-8.7 21s-13.4 8.7-21 8.7-15.2-2.9-21-8.7-8.7-13.4-8.7-21v-148.6c0-32.8 26.6-59.4 59.4-59.4zM96 804.6v-148.6c0-7.6 2.9-15.2 8.7-21s13.4-8.7 21-8.7 15.2 2.9 21 8.7c5.8 5.8 8.7 13.4 8.7 21v148.6h148.6c7.6 0 15.2 2.9 21 8.7s8.7 13.4 8.7 21-2.9 15.2-8.7 21-13.4 8.7-21 8.7h-148.6c-32.8 0-59.4-26.6-59.4-59.4zM898.3 418.3h-772.6c-16.4 0-29.7 13.3-29.7 29.7s13.3 29.7 29.7 29.7h772.6c16.4 0 29.7-13.3 29.7-29.7s-13.3-29.7-29.7-29.7z" />
<glyph unicode="&#xe9ac;" glyph-name="setting" d="M510.464 604.672c-97.28 0-176.64-79.36-176.64-176.64s79.36-176.64 176.64-176.64c30.208 0 60.416 7.68 86.528 22.528 8.704 5.12 12.288 16.384 7.168 25.088s-16.384 12.288-25.088 7.168c-20.48-11.776-44.544-17.92-68.096-17.92-76.8 0-139.264 62.464-139.264 139.264s62.464 139.264 139.264 139.264 139.264-62.464 139.264-139.264c0-24.064-6.144-47.616-17.92-68.608-5.12-8.704-2.048-20.48 7.168-25.088 8.704-5.12 20.48-2.048 25.088 7.168 14.848 26.112 23.040 56.32 23.040 86.528-0.512 97.792-79.872 177.152-177.152 177.152zM924.16 511.488l-125.44 20.48c-2.56 7.168-5.632 14.848-9.216 22.016l74.24 102.912c5.12 7.168 4.608 17.408-2.048 24.064l-94.72 94.72c-6.656 6.656-16.384 7.168-24.064 2.048l-103.424-74.24c-7.68 3.584-15.36 6.656-23.040 9.216l-19.968 127.488c-1.536 9.216-9.216 15.872-18.432 15.872h-133.632c-9.216 0-16.896-6.656-18.432-15.872l-19.968-127.488c-7.168-2.56-13.824-5.632-20.992-8.704l-104.448 75.776c-7.168 5.632-17.408 4.608-24.064-2.048l-94.72-94.208c-6.656-6.656-7.168-16.896-2.048-24.064l75.776-103.936c-3.584-8.192-7.168-15.872-10.24-24.064l-124.928-19.968c-9.216-1.536-15.872-9.216-15.872-18.432v-134.144c0-9.216 6.656-16.896 15.872-18.432l124.928-19.456c3.072-7.68 6.144-15.872 9.728-23.552l-74.24-102.4c-5.632-7.168-4.608-17.408 2.048-24.064l94.72-94.72c6.656-6.656 16.896-7.168 24.064-2.048l102.4 74.752c7.168-3.584 14.848-6.656 22.528-9.216l19.968-123.392c1.536-9.216 9.216-15.36 18.432-15.36h133.632c9.216 0 16.896 6.656 18.432 15.36l19.968 122.88c8.192 3.072 16.384 6.656 24.576 10.24l100.864-72.704c7.168-5.12 17.408-4.608 24.064 2.048l94.72 94.72c6.656 6.656 7.168 16.384 2.048 24.064l-73.216 101.888c3.072 7.168 6.144 13.824 8.704 20.992l125.44 20.48c9.216 1.536 15.36 9.216 15.36 18.432v133.632c0 9.216-6.656 16.896-15.36 18.432zM902.144 374.784l-120.832-19.456c-6.656-1.024-12.288-6.144-14.848-12.8-4.096-12.8-9.216-25.088-15.36-36.864-3.072-6.144-2.56-13.824 1.536-19.456l70.656-97.792-72.192-72.192-97.28 70.144c-5.632 4.096-13.312 4.608-19.456 1.536-12.8-6.656-26.624-12.288-39.936-16.896-6.656-2.048-11.264-7.68-12.8-14.848l-19.456-118.272h-102.4l-19.456 118.784c-1.024 6.656-6.144 12.288-12.8 14.848-13.312 4.096-26.112 9.728-38.4 15.872-6.144 3.072-13.824 2.56-19.456-1.536l-98.304-71.68-71.68 72.192 71.68 98.816c4.096 5.632 4.608 13.312 1.536 19.456-6.656 12.8-12.288 26.112-16.384 39.424-2.048 6.656-7.68 11.776-14.848 12.8l-120.32 18.944v102.4l120.32 18.944c7.168 1.024 12.8 6.144 14.848 12.8 4.608 13.824 10.24 27.136 16.896 39.936 3.072 6.144 2.56 13.824-1.536 19.456l-72.704 98.816 72.192 72.192 100.864-73.216c5.632-4.096 13.312-4.608 19.456-1.536 11.776 6.144 24.576 11.264 36.864 15.36 6.656 2.048 11.264 7.68 12.8 14.848l19.456 122.88h102.4l19.456-122.368c1.024-7.168 6.144-12.8 12.8-14.848 13.312-4.096 26.112-9.728 38.4-15.872 6.144-3.072 13.824-2.56 19.456 1.536l99.328 71.68 71.68-72.704-71.68-99.328c-4.096-5.632-4.608-13.312-1.536-19.456 6.144-12.288 11.776-25.088 15.872-37.888 2.048-6.656 7.68-11.264 14.848-12.8l120.832-19.456-0.512-102.4z" />
<glyph unicode="&#xe9ad;" glyph-name="notice" d="M693 588.5h-360c-6.6 0-12 5.4-12 12v155.7c0 6.6 5.4 12 12 12h360c6.6 0 12-5.4 12-12v-155.7c0-6.6-5.4-12-12-12zM693 583.5h-360c-9.4 0-17 7.6-17 17v155.7c0 9.4 7.6 17 17 17h360c9.4 0 17-7.6 17-17v-155.7c0-9.4-7.6-17-17-17zM333 763.2c-3.9 0-7-3.1-7-7v-155.7c0-3.9 3.1-7 7-7h360c3.9 0 7 3.1 7 7v155.7c0 3.9-3.1 7-7 7h-360zM896.2 31.7h-768.2l121.3 622.3h524zM902.3 26.7h-780.3l123.2 632.3h532.2l124.9-632.3zM134.1 36.7h756l-120.9 612.3h-515.7l-119.4-612.3zM146.8 133.3h730.3v-10h-730.3z" />
<glyph unicode="&#xe9ae;" glyph-name="4" d="M150.588 960h722.824c83.17 0 150.588-67.418 150.588-150.588v-722.824c0-83.17-67.418-150.588-150.588-150.588h-722.824c-83.17 0-150.588 67.418-150.588 150.588v722.824c0 83.17 67.418 150.588 150.588 150.588zM306.191 247.221v50.191c0.017 27.718 22.487 50.183 50.205 50.191h401.559v351.383c-0.017 27.713-22.478 50.174-50.189 50.191h-401.575c-27.713-0.017-50.174-22.478-50.191-50.189v-501.973c0.017-27.713 22.478-50.174 50.189-50.191h401.575c27.713 0.017 50.174 22.478 50.191 50.189v0.002h-401.559c-27.725 0.009-50.198 22.481-50.206 50.205v0.001zM692.706 247.221c13.86 0 25.096 11.236 25.096 25.096s-11.236 25.096-25.096 25.096v0h-351.368c-13.86 0-25.096-11.236-25.096-25.096s11.236-25.096 25.096-25.096v0h351.368z" />
<glyph unicode="&#xe9af;" glyph-name="eyes" horiz-adv-x="1637" d="M1625.214 480.703c-91.045 113.022-418.077 479.297-806.851 479.297s-713.713-366.275-806.851-479.297c-7.151-8.873-11.479-20.283-11.479-32.703s4.328-23.83 11.557-32.804l-0.078 0.101c91.569-113.022 418.6-479.297 806.851-479.297s715.806 366.275 806.851 479.297c7.151 8.873 11.479 20.283 11.479 32.703s-4.328 23.83-11.557 32.804l0.078-0.101zM818.363 41.173c-313.95 0-587.61 278.892-698.015 407.088 110.406 128.196 386.682 407.088 698.015 407.088s587.61-278.892 699.062-407.088c-111.452-128.196-387.728-407.088-699.062-407.088zM815.747 698.375c-135.533 0-245.404-109.871-245.404-245.404s109.871-245.404 245.404-245.404c135.533 0 245.404 109.871 245.404 245.404v0c0 135.533-109.871 245.404-245.404 245.404v0zM815.747 312.217c-77.736 0-140.754 63.018-140.754 140.754s63.018 140.754 140.754 140.754c77.736 0 140.754-63.018 140.754-140.754v0c0.002-0.311 0.004-0.679 0.004-1.047 0-77.736-63.018-140.754-140.754-140.754-0.001 0-0.003 0-0.004 0v0z" />
<glyph unicode="&#xe9b0;" glyph-name="sheare" d="M724.9 357.345c12.042-9.569 31.304-4.787 40.934 9.574 4.813 7.183 4.813 14.362 4.813 21.54-2.412 7.178-7.224 14.362-12.042 19.144-16.855 9.574-33.71 21.54-52.972 28.718 24.079 23.936 43.341 50.258 55.378 81.377 14.438 33.5 21.673 69.402 21.673 107.694 0 148.378-120.397 268.047-269.686 268.047s-267.279-122.056-267.279-270.433c0-71.798 28.897-138.813 79.462-189.076-156.508-71.793-257.638-227.359-257.638-399.677 0-16.753 12.037-28.718 28.892-28.718s28.892 11.965 28.892 28.718c0 160.348 101.125 303.944 250.419 358.989 84.28-50.248 192.635-47.867 274.499 0 26.496-9.564 52.987-21.535 74.655-35.896zM513.009 414.787c-115.579 0-209.49 93.343-209.49 208.22 0 114.872 93.906 208.21 209.49 208.21s209.49-93.338 209.49-208.21c0-28.718-4.813-57.446-16.855-83.763-9.631-23.936-26.491-45.476-45.757-64.62-38.518-38.298-91.5-59.837-146.877-59.837zM924.728 192.829h-95.13v95.135c0 17.512-14.196 31.708-31.708 31.708s-31.708-14.196-31.708-31.708v0-95.135h-95.135c-17.513 0-31.711-14.197-31.711-31.711s14.197-31.711 31.711-31.711v0h95.135v-95.13c-0.003-0.17-0.005-0.369-0.005-0.57 0-17.515 14.199-31.713 31.713-31.713s31.713 14.199 31.713 31.713c0 0.2-0.002 0.4-0.006 0.6v-0.030 95.13h95.13c17.513 0 31.711 14.197 31.711 31.711s-14.197 31.711-31.711 31.711v0z" />
<glyph unicode="&#xe9b1;" glyph-name="notebook" d="M985.6-20.48h-942.080c-14.336 0-25.6 11.264-25.6 25.6v686.080c0 14.336 11.264 25.6 25.6 25.6h471.040c14.336 0 25.6-11.264 25.6-25.6s-11.264-25.6-25.6-25.6h-445.44v-634.88h890.88v384c0 14.336 11.264 25.6 25.6 25.6s25.6-11.264 25.6-25.6v-409.6c0-14.336-11.264-25.6-25.6-25.6zM473.6 409.6h-302.080c-14.336 0-25.6 11.264-25.6 25.6s11.264 25.6 25.6 25.6h302.080c14.336 0 25.6-11.264 25.6-25.6s-11.264-25.6-25.6-25.6zM816.64 194.56h-645.12c-14.336 0-25.6 11.264-25.6 25.6s11.264 25.6 25.6 25.6h645.12c14.336 0 25.6-11.264 25.6-25.6s-11.264-25.6-25.6-25.6zM643.072 409.6c-5.632 0-11.264 2.048-15.872 5.632-11.264 8.704-12.8 25.088-4.096 35.84l342.016 427.52c8.704 11.264 25.088 12.8 35.84 4.096 11.264-8.704 12.8-25.088 4.096-35.84l-342.016-427.52c-5.12-6.656-12.288-9.728-19.968-9.728z" />
<glyph unicode="&#xe9b2;" glyph-name="list" d="M704 243.2h-358.4c-15.36 0-25.6-10.24-25.6-25.6s10.24-25.6 25.6-25.6h358.4c15.36 0 25.6 10.24 25.6 25.6 0 12.8-10.24 25.6-25.6 25.6zM780.8 755.2h-76.8v51.2h-69.12c-23.040 30.72-64 51.2-110.080 51.2s-87.040-20.48-110.080-51.2h-69.12v-51.2h-76.8c-56.32 0-102.4-46.080-102.4-102.4v-512c0-56.32 46.080-102.4 102.4-102.4h512c56.32 0 102.4 46.080 102.4 102.4v512c0 56.32-46.080 102.4-102.4 102.4zM396.8 755.2h56.32c0 28.16 30.72 51.2 71.68 51.2 38.4 0 71.68-23.040 71.68-51.2h56.32v-102.4h-256v102.4zM832 140.8c0-28.16-23.040-51.2-51.2-51.2h-512c-28.16 0-51.2 23.040-51.2 51.2v512c0 28.16 23.040 51.2 51.2 51.2h76.8v-102.4h358.4v102.4h76.8c28.16 0 51.2-23.040 51.2-51.2v-512zM704 371.2h-358.4c-15.36 0-25.6-10.24-25.6-25.6s10.24-25.6 25.6-25.6h358.4c15.36 0 25.6 10.24 25.6 25.6 0 12.8-10.24 25.6-25.6 25.6zM704 499.2h-358.4c-15.36 0-25.6-10.24-25.6-25.6s10.24-25.6 25.6-25.6h358.4c15.36 0 25.6 10.24 25.6 25.6 0 12.8-10.24 25.6-25.6 25.6z" />
<glyph unicode="&#xe9b3;" glyph-name="receipt" d="M765.6 525.5v-71.2c0-6 4.8-10.8 10.8-10.8 77.5 0 140.3 62.8 140.3 140.3v140c0 8.2-6.7 14.9-14.9 14.9h-690.4c-81.3 0-147.2-65.9-147.2-147.2 0-10 8.1-18.1 18.1-18.1h635.5c26.4-0.1 47.8-21.5 47.8-47.9zM945.9 280.2h-635.5c-26.4 0-47.8 21.4-47.8 47.8v71.2c0 6-4.8 10.8-10.8 10.8-77.5 0-140.3-62.8-140.3-140.3v-140c0-8.2 6.7-14.9 14.9-14.9h690.4c81.3 0 147.2 65.9 147.2 147.2 0 10.1-8.1 18.2-18.1 18.2z" />
</font>
</defs>
</svg>
